<?xml version="1.0" encoding="UTF-8"?>
<svg id="Layer_1" data-name="Layer 1" xmlns="http://www.w3.org/2000/svg" xmlns:xlink="http://www.w3.org/1999/xlink" viewBox="0 0 173 26">
  <defs>
    <style>
      .cls-1 {
        fill: url(#linear-gradient);
      }

      .cls-1, .cls-2, .cls-3, .cls-4, .cls-5, .cls-6, .cls-7 {
        stroke-width: 0px;
      }

      .cls-2 {
        fill: #2f49ed;
      }

      .cls-3 {
        fill: #1e1445;
      }

      .cls-4 {
        fill: #8839ed;
      }

      .cls-5 {
        fill: url(#linear-gradient-2);
      }

      .cls-6 {
        fill: url(#linear-gradient-3);
      }

      .cls-7 {
        fill: #f19b5d;
      }
    </style>
    <linearGradient id="linear-gradient" x1="13.74" y1="-118.6" x2="14.56" y2="-121.13" gradientTransform="translate(0 124)" gradientUnits="userSpaceOnUse">
      <stop offset="0" stop-color="#621eb9"/>
      <stop offset=".77" stop-color="#8839ed"/>
    </linearGradient>
    <linearGradient id="linear-gradient-2" x1="18.04" y1="-110.16" x2="19.24" y2="-107.39" gradientTransform="translate(0 124)" gradientUnits="userSpaceOnUse">
      <stop offset="0" stop-color="#e0833f"/>
      <stop offset=".8" stop-color="#f09b5d"/>
    </linearGradient>
    <linearGradient id="linear-gradient-3" x1="8.52" y1="-110.46" x2="6.19" y2="-110.44" gradientTransform="translate(0 124)" gradientUnits="userSpaceOnUse">
      <stop offset="0" stop-color="#1b30b7"/>
      <stop offset="1" stop-color="#2f49ed"/>
    </linearGradient>
  </defs>
  <g id="Layer_3" data-name="Layer 3">
    <g>
      <path class="cls-3" d="M37.36,21.05c-.24,0-.44-.07-.59-.2-.14-.14-.22-.3-.25-.49l-2.57-14.38s-.02-.06-.02-.09v-.07c0-.12.05-.23.14-.31.09-.1.2-.16.34-.16h2.37c.39,0,.61.16.65.47l1.69,9.49,1.82-5.9c.04-.12.12-.25.23-.38.11-.13.28-.2.52-.2h1.42c.24,0,.41.07.52.2.11.13.17.26.2.38l1.85,5.88,1.67-9.47c.04-.31.27-.47.68-.47h2.37c.14,0,.25.05.34.16.09.09.13.19.13.31v.07s0,.06-.02.09l-2.57,14.38c-.03.19-.12.36-.27.49-.13.13-.32.2-.56.2h-1.83c-.24,0-.43-.06-.56-.18-.12-.13-.2-.27-.25-.4l-2.41-6.96-2.39,6.96c-.04.14-.13.27-.27.4-.12.12-.31.18-.56.18h-1.8Z"/>
      <path class="cls-3" d="M51.1,21.05c-.13,0-.25-.04-.34-.13-.09-.1-.13-.22-.13-.34,0-.08,0-.14.02-.2l5.36-14.43c.05-.16.14-.31.27-.43.13-.12.32-.18.56-.18h2.89c.24,0,.43.06.56.18.14.12.23.26.27.43l5.36,14.43c.02.06.02.13.02.2,0,.12-.04.23-.14.34-.09.09-.2.13-.34.13h-2.34c-.23,0-.39-.05-.49-.16s-.17-.2-.2-.29l-.97-2.51h-6.36l-.97,2.51c-.03.09-.1.19-.2.29-.1.1-.27.16-.5.16h-2.34,0ZM55.95,15.2h4.67l-2.32-6.46-2.34,6.46h0Z"/>
      <path class="cls-3" d="M67.79,21.05c-.17,0-.3-.05-.41-.16-.11-.1-.16-.24-.16-.4V5.91c0-.16.05-.3.16-.4.1-.1.24-.16.41-.16h2.05c.23,0,.39.05.5.16s.17.19.2.25l6.02,9.36V5.91c0-.16.05-.3.16-.4.1-.1.23-.16.38-.16h2.3c.16,0,.3.05.41.16s.16.24.16.4v14.58c0,.15-.05.29-.16.4-.1.1-.24.16-.41.16h-2.08c-.23,0-.39-.05-.49-.16-.09-.12-.16-.2-.2-.25l-6-9.07v8.91c0,.16-.05.3-.16.4-.11.1-.24.16-.41.16h-2.28,0Z"/>
      <path class="cls-3" d="M83.18,21.05c-.16,0-.3-.05-.41-.16s-.16-.24-.16-.4V5.91c0-.16.05-.3.16-.4.1-.1.24-.16.41-.16h2.05c.23,0,.39.05.49.16s.17.19.2.25l6.02,9.36V5.91c0-.16.05-.3.16-.4s.23-.16.38-.16h2.3c.16,0,.3.05.41.16s.16.24.16.4v14.58c0,.15-.05.29-.16.4-.1.1-.24.16-.41.16h-2.07c-.23,0-.39-.05-.5-.16-.09-.12-.16-.2-.2-.25l-6-9.07v8.91c0,.16-.05.3-.16.4s-.24.16-.41.16c0,0-2.28,0-2.28,0Z"/>
      <path class="cls-3" d="M97.09,21.05c-.14,0-.25-.04-.34-.13-.09-.1-.14-.22-.14-.34,0-.08,0-.14.02-.2l5.37-14.43c.04-.16.13-.31.27-.43s.32-.18.56-.18h2.89c.24,0,.43.06.56.18.14.12.23.26.27.43l5.36,14.43c.01.06.02.13.02.2,0,.12-.04.23-.13.34-.09.09-.2.13-.34.13h-2.34c-.23,0-.39-.05-.5-.16s-.17-.2-.2-.29l-.97-2.51h-6.36l-.97,2.51c-.03.09-.1.19-.2.29s-.27.16-.49.16h-2.34,0ZM101.94,15.2h4.67l-2.32-6.46-2.34,6.46Z"/>
      <path class="cls-3" d="M113.77,21.05c-.16,0-.3-.05-.41-.16s-.16-.24-.16-.4V5.91c0-.16.05-.3.16-.4.1-.1.24-.16.41-.16h2.46c.16,0,.3.05.41.16s.16.24.16.4v5.61h6.11v-5.61c0-.16.05-.3.16-.4s.24-.16.41-.16h2.46c.16,0,.3.05.41.16s.16.24.16.4v14.58c0,.16-.05.3-.16.4s-.24.16-.41.16h-2.46c-.16,0-.3-.05-.41-.16s-.16-.24-.16-.4v-5.79h-6.11v5.79c0,.16-.05.3-.16.4s-.24.16-.41.16c0,0-2.46,0-2.46,0Z"/>
      <path class="cls-3" d="M128.23,21.05c-.14,0-.25-.04-.34-.13-.09-.1-.14-.22-.14-.34,0-.08,0-.14.02-.2l5.36-14.43c.04-.16.13-.31.27-.43s.32-.18.57-.18h2.88c.24,0,.43.06.56.18.14.12.23.26.27.43l5.36,14.43c.02.06.02.13.02.2,0,.12-.05.23-.14.34-.09.09-.2.13-.34.13h-2.34c-.23,0-.39-.05-.5-.16s-.17-.2-.2-.29l-.97-2.51h-6.36l-.97,2.51c-.03.09-.1.19-.2.29-.1.1-.27.16-.49.16h-2.34,0ZM133.08,15.2h4.67l-2.32-6.46-2.34,6.46h0Z"/>
      <path class="cls-3" d="M144.91,21.05c-.16,0-.3-.05-.41-.16-.1-.1-.16-.24-.16-.4V5.91c0-.16.05-.3.16-.4.1-.1.24-.16.41-.16h2.05c.23,0,.39.05.49.16.11.1.18.19.2.25l6.02,9.36V5.91c0-.16.05-.3.16-.4s.23-.16.38-.16h2.3c.16,0,.3.05.41.16.11.1.16.24.16.4v14.58c0,.15-.05.29-.16.4-.1.1-.24.16-.41.16h-2.07c-.23,0-.39-.05-.5-.16-.09-.12-.16-.2-.2-.25l-6-9.07v8.91c0,.16-.05.3-.16.4-.1.1-.24.16-.41.16h-2.28Z"/>
      <path class="cls-3" d="M166.08,21.28c-1.41,0-2.62-.23-3.63-.7-.99-.48-1.77-1.17-2.32-2.06-.54-.91-.83-2.01-.88-3.3-.02-.64-.02-1.33-.02-2.06s0-1.43.02-2.09c.04-1.26.34-2.33.88-3.21.55-.88,1.34-1.55,2.34-2.02,1.02-.48,2.22-.72,3.61-.72,1.11,0,2.09.14,2.93.43.84.29,1.55.66,2.12,1.12.57.45,1.01.94,1.31,1.48.3.54.46,1.05.47,1.55,0,.13-.05.25-.14.36-.09.09-.21.14-.36.14h-2.79c-.15,0-.27-.03-.36-.09-.08-.06-.14-.15-.2-.27-.11-.27-.28-.54-.52-.81-.23-.29-.53-.52-.93-.72-.39-.19-.9-.29-1.53-.29-.95,0-1.7.25-2.26.74-.54.49-.83,1.3-.88,2.42-.04,1.29-.04,2.6,0,3.93.04,1.17.35,2,.9,2.51.57.51,1.33.76,2.28.76.61,0,1.16-.1,1.65-.31.49-.23.88-.57,1.17-1.03.29-.46.43-1.05.43-1.77v-.56h-2.46c-.15,0-.28-.05-.38-.16-.1-.12-.16-.25-.16-.4v-1.44c0-.16.05-.3.16-.4.1-.1.23-.16.38-.16h5.52c.16,0,.3.05.41.16.1.1.16.24.16.4v2.45c0,1.29-.29,2.39-.86,3.3-.56.91-1.36,1.61-2.41,2.11-1.04.48-2.25.72-3.65.72h0Z"/>
      <path class="cls-4" d="M23.82,7.81c-.25,0-.49-.03-.74-.1-1.53-.41-2.44-1.99-2.03-3.51s1.99-2.44,3.51-2.03c1.53.41,2.44,1.99,2.03,3.51-.34,1.28-1.51,2.13-2.77,2.13h0ZM23.82,3.68c-.55,0-1.07.37-1.22.94-.18.67.22,1.36.89,1.54.67.18,1.36-.22,1.54-.89s-.22-1.36-.89-1.54c-.11-.03-.22-.04-.33-.04Z"/>
      <path class="cls-4" d="M22.77,10.21l-4.8-1.29-.42,1.55,4.8,1.29c.49.13.77.63.64,1.12-.13.49-.63.77-1.12.64l-4.62-1.24c-.49-.13-.77-.63-.65-1.11l2.12-7.96c.36-1.34-.44-2.72-1.78-3.08-1.35-.36-2.72.44-3.09,1.78l-1.24,4.63c-.19.7-.05,1.42.3,1.99.42-.56.73-.66,1.15-1.21l1.33-4.98c.06-.24.22-.43.43-.55.21-.12.46-.16.69-.09.49.13.77.63.65,1.11l-2.12,7.96c-.36,1.34.44,2.72,1.78,3.08l4.62,1.24c.22.06.44.09.65.09,1.11,0,2.13-.74,2.43-1.87.36-1.34-.44-2.72-1.77-3.08h0s0,0,0,0Z"/>
      <path class="cls-2" d="M2.87,7.81c-.5,0-.99-.13-1.43-.39-.66-.38-1.14-1-1.33-1.74C-.1,4.94,0,4.17.39,3.51c.38-.66,1-1.14,1.74-1.33,1.53-.41,3.1.5,3.51,2.03.41,1.53-.5,3.1-2.03,3.51-.24.07-.49.1-.75.1h0s0,0,0,0ZM2.87,3.68c-.1,0-.22.02-.33.04-.32.09-.6.3-.77.59-.17.29-.21.63-.13.96.09.33.3.6.59.77.29.17.63.22.96.13.67-.18,1.08-.87.9-1.55-.15-.56-.66-.93-1.22-.93h0s0,0,0,0Z"/>
      <path class="cls-2" d="M14.06,6.54l-1.24-4.63c-.36-1.34-1.75-2.14-3.09-1.78-1.34.36-2.14,1.74-1.78,3.08l1.28,4.8,1.55-.42-1.28-4.8c-.13-.49.16-.98.65-1.11s.99.16,1.12.65l1.24,4.63c.13.49-.16.98-.64,1.11l-7.95,2.14c-1.34.36-2.14,1.74-1.78,3.08.3,1.12,1.32,1.87,2.43,1.87.21,0,.43-.03.65-.09l4.62-1.24c.65-.18,1.2-.59,1.53-1.18.04-.08.08-.16.11-.24-.18-.03-1.42-.31-1.42-.31l-.63.16-4.62,1.24c-.24.07-.48.03-.69-.09-.21-.12-.36-.32-.43-.55-.13-.49.16-.98.64-1.11l7.95-2.14c1.34-.36,2.14-1.74,1.78-3.08h0Z"/>
      <path class="cls-7" d="M15.37,21.06c-1.12-1.12-2.94-1.12-4.05,0-.54.54-.84,1.26-.84,2.03s.3,1.49.84,2.03c.56.56,1.3.84,2.03.84s1.47-.28,2.03-.84c1.12-1.12,1.12-2.94,0-4.06h0ZM14.24,23.98c-.49.49-1.3.49-1.79,0-.24-.24-.37-.55-.37-.89s.14-.65.37-.89c.24-.24.57-.37.89-.37s.65.13.9.37c.49.49.49,1.29,0,1.78Z"/>
      <path class="cls-7" d="M20.94,19.54c-.49.49-1.13.74-1.78.74s-1.29-.25-1.78-.73l-5.83-5.82c-.36-.36-.94-.36-1.29,0l-3.39,3.39c-.18.17-.27.4-.27.64s.09.48.27.65c.36.36.93.36,1.29,0l3.51-3.51,1.13,1.13-3.51,3.51c-.98.98-2.58.98-3.56,0-.47-.48-.74-1.11-.74-1.78s.27-1.3.74-1.78l3.39-3.39c.98-.98,2.58-.98,3.56,0l5.83,5.82c.36.36.93.36,1.29,0s.36-.93,0-1.29l-3.39-3.39-.1-.1c.16.09.34.15.52.21l2.66.71,1.43,1.44c.98.98.98,2.58,0,3.56h0Z"/>
      <path class="cls-1" d="M13.35,3.88l.74,2.78s.05.27.05.45l.96-3.57-1.46-.78s-.3,1.13-.3,1.13Z"/>
      <path class="cls-5" d="M19.51,14.55s-2.02-.54-2.78-.74c-.11-.03-.41-.18-.41-.18.09.1,2.61,2.61,2.61,2.61l1.41-.87-.83-.83Z"/>
      <path class="cls-6" d="M7.18,14.55l2.04-2.03s.2-.18.36-.27l-3.57.96.05,1.65,1.13-.3s0,0,0,0Z"/>
    </g>
  </g>
</svg>