<?xml version="1.0" encoding="UTF-8"?>
<svg id="Layer_1" data-name="Layer 1" xmlns="http://www.w3.org/2000/svg" xmlns:xlink="http://www.w3.org/1999/xlink" viewBox="0 0 233 35">
  <defs>
    <style>
      .cls-1 {
        fill: url(#linear-gradient);
      }

      .cls-1, .cls-2, .cls-3, .cls-4, .cls-5, .cls-6, .cls-7 {
        stroke-width: 0px;
      }

      .cls-2 {
        fill: #2f49ed;
      }

      .cls-3 {
        fill: #1e1445;
      }

      .cls-4 {
        fill: #8839ed;
      }

      .cls-5 {
        fill: url(#linear-gradient-2);
      }

      .cls-6 {
        fill: url(#linear-gradient-3);
      }

      .cls-7 {
        fill: #f19b5d;
      }
    </style>
    <linearGradient id="linear-gradient" x1="18.51" y1="-116.74" x2="19.6" y2="-120.14" gradientTransform="translate(0 124)" gradientUnits="userSpaceOnUse">
      <stop offset="0" stop-color="#621eb9"/>
      <stop offset=".77" stop-color="#8839ed"/>
    </linearGradient>
    <linearGradient id="linear-gradient-2" x1="24.29" y1="-105.37" x2="25.92" y2="-101.64" gradientTransform="translate(0 124)" gradientUnits="userSpaceOnUse">
      <stop offset="0" stop-color="#e0833f"/>
      <stop offset=".8" stop-color="#f09b5d"/>
    </linearGradient>
    <linearGradient id="linear-gradient-3" x1="11.47" y1="-105.77" x2="8.34" y2="-105.74" gradientTransform="translate(0 124)" gradientUnits="userSpaceOnUse">
      <stop offset="0" stop-color="#1b30b7"/>
      <stop offset="1" stop-color="#2f49ed"/>
    </linearGradient>
  </defs>
  <g id="Layer_3" data-name="Layer 3">
    <g>
      <path class="cls-3" d="M50.31,28.34c-.32,0-.59-.09-.79-.27-.18-.18-.3-.4-.33-.67l-3.46-19.37s-.03-.08-.03-.12v-.09c0-.16.06-.3.18-.42.12-.14.27-.21.45-.21h3.19c.53,0,.82.21.88.63l2.28,12.78,2.46-7.95c.06-.16.16-.33.3-.51.14-.18.38-.27.7-.27h1.91c.32,0,.56.09.7.27.14.18.23.35.27.51l2.49,7.92,2.25-12.75c.06-.42.36-.63.91-.63h3.19c.18,0,.33.07.46.21.12.12.18.26.18.42v.09s0,.08-.03.12l-3.46,19.37c-.04.26-.16.48-.37.67-.18.18-.43.27-.76.27h-2.46c-.32,0-.57-.08-.76-.24-.16-.18-.27-.36-.33-.54l-3.25-9.37-3.22,9.37c-.06.18-.18.36-.36.54-.16.16-.42.24-.76.24h-2.43Z"/>
      <path class="cls-3" d="M68.83,28.34c-.18,0-.33-.06-.45-.18-.12-.14-.18-.29-.18-.45,0-.1,0-.19.03-.27l7.23-19.43c.06-.22.18-.41.37-.57.18-.16.43-.24.76-.24h3.89c.32,0,.57.08.76.24.18.16.3.35.36.57l7.23,19.43c.02.08.03.17.03.27,0,.16-.06.31-.18.45-.12.12-.27.18-.45.18h-3.16c-.3,0-.53-.07-.67-.21s-.23-.27-.27-.39l-1.3-3.38h-8.56l-1.31,3.38c-.04.12-.13.25-.27.39-.14.14-.37.21-.67.21h-3.16,0ZM75.36,20.46h6.29l-3.13-8.7-3.16,8.7h0Z"/>
      <path class="cls-3" d="M91.3,28.34c-.23,0-.41-.07-.55-.21-.14-.14-.21-.32-.21-.54V7.95c0-.22.07-.4.21-.54.14-.14.32-.21.55-.21h2.76c.31,0,.53.07.67.21s.23.25.27.33l8.11,12.6V7.95c0-.22.07-.4.21-.54.14-.14.31-.21.51-.21h3.1c.22,0,.41.07.55.21s.21.32.21.54v19.64c0,.2-.07.38-.21.54-.14.14-.32.21-.55.21h-2.8c-.3,0-.53-.07-.67-.21-.12-.16-.21-.27-.27-.33l-8.07-12.21v12c0,.22-.07.4-.21.54-.14.14-.32.21-.55.21h-3.07,0Z"/>
      <path class="cls-3" d="M112.03,28.34c-.22,0-.41-.07-.55-.21s-.21-.32-.21-.54V7.95c0-.22.07-.4.21-.54.14-.14.32-.21.55-.21h2.76c.3,0,.53.07.67.21s.23.25.27.33l8.11,12.6V7.95c0-.22.07-.4.21-.54s.31-.21.51-.21h3.1c.22,0,.41.07.55.21s.21.32.21.54v19.64c0,.2-.07.38-.21.54-.14.14-.32.21-.55.21h-2.79c-.31,0-.53-.07-.67-.21-.12-.16-.21-.27-.27-.33l-8.08-12.21v12c0,.22-.07.4-.21.54s-.32.21-.55.21c0,0-3.07,0-3.07,0Z"/>
      <path class="cls-3" d="M130.76,28.34c-.18,0-.33-.06-.45-.18-.12-.14-.18-.29-.18-.45,0-.1.01-.19.03-.27l7.23-19.43c.06-.22.18-.41.36-.57s.43-.24.76-.24h3.89c.32,0,.58.08.76.24.18.16.3.35.37.57l7.23,19.43c.02.08.03.17.03.27,0,.16-.06.31-.18.45-.12.12-.27.18-.46.18h-3.15c-.31,0-.53-.07-.67-.21s-.23-.27-.27-.39l-1.31-3.38h-8.56l-1.3,3.38c-.04.12-.13.25-.27.39s-.36.21-.67.21h-3.16,0ZM137.29,20.46h6.28l-3.13-8.7-3.16,8.7Z"/>
      <path class="cls-3" d="M153.23,28.34c-.22,0-.41-.07-.55-.21s-.21-.32-.21-.54V7.95c0-.22.07-.4.21-.54.14-.14.32-.21.55-.21h3.31c.22,0,.41.07.55.21s.21.32.21.54v7.55h8.23v-7.55c0-.22.07-.4.21-.54s.32-.21.55-.21h3.31c.22,0,.41.07.55.21s.21.32.21.54v19.64c0,.22-.07.4-.21.54s-.32.21-.55.21h-3.31c-.22,0-.41-.07-.55-.21s-.21-.32-.21-.54v-7.8h-8.23v7.8c0,.22-.07.4-.21.54s-.32.21-.55.21c0,0-3.31,0-3.31,0Z"/>
      <path class="cls-3" d="M172.7,28.34c-.18,0-.33-.06-.45-.18-.12-.14-.18-.29-.18-.45,0-.1.01-.19.03-.27l7.23-19.43c.06-.22.18-.41.36-.57s.44-.24.76-.24h3.88c.32,0,.58.08.76.24.18.16.31.35.37.57l7.23,19.43c.02.08.03.17.03.27,0,.16-.06.31-.18.45-.12.12-.27.18-.45.18h-3.16c-.3,0-.53-.07-.67-.21s-.23-.27-.27-.39l-1.31-3.38h-8.56l-1.3,3.38c-.04.12-.13.25-.27.39-.14.14-.36.21-.67.21h-3.16,0ZM179.23,20.46h6.28l-3.13-8.7-3.16,8.7h0Z"/>
      <path class="cls-3" d="M195.17,28.34c-.22,0-.41-.07-.55-.21-.14-.14-.21-.32-.21-.54V7.95c0-.22.07-.4.21-.54.14-.14.32-.21.55-.21h2.76c.3,0,.53.07.67.21.14.14.24.25.27.33l8.11,12.6V7.95c0-.22.07-.4.21-.54s.31-.21.52-.21h3.09c.22,0,.41.07.55.21.14.14.21.32.21.54v19.64c0,.2-.07.38-.21.54-.14.14-.32.21-.55.21h-2.79c-.3,0-.53-.07-.67-.21-.12-.16-.21-.27-.27-.33l-8.08-12.21v12c0,.22-.07.4-.21.54-.14.14-.32.21-.55.21h-3.07Z"/>
      <path class="cls-3" d="M223.68,28.65c-1.9,0-3.53-.31-4.89-.94-1.34-.65-2.38-1.57-3.13-2.78-.73-1.23-1.12-2.71-1.18-4.44-.02-.87-.03-1.79-.03-2.78s.01-1.92.03-2.81c.06-1.69.45-3.13,1.18-4.32.75-1.19,1.8-2.09,3.15-2.72,1.38-.65,3-.97,4.86-.97,1.5,0,2.81.19,3.94.57,1.13.38,2.09.88,2.85,1.51.77.6,1.36,1.27,1.76,1.99.41.73.62,1.42.64,2.09,0,.18-.06.34-.18.48-.12.12-.28.18-.49.18h-3.76c-.2,0-.36-.04-.49-.12-.1-.08-.19-.2-.27-.36-.14-.36-.38-.73-.7-1.09-.31-.38-.72-.7-1.25-.97-.53-.26-1.21-.39-2.06-.39-1.28,0-2.29.33-3.04,1-.73.67-1.12,1.75-1.18,3.26-.06,1.73-.06,3.5,0,5.29.06,1.57.47,2.7,1.22,3.38.77.68,1.79,1.03,3.07,1.03.83,0,1.57-.14,2.22-.42.67-.3,1.19-.76,1.58-1.39.38-.62.57-1.42.57-2.39v-.75h-3.31c-.2,0-.37-.07-.51-.21-.14-.16-.21-.34-.21-.54v-1.94c0-.22.07-.4.21-.54.14-.14.31-.21.51-.21h7.44c.22,0,.41.07.55.21.14.14.21.32.21.54v3.3c0,1.73-.38,3.21-1.15,4.44-.75,1.23-1.83,2.17-3.25,2.84-1.4.65-3.03.97-4.92.97h0Z"/>
      <path class="cls-4" d="M32.08,10.51c-.33,0-.66-.04-1-.13-2.05-.55-3.28-2.68-2.73-4.73s2.68-3.28,4.73-2.73c2.05.55,3.28,2.68,2.73,4.73-.46,1.72-2.03,2.87-3.73,2.87h0ZM32.08,4.95c-.75,0-1.44.5-1.64,1.26-.24.91.3,1.84,1.2,2.08.91.24,1.84-.3,2.08-1.2s-.3-1.84-1.2-2.08c-.15-.04-.3-.06-.44-.06Z"/>
      <path class="cls-4" d="M30.67,13.74l-6.46-1.74-.56,2.09,6.46,1.74c.66.18,1.04.85.86,1.51-.18.66-.85,1.04-1.51.86l-6.23-1.67c-.66-.18-1.04-.85-.87-1.5l2.86-10.71c.48-1.8-.6-3.66-2.4-4.15-1.81-.49-3.67.6-4.16,2.4l-1.67,6.23c-.26.94-.07,1.91.41,2.68.56-.75.98-.89,1.55-1.64l1.8-6.71c.08-.32.29-.58.57-.74.29-.16.62-.21.93-.12.66.18,1.04.85.87,1.5l-2.86,10.71c-.48,1.8.6,3.66,2.4,4.15l6.23,1.67c.29.08.59.12.88.12,1.49,0,2.87-1,3.27-2.51.48-1.8-.59-3.67-2.39-4.15h0s0,0,0,0Z"/>
      <path class="cls-2" d="M3.86,10.51c-.67,0-1.33-.18-1.93-.52-.89-.51-1.53-1.35-1.79-2.34C-.13,6.65,0,5.61.52,4.72c.51-.89,1.35-1.53,2.34-1.8,2.05-.55,4.18.68,4.73,2.73.55,2.05-.68,4.18-2.73,4.73-.33.09-.67.13-1,.13h0s0,0,0,0ZM3.87,4.95c-.14,0-.29.02-.44.06-.44.12-.8.4-1.03.79-.23.39-.29.85-.17,1.29.12.44.4.8.79,1.03.39.23.85.29,1.29.17.91-.24,1.45-1.18,1.21-2.08-.2-.76-.89-1.26-1.64-1.26h0s0,0,0,0Z"/>
      <path class="cls-2" d="M18.93,8.8l-1.67-6.23c-.49-1.8-2.35-2.88-4.16-2.4-1.8.49-2.88,2.34-2.4,4.15l1.72,6.46,2.09-.56-1.72-6.46c-.18-.66.22-1.33.87-1.5s1.33.22,1.51.87l1.67,6.23c.18.66-.22,1.33-.86,1.5l-10.71,2.89c-1.8.49-2.88,2.34-2.39,4.15.41,1.51,1.78,2.51,3.28,2.51.29,0,.58-.04.88-.12l6.23-1.67c.87-.24,1.61-.8,2.06-1.58.06-.11.1-.22.15-.32-.24-.05-1.92-.41-1.92-.41l-.85.22-6.23,1.67c-.32.09-.65.04-.93-.12-.28-.16-.49-.43-.57-.74-.18-.66.22-1.33.87-1.5l10.71-2.89c1.8-.49,2.88-2.34,2.39-4.15h0Z"/>
      <path class="cls-7" d="M20.7,28.35c-1.51-1.51-3.96-1.51-5.46,0-.73.73-1.13,1.7-1.13,2.73s.41,2.01,1.13,2.74c.75.75,1.74,1.13,2.73,1.13s1.98-.38,2.73-1.13c1.51-1.51,1.51-3.96,0-5.47h0ZM19.18,32.29c-.66.66-1.74.66-2.41,0-.32-.32-.5-.74-.5-1.2s.18-.88.5-1.19c.32-.32.76-.5,1.2-.5s.87.17,1.21.5c.66.66.66,1.74,0,2.4Z"/>
      <path class="cls-7" d="M28.2,26.31c-.66.66-1.53.99-2.39.99s-1.73-.33-2.4-.99l-7.85-7.83c-.48-.48-1.26-.48-1.74,0l-4.56,4.56c-.24.23-.36.54-.36.86s.13.64.36.87c.48.48,1.26.48,1.74,0l4.73-4.72,1.53,1.53-4.73,4.72c-1.32,1.33-3.47,1.33-4.8,0-.63-.64-.99-1.49-.99-2.4s.36-1.76.99-2.39l4.56-4.56c1.33-1.33,3.48-1.33,4.8,0l7.85,7.83c.48.48,1.26.48,1.74,0s.48-1.26,0-1.74l-4.56-4.56-.14-.14c.22.12.45.21.7.28l3.59.96,1.93,1.94c1.33,1.32,1.33,3.47,0,4.79h0Z"/>
      <path class="cls-1" d="M17.98,5.21l1,3.74s.07.36.07.6l1.29-4.81-1.96-1.05s-.41,1.52-.41,1.52Z"/>
      <path class="cls-5" d="M26.27,19.59s-2.72-.73-3.74-1c-.15-.04-.55-.24-.55-.24.12.13,3.51,3.52,3.51,3.52l1.89-1.17-1.11-1.11Z"/>
      <path class="cls-6" d="M9.67,19.59l2.75-2.74s.27-.24.48-.37l-4.81,1.29.07,2.22,1.53-.41s0,0,0,0Z"/>
    </g>
  </g>
</svg>