<svg width="315" height="255" viewBox="0 0 315 255" fill="none" xmlns="http://www.w3.org/2000/svg">
<g clip-path="url(#clip0_3389_35111)">
<path d="M153.751 254.029C238.14 254.029 306.55 245.807 306.55 235.665C306.55 225.523 238.14 217.301 153.751 217.301C69.3618 217.301 0.951172 225.523 0.951172 235.665C0.951172 245.807 69.3618 254.029 153.751 254.029Z" fill="#DBE6F7"/>
<path d="M120.502 37.8863C120.502 38.6112 120.207 39.2728 119.728 39.7509C119.255 40.2323 118.597 40.5282 117.874 40.5282H61.628C60.1834 40.5282 59 39.34 59 37.8863C59 37.1608 59.2947 36.4998 59.7735 36.0217C60.247 35.5403 60.9054 35.2444 61.628 35.2444H64.2862C65.3363 32.7949 67.7607 31.0829 70.583 31.0829C72.4823 31.0829 74.2002 31.8596 75.4445 33.1123C77.1015 30.2909 80.1574 28.396 83.6568 28.396C84.6192 28.396 85.5447 28.5419 86.4187 28.8075C88.2484 25.3527 91.8663 23 96.0361 23C101.044 23 105.256 26.3943 106.527 31.013C107.45 30.5497 108.491 30.2848 109.595 30.2848C112.718 30.2848 115.352 32.378 116.181 35.2451H117.875C119.319 35.2451 120.502 36.4333 120.502 37.8863Z" fill="#DBE6F7"/>
<path d="M293.006 31.8856C293.006 32.6112 292.711 33.2721 292.232 33.7502C291.758 34.2317 291.1 34.5275 290.377 34.5275H234.132C232.688 34.5275 231.504 33.3394 231.504 31.8856C231.504 31.1601 231.798 30.4992 232.278 30.0211C232.751 29.5396 233.41 29.2438 234.132 29.2438H236.79C237.841 26.7942 240.265 25.0816 243.087 25.0816C244.987 25.0816 246.704 25.8582 247.949 27.1109C249.606 24.2895 252.662 22.3947 256.161 22.3947C257.123 22.3947 258.049 22.5406 258.923 22.8062C260.753 19.3514 264.371 16.9987 268.54 16.9987C273.548 16.9987 277.76 20.3929 279.032 25.0117C279.954 24.5484 280.995 24.2835 282.1 24.2835C285.223 24.2835 287.857 26.3767 288.685 29.2438H290.379C291.822 29.2444 293.006 30.4326 293.006 31.8856Z" fill="#DBE6F7"/>
<path d="M228.789 15.0083C228.789 15.7338 228.494 16.3948 228.016 16.8729C227.542 17.3543 226.884 17.6502 226.161 17.6502H169.915C168.471 17.6502 167.287 16.4621 167.287 15.0083C167.287 14.2835 167.582 13.6218 168.061 13.1438C168.534 12.6623 169.193 12.3665 169.915 12.3665H172.574C173.624 9.91689 176.049 8.20428 178.871 8.20428C180.771 8.20428 182.488 8.98091 183.732 10.2336C185.389 7.4122 188.445 5.51737 191.945 5.51737C192.906 5.51737 193.832 5.66328 194.706 5.92888C196.536 2.47407 200.153 0.121338 204.323 0.121338C209.331 0.121338 213.543 3.51562 214.815 8.13503C215.737 7.67174 216.778 7.40682 217.883 7.40682C221.006 7.40682 223.64 9.5 224.468 12.3671H226.162C227.606 12.3671 228.789 13.5553 228.789 15.0083Z" fill="#DBE6F7"/>
<path d="M51.9564 70.2563C51.8847 70.347 51.8111 70.4318 51.7347 70.5071C49.5581 72.6722 45.7855 64.3821 49.2721 56.086C52.7587 47.7899 49.8863 36.8298 45.2102 36.4028C40.5348 35.9758 44.5994 43.2674 38.5725 42.1485C32.5456 41.0296 31.6174 24.9101 23.8391 25.7997C17.032 26.577 21.3946 38.5162 24.7761 43.5464C27.9667 48.2949 27.0197 53.1234 23.4373 52.0678C19.8562 51.0134 16.2765 56.0047 21.6083 63.7561C26.94 71.5076 34.161 79.2227 30.6858 80.1123C27.2105 81.0039 19.9808 73.3836 16.9014 82.4019C15.5251 86.4322 24.2718 100.381 43.6859 101.485L51.9564 92.4919V70.2563Z" fill="#DBE6F7"/>
<path d="M49.6813 92.4912C41.4858 70.6523 27.7102 37.1922 27.5427 36.7854C27.4369 36.5292 27.5575 36.234 27.814 36.1271C28.0705 36.0209 28.3632 36.1439 28.4696 36.4008C28.6377 36.811 42.5654 70.6355 50.7536 92.4906L49.6813 92.4912Z" fill="#BBD4F2"/>
<path d="M37.4667 60.5051C37.3844 60.4977 37.3033 60.4695 37.2303 60.4197C37.0013 60.263 36.9423 59.9497 37.0977 59.7197C37.1412 59.6559 41.4282 53.307 42.7007 48.7286C42.775 48.4603 43.0523 48.3037 43.3188 48.379C43.5854 48.4536 43.7421 48.7313 43.6671 48.9996C42.3497 53.7387 38.107 60.0223 37.9268 60.2879C37.821 60.4439 37.6422 60.5212 37.4667 60.5051Z" fill="#BBD4F2"/>
<path d="M39.3113 65.8776C39.3012 65.8769 39.2912 65.8756 39.2811 65.8742C38.9737 65.8278 31.7031 64.7009 26.7759 61.9924C26.5328 61.8586 26.4438 61.5527 26.577 61.3086C26.7103 61.0645 27.015 60.9751 27.2581 61.1089C32.0273 63.7306 39.3582 64.8676 39.4318 64.8784C39.7057 64.9201 39.8939 65.1769 39.8524 65.4519C39.8122 65.7162 39.5738 65.9011 39.3113 65.8776Z" fill="#BBD4F2"/>
<path d="M51.9565 81.3663C49.8414 83.9161 47.5798 85.8802 47.5416 85.9131C47.3313 86.0947 47.3072 86.412 47.4873 86.6232C47.5757 86.7267 47.697 86.7859 47.8222 86.7973C47.9528 86.8094 48.0874 86.7704 48.1946 86.6783C48.3352 86.5573 50.0892 85.0343 51.9565 82.9223V81.3663Z" fill="#BBD4F2"/>
<path d="M41.5675 91.135C38.7091 90.8734 35.5634 90.3241 32.9749 89.218C32.7197 89.1091 32.6012 88.8132 32.7096 88.557C32.8181 88.3008 33.1128 88.1818 33.368 88.2907C39.5442 90.9299 49.4321 90.2622 49.5313 90.2548C49.8065 90.2347 50.0476 90.4445 50.067 90.7215C50.0865 90.9992 49.8782 91.2399 49.6022 91.2594C49.3551 91.2782 45.7741 91.5196 41.5675 91.135Z" fill="#BBD4F2"/>
<path d="M264.996 187.72C265.068 187.81 265.141 187.894 265.218 187.97C267.394 190.136 271.167 181.845 267.68 173.549C264.194 165.253 267.066 154.293 271.742 153.866C276.418 153.439 272.353 160.731 278.38 159.612C284.407 158.493 285.336 142.373 293.113 143.263C299.92 144.04 295.558 155.98 292.176 161.01C288.986 165.758 289.933 170.587 293.515 169.531C297.096 168.477 300.676 173.468 295.344 181.219C290.013 188.971 282.791 196.686 286.267 197.576C289.742 198.467 296.972 190.848 300.051 199.865C301.428 203.896 298.454 207.357 294.744 209.955H264.996V187.72Z" fill="#DBE6F7"/>
<path d="M267.272 209.955C275.467 188.116 289.243 154.656 289.41 154.249C289.516 153.993 289.396 153.697 289.139 153.59C288.883 153.484 288.59 153.607 288.484 153.865C288.315 154.274 274.388 188.099 266.2 209.955H267.272Z" fill="#BBD4F2"/>
<path d="M279.486 177.968C279.568 177.961 279.649 177.933 279.722 177.883C279.951 177.726 280.01 177.413 279.855 177.183C279.811 177.12 275.524 170.77 274.252 166.192C274.177 165.924 273.899 165.767 273.634 165.842C273.367 165.917 273.21 166.195 273.285 166.463C274.602 171.202 278.845 177.486 279.025 177.751C279.132 177.907 279.31 177.985 279.486 177.968Z" fill="#BBD4F2"/>
<path d="M277.641 183.341C277.651 183.34 277.661 183.339 277.671 183.338C277.979 183.291 285.249 182.164 290.177 179.456C290.42 179.323 290.509 179.016 290.376 178.772C290.243 178.528 289.938 178.438 289.695 178.572C284.926 181.194 277.595 182.331 277.521 182.342C277.247 182.383 277.059 182.64 277.101 182.915C277.14 183.18 277.379 183.364 277.641 183.341Z" fill="#BBD4F2"/>
<path d="M264.996 198.83C267.111 201.379 269.373 203.343 269.411 203.376C269.621 203.558 269.645 203.876 269.465 204.087C269.377 204.191 269.256 204.249 269.13 204.261C269 204.273 268.865 204.234 268.758 204.142C268.617 204.021 266.863 202.498 264.996 200.386V198.83Z" fill="#BBD4F2"/>
<path d="M275.385 208.598C278.243 208.337 281.389 207.787 283.978 206.681C284.233 206.572 284.351 206.277 284.243 206.02C284.134 205.764 283.84 205.645 283.584 205.754C277.408 208.393 267.52 207.726 267.421 207.718C267.145 207.698 266.905 207.908 266.885 208.185C266.866 208.462 267.074 208.703 267.35 208.723C267.598 208.742 271.178 208.983 275.385 208.598Z" fill="#BBD4F2"/>
<path d="M296.464 79.3075C299.247 68.0326 303.953 57.872 308.393 62.4268C312.838 66.9857 304.412 84.3162 292.777 93.5248L289.566 97.6076C297.928 90.7477 310.965 87.1141 314.205 91.4396C317.425 95.7383 308.528 97.3662 300.155 97.4926C293.781 97.5888 289.63 99.1178 287.603 100.103L272.434 119.386C285.707 108.561 306.291 102.846 311.418 109.691C316.526 116.512 302.409 119.095 289.123 119.295C279.083 119.447 272.515 121.84 269.273 123.404L266.248 127.249C265.502 126.827 264.758 126.401 264.018 125.97L282.064 103.029C282.3 100.58 282.268 97.0959 281.295 92.7017C279.477 84.4944 278.993 75.4284 283.904 77.5767C288.166 79.4413 288.381 89.7929 285.34 98.8643L291.582 90.9306C293.094 88.1455 295.262 84.1737 296.464 79.3075Z" fill="#DBE6F7"/>
<path d="M157.952 26.8191C158.22 15.206 156.343 4.16047 150.865 7.38195C145.382 10.6061 148.971 29.5517 157.784 41.509L159.812 46.2959C153.542 37.4693 141.916 30.52 137.657 33.8383C133.424 37.1351 141.582 41.0552 149.627 43.3884C155.751 45.1642 159.355 47.7362 161.053 49.2222L170.635 71.8324C160.665 57.8834 142.304 46.9333 135.564 52.1834C128.848 57.4147 141.791 63.6351 154.557 67.3374C164.204 70.1352 169.913 74.1791 172.632 76.5446L174.542 81.053C175.373 80.8432 176.202 80.6281 177.03 80.4082L165.63 53.5087C166.044 51.0827 166.987 47.7301 169.077 43.7481C172.981 36.31 175.824 27.6912 170.523 28.4665C165.922 29.1395 163.002 39.0703 163.56 48.6251L159.617 39.3224C158.887 36.2354 157.836 31.8312 157.952 26.8191Z" fill="#DBE6F7"/>
<path d="M21.8072 155.636C19.0238 144.361 14.3183 134.2 9.87796 138.755C5.43296 143.314 13.8588 160.645 25.494 169.854L28.7054 173.937C20.3432 167.077 7.30619 163.443 4.06604 167.769C0.846651 172.067 9.74334 173.695 18.1163 173.822C24.4901 173.918 28.6411 175.448 30.6684 176.433L45.8371 195.716C32.5637 184.891 11.9802 179.176 6.85346 186.021C1.74476 192.842 15.862 195.425 29.1481 195.625C39.188 195.776 45.756 198.17 48.9982 199.734L52.0227 203.579C52.7688 203.157 53.5129 202.731 54.2536 202.3L36.207 179.359C35.9713 176.909 36.0021 173.426 36.9759 169.032C38.7942 160.825 39.2784 151.758 34.3673 153.906C30.1051 155.771 29.8901 166.123 32.9307 175.194L26.6895 167.26C25.1766 164.474 23.0087 160.502 21.8072 155.636Z" fill="#DBE6F7"/>
<path d="M273.215 78.5786V205.577C273.215 210.813 268.988 215.056 263.771 215.056H48.1973C42.9815 215.056 38.7542 210.813 38.7542 205.577V78.5786C38.7542 73.3419 42.9808 69.0977 48.1973 69.0977H263.771C268.987 69.0977 273.215 73.3413 273.215 78.5786Z" fill="#3B3E7D"/>
<path d="M273.214 142.076V205.576C273.214 210.812 268.987 215.055 263.772 215.055H48.1966C42.9814 215.055 38.7548 210.811 38.7548 205.576V142.076H273.214Z" fill="#18285D"/>
<path d="M262.8 85.033V199.121C262.8 202.477 260.089 205.2 256.746 205.2H55.2248C53.438 205.2 51.8306 204.422 50.7229 203.181C49.7558 202.108 49.1698 200.681 49.1698 199.12V85.033C49.1698 81.6764 51.8815 78.9538 55.2248 78.9538H256.746C257.864 78.9538 258.91 79.2584 259.809 79.7903C261.597 80.8459 262.8 82.8006 262.8 85.033Z" fill="white"/>
<path d="M262.8 85.033V199.121C262.8 202.477 260.089 205.2 256.746 205.2H55.2248C53.438 205.2 51.8306 204.422 50.7229 203.181C49.7558 202.108 49.1698 200.681 49.1698 199.12V85.033C49.1698 81.6764 51.8815 78.9538 55.2248 78.9538H256.746C257.864 78.9538 258.91 79.2584 259.809 79.7903C261.597 80.8459 262.8 82.8006 262.8 85.033Z" fill="white"/>
<path d="M55.9923 127.558C55.9923 128.467 56.7263 129.204 57.6325 129.204H92.4196C93.3257 129.204 94.0597 128.467 94.0597 127.558C94.0597 126.648 93.3257 125.911 92.4196 125.911H57.6325C56.727 125.911 55.9923 126.649 55.9923 127.558Z" fill="#DBE6F7"/>
<path d="M55.9923 135.962C55.9923 136.872 56.7263 137.609 57.6325 137.609H92.4196C93.3257 137.609 94.0597 136.872 94.0597 135.962C94.0597 135.052 93.3257 134.315 92.4196 134.315H57.6325C56.727 134.315 55.9923 135.052 55.9923 135.962Z" fill="#DBE6F7"/>
<path d="M55.9923 144.141C55.9923 144.925 56.717 145.562 57.6104 145.562H91.9267C92.8201 145.562 93.5447 144.926 93.5447 144.141C93.5447 143.356 92.8201 142.719 91.9267 142.719H57.6104C56.717 142.719 55.9923 143.356 55.9923 144.141Z" fill="#DBE6F7"/>
<path d="M55.9923 156.702C55.9923 157.611 56.7263 158.348 57.6325 158.348H92.4196C93.3257 158.348 94.0597 157.611 94.0597 156.702C94.0597 155.792 93.3257 155.055 92.4196 155.055H57.6325C56.727 155.055 55.9923 155.793 55.9923 156.702Z" fill="#DBE6F7"/>
<path d="M55.9923 165.106C55.9923 166.016 56.7263 166.753 57.6325 166.753H92.4196C93.3257 166.753 94.0597 166.016 94.0597 165.106C94.0597 164.196 93.3257 163.459 92.4196 163.459H57.6325C56.727 163.459 55.9923 164.196 55.9923 165.106Z" fill="#DBE6F7"/>
<path d="M55.9923 173.51C55.9923 174.419 56.7263 175.156 57.6325 175.156H92.4196C93.3257 175.156 94.0597 174.419 94.0597 173.51C94.0597 172.6 93.3257 171.863 92.4196 171.863H57.6325C56.727 171.863 55.9923 172.601 55.9923 173.51Z" fill="#DBE6F7"/>
<path d="M217.67 127.558C217.67 128.467 218.404 129.204 219.311 129.204H254.098C255.004 129.204 255.738 128.467 255.738 127.558C255.738 126.648 255.004 125.911 254.098 125.911H219.311C218.405 125.911 217.67 126.649 217.67 127.558Z" fill="#DBE6F7"/>
<path d="M217.67 135.962C217.67 136.872 218.404 137.609 219.311 137.609H254.098C255.004 137.609 255.738 136.872 255.738 135.962C255.738 135.052 255.004 134.315 254.098 134.315H219.311C218.405 134.315 217.67 135.052 217.67 135.962Z" fill="#DBE6F7"/>
<path d="M217.67 144.141C217.67 144.925 218.395 145.562 219.288 145.562H253.605C254.498 145.562 255.223 144.926 255.223 144.141C255.223 143.356 254.498 142.719 253.605 142.719H219.288C218.395 142.719 217.67 143.356 217.67 144.141Z" fill="#DBE6F7"/>
<path d="M217.67 156.702C217.67 157.611 218.404 158.348 219.311 158.348H254.098C255.004 158.348 255.738 157.611 255.738 156.702C255.738 155.792 255.004 155.055 254.098 155.055H219.311C218.405 155.055 217.67 155.793 217.67 156.702Z" fill="#DBE6F7"/>
<path d="M217.67 165.106C217.67 166.016 218.404 166.753 219.311 166.753H254.098C255.004 166.753 255.738 166.016 255.738 165.106C255.738 164.196 255.004 163.459 254.098 163.459H219.311C218.405 163.459 217.67 164.196 217.67 165.106Z" fill="#DBE6F7"/>
<path d="M217.67 173.51C217.67 174.419 218.404 175.156 219.311 175.156H254.098C255.004 175.156 255.738 174.419 255.738 173.51C255.738 172.6 255.004 171.863 254.098 171.863H219.311C218.405 171.863 217.67 172.601 217.67 173.51Z" fill="#DBE6F7"/>
<path d="M262.8 85.033V91.3771H49.1698V85.033C49.1698 81.6764 51.8815 78.9538 55.2248 78.9538H256.746C257.864 78.9538 258.91 79.2584 259.809 79.7903C261.597 80.8459 262.8 82.8006 262.8 85.033Z" fill="#DBE6F7"/>
<path d="M261.706 81.5553H50.2621C51.3537 79.9826 53.1694 78.9545 55.2255 78.9545H256.746C258.801 78.9545 260.618 79.9826 261.706 81.5553Z" fill="#021147"/>
<path d="M240.63 85.8136C240.63 86.987 239.682 87.9384 238.514 87.9384C237.344 87.9384 236.397 86.987 236.397 85.8136C236.397 84.6403 237.345 83.6882 238.514 83.6882C239.682 83.6882 240.63 84.6396 240.63 85.8136Z" fill="#707FFF"/>
<path d="M247.49 85.8136C247.49 86.987 246.542 87.9384 245.373 87.9384C244.204 87.9384 243.256 86.987 243.256 85.8136C243.256 84.6403 244.204 83.6882 245.373 83.6882C246.542 83.6882 247.49 84.6396 247.49 85.8136Z" fill="#3B3E7D"/>
<path d="M254.018 85.8136C254.018 86.987 253.07 87.9384 251.902 87.9384C250.733 87.9384 249.785 86.987 249.785 85.8136C249.785 84.6403 250.733 83.6882 251.902 83.6882C253.07 83.6882 254.018 84.6396 254.018 85.8136Z" fill="#4F60D9"/>
<path d="M194.656 107.89H194.055C188.733 107.89 184.419 103.558 184.419 98.2154V97.6123C184.419 92.2694 188.733 87.9377 194.055 87.9377H194.656C199.978 87.9377 204.292 92.2694 204.292 97.6123V98.2154C204.292 103.559 199.978 107.89 194.656 107.89Z" fill="#4F60D9"/>
<path d="M196.413 107.89H195.812C190.49 107.89 186.176 103.558 186.176 98.2154V97.6123C186.176 92.2694 190.49 87.9377 195.812 87.9377H196.413C201.734 87.9377 206.049 92.2694 206.049 97.6123V98.2154C206.049 103.559 201.734 107.89 196.413 107.89Z" fill="#707FFF"/>
<path d="M190.635 96.8769C191.23 96.5185 191.996 96.7323 192.332 97.351L193.913 100.261C194.072 100.552 194.486 100.534 194.619 100.229L198.54 91.2661C198.735 90.819 199.384 90.9702 199.377 91.4602C199.337 94.2019 198.628 99.4134 194.362 103.776C194.362 103.776 192.011 102.837 190.117 98.5682C189.844 97.9516 190.066 97.2199 190.635 96.8769Z" fill="white"/>
<path d="M295.115 209.981V210.793C295.115 214.833 293.825 218.569 291.633 221.607C288.292 226.248 282.855 229.267 276.714 229.267H35.2541C29.114 229.267 23.6765 226.248 20.3352 221.607C18.1438 218.569 16.8533 214.833 16.8533 210.793V209.981H295.115Z" fill="#18285D"/>
<path d="M291.633 221.607C288.292 226.248 282.855 229.267 276.714 229.267H35.2541C29.114 229.267 23.6765 226.248 20.3352 221.607H291.633Z" fill="#021147"/>
<path d="M252.716 49.666C250.47 49.666 248.643 47.8317 248.643 45.5771C248.643 43.3225 250.47 41.4882 252.716 41.4882C254.962 41.4882 256.789 43.3225 256.789 45.5771C256.789 47.8317 254.962 49.666 252.716 49.666ZM252.716 42.7712C251.175 42.7712 249.921 44.0299 249.921 45.5771C249.921 47.1243 251.175 48.383 252.716 48.383C254.257 48.383 255.511 47.1243 255.511 45.5771C255.511 44.0299 254.257 42.7712 252.716 42.7712Z" fill="#707FFF"/>
<path d="M273.414 53.8255C271.168 53.8255 269.341 51.9912 269.341 49.7366C269.341 47.482 271.168 45.6477 273.414 45.6477C275.66 45.6477 277.487 47.482 277.487 49.7366C277.486 51.9912 275.659 53.8255 273.414 53.8255ZM273.414 46.9307C271.873 46.9307 270.619 48.1894 270.619 49.7366C270.619 51.2838 271.873 52.5425 273.414 52.5425C274.955 52.5425 276.209 51.2838 276.209 49.7366C276.208 48.1894 274.955 46.9307 273.414 46.9307Z" fill="#4F60D9"/>
<path d="M283.221 62.1733C282.868 62.1733 282.582 61.8862 282.582 61.5318V58.7037C282.582 58.3494 282.868 58.0623 283.221 58.0623C283.574 58.0623 283.86 58.3494 283.86 58.7037V61.5318C283.86 61.8869 283.574 62.1733 283.221 62.1733Z" fill="#707FFF"/>
<path d="M283.221 67.1228C282.868 67.1228 282.582 66.8357 282.582 66.4814V63.6532C282.582 63.2989 282.868 63.0118 283.221 63.0118C283.574 63.0118 283.86 63.2989 283.86 63.6532V66.4814C283.86 66.8357 283.574 67.1228 283.221 67.1228Z" fill="#707FFF"/>
<path d="M287.175 63.2344H284.644C284.291 63.2344 284.005 62.9472 284.005 62.5929C284.005 62.2385 284.291 61.9514 284.644 61.9514H287.175C287.528 61.9514 287.814 62.2385 287.814 62.5929C287.814 62.9472 287.528 63.2344 287.175 63.2344Z" fill="#707FFF"/>
<path d="M281.798 63.2344H279.267C278.914 63.2344 278.628 62.9472 278.628 62.5929C278.628 62.2385 278.914 61.9514 279.267 61.9514H281.798C282.151 61.9514 282.437 62.2385 282.437 62.5929C282.436 62.9472 282.15 63.2344 281.798 63.2344Z" fill="#707FFF"/>
<path d="M261.47 57.5613C261.117 57.5613 260.831 57.2742 260.831 56.9199V54.0917C260.831 53.7374 261.117 53.4503 261.47 53.4503C261.823 53.4503 262.109 53.7374 262.109 54.0917V56.9199C262.109 57.2742 261.823 57.5613 261.47 57.5613Z" fill="#4F60D9"/>
<path d="M261.47 62.5109C261.117 62.5109 260.831 62.2238 260.831 61.8694V59.0413C260.831 58.687 261.117 58.3998 261.47 58.3998C261.823 58.3998 262.109 58.687 262.109 59.0413V61.8694C262.109 62.2238 261.823 62.5109 261.47 62.5109Z" fill="#4F60D9"/>
<path d="M265.424 58.6217H262.893C262.54 58.6217 262.254 58.3346 262.254 57.9802C262.254 57.6259 262.54 57.3387 262.893 57.3387H265.424C265.777 57.3387 266.063 57.6259 266.063 57.9802C266.063 58.3352 265.777 58.6217 265.424 58.6217Z" fill="#4F60D9"/>
<path d="M260.047 58.6217H257.516C257.163 58.6217 256.877 58.3346 256.877 57.9802C256.877 57.6259 257.163 57.3387 257.516 57.3387H260.047C260.4 57.3387 260.686 57.6259 260.686 57.9802C260.685 58.3352 260.399 58.6217 260.047 58.6217Z" fill="#4F60D9"/>
<path d="M14.4711 140.896C14.4711 143.151 12.644 144.985 10.3984 144.985C8.15283 144.985 6.32581 143.151 6.32581 140.896C6.32581 138.642 8.15283 136.807 10.3984 136.807C12.644 136.808 14.4711 138.642 14.4711 140.896ZM7.60365 140.896C7.60365 142.443 8.85738 143.702 10.3984 143.702C11.9395 143.702 13.1932 142.443 13.1932 140.896C13.1932 139.349 11.9395 138.09 10.3984 138.09C8.85738 138.09 7.60365 139.349 7.60365 140.896Z" fill="#707FFF"/>
<path d="M18.614 120.116C18.614 122.371 16.787 124.205 14.5414 124.205C12.2958 124.205 10.4688 122.371 10.4688 120.116C10.4688 117.862 12.2958 116.027 14.5414 116.027C16.787 116.027 18.614 117.862 18.614 120.116ZM11.7466 120.116C11.7466 121.663 13.0003 122.922 14.5414 122.922C16.0824 122.922 17.3362 121.663 17.3362 120.116C17.3362 118.569 16.0824 117.31 14.5414 117.31C13.0003 117.31 11.7466 118.569 11.7466 120.116Z" fill="#4F60D9"/>
<path d="M26.9287 110.27C26.9287 110.624 26.6427 110.911 26.2898 110.911H23.4729C23.12 110.911 22.834 110.624 22.834 110.27C22.834 109.915 23.12 109.628 23.4729 109.628H26.2898C26.6427 109.629 26.9287 109.916 26.9287 110.27Z" fill="#707FFF"/>
<path d="M31.8586 110.27C31.8586 110.624 31.5727 110.911 31.2197 110.911H28.4028C28.0499 110.911 27.7639 110.624 27.7639 110.27C27.7639 109.915 28.0499 109.628 28.4028 109.628H31.2197C31.5727 109.629 31.8586 109.916 31.8586 110.27Z" fill="#707FFF"/>
<path d="M27.9855 106.3V108.841C27.9855 109.195 27.6995 109.482 27.3466 109.482C26.9936 109.482 26.7076 109.195 26.7076 108.841V106.3C26.7076 105.945 26.9936 105.658 27.3466 105.658C27.6995 105.658 27.9855 105.946 27.9855 106.3Z" fill="#707FFF"/>
<path d="M27.9855 111.699V114.24C27.9855 114.595 27.6995 114.882 27.3466 114.882C26.9936 114.882 26.7076 114.595 26.7076 114.24V111.699C26.7076 111.345 26.9936 111.058 27.3466 111.058C27.6995 111.058 27.9855 111.345 27.9855 111.699Z" fill="#707FFF"/>
<path d="M22.3351 132.108C22.3351 132.462 22.0491 132.749 21.6962 132.749H18.8793C18.5263 132.749 18.2404 132.462 18.2404 132.108C18.2404 131.754 18.5263 131.466 18.8793 131.466H21.6962C22.0491 131.466 22.3351 131.754 22.3351 132.108Z" fill="#4F60D9"/>
<path d="M27.265 132.108C27.265 132.462 26.979 132.749 26.6261 132.749H23.8092C23.4563 132.749 23.1703 132.462 23.1703 132.108C23.1703 131.754 23.4563 131.466 23.8092 131.466H26.6261C26.979 131.466 27.265 131.754 27.265 132.108Z" fill="#4F60D9"/>
<path d="M23.3912 128.137V130.678C23.3912 131.033 23.1053 131.32 22.7523 131.32C22.3994 131.32 22.1134 131.033 22.1134 130.678V128.137C22.1134 127.783 22.3994 127.496 22.7523 127.496C23.1059 127.496 23.3912 127.784 23.3912 128.137Z" fill="#4F60D9"/>
<path d="M23.3912 133.537V136.078C23.3912 136.432 23.1053 136.719 22.7523 136.719C22.3994 136.719 22.1134 136.432 22.1134 136.078V133.537C22.1134 133.182 22.3994 132.895 22.7523 132.895C23.1059 132.895 23.3912 133.182 23.3912 133.537Z" fill="#4F60D9"/>
<path d="M118.145 126.238C118.145 128.492 116.318 130.327 114.073 130.327C111.827 130.327 110 128.492 110 126.238C110 123.983 111.827 122.149 114.073 122.149C116.318 122.15 118.145 123.984 118.145 126.238ZM111.278 126.238C111.278 127.785 112.532 129.044 114.073 129.044C115.614 129.044 116.867 127.785 116.867 126.238C116.867 124.691 115.614 123.432 114.073 123.432C112.532 123.432 111.278 124.691 111.278 126.238Z" fill="#707FFF"/>
<path d="M122.288 105.458C122.288 107.713 120.461 109.547 118.216 109.547C115.97 109.547 114.143 107.713 114.143 105.458C114.143 103.203 115.97 101.369 118.216 101.369C120.461 101.369 122.288 103.203 122.288 105.458ZM115.421 105.458C115.421 107.005 116.675 108.264 118.216 108.264C119.757 108.264 121.01 107.005 121.01 105.458C121.01 103.911 119.757 102.652 118.216 102.652C116.675 102.652 115.421 103.911 115.421 105.458Z" fill="#4F60D9"/>
<path d="M130.603 95.6113C130.603 95.9657 130.317 96.2528 129.964 96.2528H127.147C126.794 96.2528 126.508 95.9657 126.508 95.6113C126.508 95.257 126.794 94.9698 127.147 94.9698H129.964C130.317 94.9705 130.603 95.2576 130.603 95.6113Z" fill="#707FFF"/>
<path d="M135.533 95.6113C135.533 95.9657 135.247 96.2528 134.894 96.2528H132.077C131.724 96.2528 131.438 95.9657 131.438 95.6113C131.438 95.257 131.724 94.9698 132.077 94.9698H134.894C135.247 94.9705 135.533 95.2576 135.533 95.6113Z" fill="#707FFF"/>
<path d="M131.66 91.6415V94.1825C131.66 94.5368 131.374 94.824 131.021 94.824C130.668 94.824 130.382 94.5368 130.382 94.1825V91.6415C130.382 91.2871 130.668 91 131.021 91C131.374 91 131.66 91.2878 131.66 91.6415Z" fill="#707FFF"/>
<path d="M131.66 97.0409V99.5819C131.66 99.9363 131.374 100.223 131.021 100.223C130.668 100.223 130.382 99.9363 130.382 99.5819V97.0409C130.382 96.6865 130.668 96.3994 131.021 96.3994C131.374 96.3994 131.66 96.6865 131.66 97.0409Z" fill="#707FFF"/>
<path d="M126.009 117.45C126.009 117.804 125.723 118.091 125.37 118.091H122.553C122.201 118.091 121.915 117.804 121.915 117.45C121.915 117.095 122.201 116.808 122.553 116.808H125.37C125.723 116.808 126.009 117.095 126.009 117.45Z" fill="#4F60D9"/>
<path d="M130.939 117.45C130.939 117.804 130.653 118.091 130.3 118.091H127.483C127.13 118.091 126.844 117.804 126.844 117.45C126.844 117.095 127.13 116.808 127.483 116.808H130.3C130.653 116.808 130.939 117.095 130.939 117.45Z" fill="#4F60D9"/>
<path d="M127.065 113.479V116.02C127.065 116.374 126.779 116.662 126.427 116.662C126.074 116.662 125.788 116.374 125.788 116.02V113.479C125.788 113.125 126.074 112.838 126.427 112.838C126.78 112.838 127.065 113.125 127.065 113.479Z" fill="#4F60D9"/>
<path d="M127.065 118.879V121.42C127.065 121.774 126.779 122.061 126.427 122.061C126.074 122.061 125.788 121.774 125.788 121.42V118.879C125.788 118.524 126.074 118.237 126.427 118.237C126.78 118.237 127.065 118.524 127.065 118.879Z" fill="#4F60D9"/>
<path d="M112.495 189.186L109.345 195.956L116.006 196.06L118.576 189.899L112.495 189.186Z" fill="#FDA893"/>
<path d="M111.441 195.532C111.441 195.532 110.073 193.687 108.987 193.766C107.9 193.845 99.5182 200.536 96.6464 201.089C93.7745 201.641 94.0411 204.579 95.2429 204.579C98.7044 204.579 117.767 204.44 117.767 204.44C117.767 204.44 118.382 197.751 117.65 195.705C116.918 193.66 113.687 196.016 111.441 195.532Z" fill="#707FFF"/>
<path d="M106.808 200.201C106.909 200.232 107.024 200.222 107.122 200.165C107.315 200.055 107.382 199.809 107.273 199.614C107.237 199.549 106.36 198.02 105.179 197.423C103.608 196.627 102.384 197.518 102.332 197.557C102.154 197.689 102.116 197.943 102.249 198.122C102.381 198.301 102.633 198.338 102.812 198.205C102.844 198.181 103.697 197.58 104.816 198.145C105.778 198.632 106.566 200.001 106.573 200.015C106.627 200.109 106.713 200.172 106.808 200.201Z" fill="white"/>
<path d="M108.008 199.064C108.109 199.094 108.222 199.085 108.322 199.028C108.515 198.918 108.582 198.671 108.473 198.477C108.435 198.412 107.559 196.883 106.378 196.286C104.807 195.489 103.583 196.381 103.531 196.419C103.353 196.552 103.316 196.805 103.448 196.984C103.58 197.163 103.833 197.2 104.011 197.067C104.045 197.044 104.898 196.442 106.015 197.007C106.982 197.496 107.765 198.863 107.772 198.877C107.827 198.971 107.911 199.035 108.008 199.064Z" fill="white"/>
<path d="M105.183 201.124C105.285 201.155 105.399 201.145 105.497 201.089C105.69 200.978 105.758 200.731 105.648 200.537C105.611 200.473 104.735 198.943 103.554 198.346C101.982 197.549 100.759 198.441 100.707 198.479C100.529 198.612 100.491 198.865 100.624 199.044C100.756 199.223 101.008 199.261 101.187 199.128C101.22 199.103 102.073 198.503 103.191 199.068C104.157 199.556 104.941 200.923 104.948 200.937C105.002 201.031 105.088 201.096 105.183 201.124Z" fill="white"/>
<path d="M110.597 191.393L113.549 192.36L115.189 192.458L118.009 192.624C121.735 189.666 131.784 180.764 133.743 175.514C133.743 175.514 143.125 201.143 161.003 201.143C162.163 201.143 162.646 190.681 159.732 187.558C159.732 187.558 143.253 156.724 132.57 159.997C127.786 161.462 122.946 168.454 110.597 191.393Z" fill="#18285D"/>
<path d="M113.549 192.36L115.189 192.458C126.156 184.121 131.236 177.061 133.575 172.539C133.655 172.381 133.787 172.331 133.875 172.333C133.951 172.335 134.007 172.377 134.042 172.466C139.293 184.877 145.596 192.326 149.958 196.391C154.712 200.82 158.19 202.28 158.333 202.341L158.534 201.848L158.735 201.357C158.701 201.342 155.251 199.886 150.626 195.564C146.354 191.574 140.178 184.254 135.015 172.049C134.819 171.58 134.406 171.289 133.915 171.269C133.386 171.248 132.891 171.554 132.634 172.047C130.277 176.608 125.053 183.814 113.549 192.36Z" fill="#021147"/>
<path d="M120.966 190.605C120.497 191.486 119.69 192.73 118.92 193.331C118.92 193.331 112.605 193.038 109.534 191.489L110.911 188.266C110.911 188.266 115.938 190.108 120.966 190.605Z" fill="#3B3E7D"/>
<path d="M160.555 135.133C160.555 135.133 148.317 149.8 143.177 152.21C140.92 153.268 138.692 153.641 137.046 153.7C136.493 153.721 135.056 153.604 134.977 153.602C134.97 153.602 134.964 153.603 134.964 153.603C128.858 152.844 121.68 150.998 112.7 147.327L114.039 143.151C114.039 143.151 119.434 144.302 126.047 144.775C128.485 144.947 134.109 145.206 136.189 145.544C136.704 145.312 137.211 145.06 137.706 144.788C146.831 139.843 152.854 129.774 152.854 129.774C155.742 130.863 159.058 132.897 160.555 135.133Z" fill="#4F60D9"/>
<path d="M114.266 142.819C114.266 142.819 113.016 139.647 111.315 138.743C109.614 137.838 104.772 134.651 103.739 135.605C102.706 136.558 102.919 141.137 107.259 144.964C110.024 147.402 112.81 147.299 112.81 147.299L114.266 142.819Z" fill="#FDA893"/>
<path d="M103.428 138.517L110.574 145.22C110.843 145.474 111.328 145.546 111.659 145.386L116.039 143.259C116.175 143.192 116.264 143.097 116.303 142.989L116.313 142.954L116.528 142.22L115.366 141.778L104.122 137.49L103.513 137.26L103.284 138.036L103.267 138.09C103.264 138.096 103.263 138.102 103.265 138.109C103.238 138.245 103.294 138.393 103.428 138.517Z" fill="#18285D"/>
<path d="M111.877 144.641L116.259 142.513C116.59 142.353 116.64 142.02 116.373 141.768L109.226 135.066C108.958 134.814 108.473 134.741 108.142 134.901L103.761 137.028C103.43 137.189 103.38 137.522 103.648 137.773L110.794 144.476C111.063 144.727 111.548 144.8 111.877 144.641Z" fill="#3B3E7D"/>
<path d="M111.346 143.439L114.741 141.791C115.072 141.631 115.122 141.297 114.854 141.046L109.296 135.833C109.028 135.582 108.542 135.508 108.213 135.669L104.818 137.317C104.488 137.478 104.437 137.811 104.705 138.062L110.264 143.275C110.531 143.526 111.016 143.6 111.346 143.439Z" fill="#58619B"/>
<path d="M111.437 137.139C111.437 137.139 110.418 137.298 110.315 138.177C110.211 139.056 111.158 138.706 111.766 138.513C112.375 138.32 112.924 138.514 113.007 138.613C113.274 138.927 113.228 136.878 111.437 137.139Z" fill="#FDA893"/>
<path d="M106.885 141.91C106.885 141.91 105.288 139.275 104.064 137.835C103.248 136.875 102.831 138.267 103.39 139.237C103.948 140.207 105.05 142.183 106.885 141.91Z" fill="#FDA893"/>
<path d="M169.146 119.94C169.146 119.94 176.859 119.979 180.375 123.17C183.891 126.361 180.535 132.845 176.721 133.676C172.907 134.507 160.998 133.09 159.76 131.04C158.521 128.991 159.306 120.097 169.146 119.94Z" fill="#707FFF"/>
<path d="M181.309 189.43L185.058 165.159L184.245 131.676L175.275 128.631L174.794 128.467L172.781 127.784L171.183 127.242L161.713 128.552L160.171 128.765L159.628 128.84L152.853 129.776C152.789 151.296 154.847 155.944 150.885 173.449C148.893 180.048 156.208 203.432 181.309 189.43Z" fill="#707FFF"/>
<path d="M168.503 133.77C175.288 133.744 176.863 127.74 176.879 127.68C176.912 127.545 176.831 127.408 176.697 127.374C176.564 127.34 176.427 127.422 176.393 127.557C176.334 127.791 174.888 133.243 168.503 133.266C168.467 133.266 168.433 133.266 168.397 133.266C168.263 133.273 168.146 133.378 168.146 133.516C168.145 133.655 168.257 133.768 168.396 133.769C168.431 133.77 168.468 133.77 168.503 133.77Z" fill="#4F60D9"/>
<path d="M162.128 132.829C162.264 132.828 162.376 132.719 162.377 132.581C162.379 132.443 162.269 132.329 162.131 132.326C162.042 132.324 160.069 132.244 159.559 129.567C159.533 129.43 159.403 129.341 159.266 129.367C159.131 129.393 159.041 129.525 159.068 129.661C159.658 132.756 162.099 132.828 162.124 132.828C162.124 132.828 162.126 132.829 162.128 132.829Z" fill="#4F60D9"/>
<path d="M173.084 166.798C173.084 166.798 174.186 175.245 171.942 179.378C171.942 179.378 160.783 180.163 152.669 176.96C152.669 176.96 154.696 171.064 154.727 165.307L173.084 166.798Z" fill="#4F60D9"/>
<path d="M167.124 157.859C167.131 157.859 167.139 157.859 167.146 157.858C167.284 157.846 167.386 157.723 167.373 157.585C166.812 151.323 169.149 135.513 169.172 135.354C169.193 135.217 169.098 135.089 168.962 135.068C168.825 135.047 168.698 135.142 168.677 135.28C168.653 135.439 166.307 151.308 166.874 157.629C166.886 157.76 166.995 157.86 167.124 157.859Z" fill="white"/>
<path d="M158.871 156.632C158.878 156.632 158.886 156.632 158.893 156.631C159.03 156.619 159.132 156.497 159.119 156.358C158.558 150.096 160.974 134.163 160.998 134.004C161.019 133.866 160.925 133.738 160.789 133.718C160.652 133.696 160.525 133.791 160.503 133.928C160.479 134.089 158.054 150.082 158.62 156.404C158.633 156.535 158.743 156.633 158.871 156.632Z" fill="white"/>
<path d="M191.005 197.905C191.005 197.905 188.226 201.688 188.455 203.644C188.684 205.602 191.2 209.29 193.212 209.468C195.223 209.647 190.901 204.728 191.921 204.887C193.155 205.079 201.489 211.944 203.248 211.944C205.006 211.944 201.179 208.754 199.688 207.947C199.688 207.947 203.631 209.718 204.548 210.639C205.466 211.561 206.132 209.585 201.545 206.782C201.545 206.782 205.753 209.181 206.039 209.219C206.975 209.344 204.305 206.201 202.006 205.064C202.006 205.064 205.379 206.713 205.722 206.72C206.196 206.73 205.179 205.622 202.675 204.228C200.423 202.975 196.732 197.22 196.732 197.22L191.005 197.905Z" fill="#FDA893"/>
<path d="M184.246 131.675C184.246 131.675 193.599 149.711 195.728 168.576L196.732 197.22C196.732 197.22 195.771 199.261 191.005 197.905L186.395 169.263L182.862 156.158C182.862 156.158 181.256 140.031 184.246 131.675Z" fill="#707FFF"/>
<path d="M155.52 112.175C156.514 117.818 161.875 121.584 167.495 120.586C173.115 119.589 176.866 114.206 175.873 108.564C174.879 102.921 169.518 99.1556 163.898 100.153C158.278 101.15 154.527 106.532 155.52 112.175Z" fill="#18285D"/>
<path d="M155.365 110.313C155.365 110.313 152.342 110.026 152.228 107.15C152.131 104.702 155.2 105.756 154.625 103.932C154.05 102.108 153.205 100.506 155.53 99.612C157.564 98.8296 157.854 100.272 160.248 97.6796C163.076 94.6172 166.598 99.9206 169.543 99.5763C173.887 99.0678 174.86 101.413 175.626 103.291C176.392 105.168 174.979 106.832 174.979 106.832L155.365 110.313Z" fill="#18285D"/>
<path d="M157.734 114.731C157.734 114.731 155.741 112.86 154.857 114.856C153.973 116.853 156.595 121.822 159.303 120.015L157.734 114.731Z" fill="#FC8664"/>
<path d="M158.376 118.5C158.268 118.519 158.155 118.465 158.105 118.361C157.364 116.815 155.569 116.453 155.551 116.45C155.414 116.424 155.325 116.291 155.351 116.154C155.377 116.017 155.509 115.927 155.644 115.952C155.728 115.968 157.706 116.361 158.56 118.141C158.619 118.267 158.567 118.418 158.442 118.478C158.42 118.49 158.399 118.497 158.376 118.5Z" fill="#FD664D"/>
<path d="M156.537 117.981C156.491 117.989 156.443 117.985 156.396 117.966C156.268 117.912 156.207 117.763 156.261 117.634C156.27 117.613 156.487 117.105 157.059 116.716C157.174 116.637 157.331 116.668 157.409 116.783C157.487 116.899 157.457 117.056 157.341 117.135C156.899 117.435 156.727 117.827 156.726 117.83C156.691 117.913 156.619 117.967 156.537 117.981Z" fill="#FD664D"/>
<path d="M171.162 122.52L172.085 127.761C172.085 127.761 170.346 130.452 168.272 131.007C166.201 131.564 164.48 129.283 164.48 129.283L163.592 124.243L171.162 122.52Z" fill="#FDA893"/>
<path d="M171.162 122.52L171.572 124.846C170.437 126.67 167.997 127.509 164.187 127.618L163.593 124.244L171.162 122.52Z" fill="#FD857D"/>
<path d="M174.295 108.084C174.557 110.138 174.812 112.719 174.784 114.824C174.777 115.349 174.752 115.846 174.705 116.296C174.286 120.353 172.705 127.464 164.527 126.07C160.914 125.456 158.671 121.935 157.289 118.197C156.352 115.657 155.812 113.019 155.513 111.117C155.21 109.176 155.95 107.222 157.459 105.971C161.545 102.58 166.506 102.693 169.875 103.351C172.212 103.806 173.994 105.716 174.295 108.084Z" fill="#FDA893"/>
<path d="M161.721 114.728C161.82 115.288 161.612 115.792 161.258 115.855C160.904 115.917 160.537 115.515 160.438 114.956C160.34 114.397 160.547 113.892 160.901 113.829C161.256 113.766 161.623 114.168 161.721 114.728Z" fill="#18285D"/>
<path d="M169.233 113.395C169.332 113.955 169.124 114.459 168.77 114.522C168.416 114.584 168.049 114.182 167.95 113.623C167.851 113.063 168.059 112.559 168.413 112.496C168.767 112.434 169.134 112.836 169.233 113.395Z" fill="#18285D"/>
<path d="M158.446 112.101C158.446 112.101 160.93 110.568 163.143 111.095L163.14 112.083C163.14 112.083 160.826 111.98 158.79 113.183C158.574 112.766 158.352 112.586 158.446 112.101Z" fill="#18285D"/>
<path d="M170.665 109.933C170.665 109.933 167.808 109.347 165.909 110.604L166.249 111.531C166.249 111.531 168.387 110.637 170.711 111.066C170.77 110.601 170.918 110.357 170.665 109.933Z" fill="#18285D"/>
<path d="M165.977 118.084C166.395 118.009 166.781 117.773 166.841 117.734C166.958 117.66 166.993 117.504 166.919 117.386C166.845 117.268 166.689 117.232 166.572 117.307C166.364 117.438 165.851 117.676 165.593 117.578C165.543 117.559 165.473 117.516 165.43 117.367C165.188 116.514 164.912 113.557 164.909 113.528C164.896 113.389 164.773 113.287 164.636 113.3C164.496 113.312 164.395 113.436 164.408 113.575C164.419 113.698 164.691 116.609 164.947 117.507C165.043 117.845 165.254 117.989 165.414 118.051C165.591 118.118 165.787 118.118 165.977 118.084Z" fill="#FD857D"/>
<path d="M163.126 120.16C163.509 121.148 164.514 122.913 166.784 122.509C169.059 122.106 169.394 120.271 169.404 119.046L163.126 120.16Z" fill="white"/>
<path d="M166.981 123.815C167.622 123.701 168.109 123.278 168.13 123.26C168.235 123.168 168.245 123.008 168.153 122.904C168.061 122.799 167.902 122.788 167.798 122.88C167.795 122.884 167.394 123.229 166.893 123.318C166.435 123.399 165.949 123.212 165.944 123.211C165.815 123.159 165.668 123.222 165.616 123.352C165.565 123.482 165.628 123.629 165.757 123.681C165.783 123.691 166.375 123.923 166.981 123.815Z" fill="#FD857D"/>
<path d="M157.772 116.436C157.404 115.443 156.985 114.15 157 113.447C157.03 112.202 157.897 111.319 157.362 110.219C156.827 109.114 157.828 107.651 158.691 107.285C159.552 106.916 161.731 106.993 163.624 105.641C165.431 104.349 168.979 104.415 169.762 105.586C170.709 107.006 169.815 107.314 171.954 108.651C172.805 109.184 172.237 111.062 172.309 112.205C172.344 112.731 172.38 112.984 172.498 113.534L172.555 113.814L174.764 113.422C174.702 111.641 174.503 109.7 174.297 108.084C173.996 105.716 172.212 103.808 169.875 103.351C166.505 102.693 161.546 102.579 157.458 105.971C155.951 107.222 155.21 109.176 155.514 111.117C155.751 112.624 156.14 114.597 156.759 116.617L157.772 116.436Z" fill="#18285D"/>
<path d="M173.954 114.553C173.844 113.974 173.783 113.386 173.784 112.798C173.784 111.992 173.885 111.243 174.624 110.777C175.218 110.401 175.902 110.274 176.515 110.913C178.028 112.485 177.67 118.274 174.509 117.509L173.954 114.553Z" fill="#FC8664"/>
<path d="M174.792 115.791C174.895 115.751 174.963 115.645 174.952 115.53C174.784 113.822 176.13 112.576 176.143 112.564C176.246 112.47 176.254 112.31 176.161 112.207C176.069 112.103 175.909 112.094 175.806 112.188C175.743 112.246 174.257 113.613 174.45 115.58C174.464 115.719 174.587 115.82 174.726 115.807C174.749 115.804 174.772 115.798 174.792 115.791Z" fill="#FD664D"/>
<path d="M176.095 114.387C176.138 114.369 176.178 114.341 176.207 114.3C176.289 114.187 176.263 114.029 176.151 113.947C176.132 113.933 175.684 113.613 174.993 113.579C174.855 113.572 174.736 113.68 174.73 113.819C174.723 113.958 174.831 114.077 174.969 114.084C175.503 114.11 175.852 114.354 175.856 114.356C175.927 114.408 176.018 114.417 176.095 114.387Z" fill="#FD664D"/>
<path d="M181.936 194.858C181.773 195.599 181.489 196.357 181.055 197.112C179.747 199.38 177.064 201.642 172.084 203.46C161.761 207.225 142.022 205.457 142.022 205.457C142.261 213.188 123.909 239.234 123.909 239.234L123.008 238.649L122.159 238.098L118.621 235.801C118.621 235.801 130.744 192.052 138.986 190.799C168.146 186.369 181.308 189.43 181.308 189.43C181.941 190.891 182.39 192.814 181.936 194.858Z" fill="#3B3E7D"/>
<path d="M181.936 194.858C181.773 195.599 181.489 196.357 181.055 197.112C176.805 200.563 169.241 202.564 158.512 203.075C150.588 203.45 143.375 202.849 141.468 202.667C139.584 215.981 125.885 234.815 123.008 238.65C122.735 239.013 122.561 239.239 122.501 239.317C122.403 239.448 122.253 239.514 122.104 239.514C121.996 239.514 121.887 239.479 121.795 239.407C121.576 239.239 121.537 238.921 121.706 238.701C121.722 238.681 121.883 238.472 122.159 238.098C124.885 234.45 138.97 215.035 140.535 202.058C140.566 201.782 140.814 201.587 141.086 201.616C141.41 201.652 173.33 205.004 181.936 194.858Z" fill="#18285D"/>
<path d="M119.305 235.8L114.99 240.869L120.143 243.967L123.909 239.233L119.305 235.8Z" fill="#FDA893"/>
<path d="M125.194 239.129C124.559 240.618 124.117 241.098 123.112 241.834C123.112 241.834 119.866 240.339 116.531 237.42L118.62 234.587C118.62 234.587 121.089 236.174 125.194 239.129Z" fill="#58619B"/>
<path d="M116.454 241.218C116.454 241.218 116.189 238.933 115.209 238.455C114.228 237.978 103.636 239.558 100.874 238.593C98.1123 237.628 96.8794 240.305 97.9192 240.909C100.916 242.648 117.488 252.107 117.488 252.107C117.488 252.107 121.354 246.624 121.741 244.486C122.13 242.348 118.157 242.765 116.454 241.218Z" fill="#707FFF"/>
<path d="M110.115 242.932C110.188 243.009 110.291 243.058 110.405 243.059C110.627 243.06 110.808 242.88 110.81 242.657C110.811 242.582 110.814 240.818 110.089 239.708C109.126 238.229 107.621 238.386 107.558 238.393C107.337 238.419 107.179 238.619 107.205 238.841C107.23 239.063 107.43 239.222 107.651 239.196C107.692 239.191 108.73 239.099 109.416 240.151C110.007 241.056 110.006 242.637 110.006 242.653C110.005 242.761 110.047 242.859 110.115 242.932Z" fill="white"/>
<path d="M111.72 242.549C111.793 242.627 111.896 242.675 112.01 242.676C112.233 242.677 112.414 242.498 112.415 242.275C112.416 242.2 112.419 240.435 111.695 239.325C110.731 237.846 109.228 238.003 109.164 238.01C108.944 238.035 108.785 238.236 108.811 238.458C108.836 238.679 109.035 238.838 109.257 238.812C109.298 238.809 110.336 238.717 111.022 239.768C111.615 240.676 111.611 242.254 111.611 242.269C111.61 242.378 111.652 242.476 111.72 242.549Z" fill="white"/>
<path d="M108.247 242.914C108.32 242.992 108.423 243.04 108.537 243.041C108.76 243.042 108.941 242.863 108.942 242.64C108.942 242.565 108.946 240.8 108.221 239.69C107.258 238.211 105.754 238.368 105.69 238.375C105.47 238.4 105.311 238.601 105.337 238.823C105.362 239.044 105.562 239.203 105.783 239.177C105.824 239.174 106.863 239.082 107.548 240.133C108.141 241.041 108.138 242.619 108.137 242.634C108.137 242.742 108.179 242.841 108.247 242.914Z" fill="white"/>
<path d="M240.343 221.219C240.343 221.219 239.842 221.704 238.815 221.779C238.504 221.804 238.148 221.79 237.737 221.708C237.301 221.629 236.807 221.476 236.259 221.219C236.259 221.219 236.497 211.219 232.413 204.331C228.33 197.442 222.923 187.928 227.248 183.048C231.573 178.17 238.541 184.951 240.822 196.371C243.108 207.793 240.343 221.219 240.343 221.219Z" fill="#4F60D9"/>
<path d="M238.906 221.779C238.602 221.804 238.253 221.79 237.851 221.707C239.135 203.708 231.168 189.805 231.088 189.664C230.936 189.407 231.017 189.075 231.267 188.919C231.518 188.766 231.843 188.849 231.994 189.107C232.079 189.248 240.215 203.426 238.906 221.779Z" fill="#1D38C8"/>
<path d="M254.191 204.883C244.906 220.253 245.547 223.807 245.547 223.807L244.329 223.585L243.292 223.399L241.813 223.13C240.99 216.312 246.104 187.498 255.22 187.498C264.502 187.498 257.354 199.651 254.191 204.883Z" fill="#4F60D9"/>
<path d="M253.715 196.365C253.626 196.516 245.778 210.664 244.113 223.807L243.066 223.622C244.778 210.267 252.704 195.99 252.788 195.837C252.933 195.58 253.259 195.49 253.513 195.637C253.768 195.783 253.856 196.108 253.715 196.365Z" fill="#1D38C8"/>
<path d="M236.366 222.391L235.27 222.684L234.221 222.967L233.592 223.135C233.631 222.999 233.154 221.826 226.453 212.914C223.686 209.231 216.306 199.325 223.072 197.662C229.277 196.138 236.545 217.259 236.366 222.391Z" fill="#4F60D9"/>
<path d="M235.03 222.851L234.009 223.135C232.129 214.516 224.501 203.938 224.417 203.823C224.245 203.586 224.294 203.248 224.525 203.069C224.756 202.893 225.084 202.94 225.259 203.18C225.595 203.647 233.094 214.035 235.03 222.851Z" fill="#1D38C8"/>
<path d="M249.094 244.714C249.094 246.424 228.332 246.424 228.332 244.714V219.572C228.332 219.311 228.539 219.101 228.795 219.101H248.631C248.886 219.101 249.093 219.311 249.093 219.572L249.094 244.714Z" fill="#3B3E7D"/>
</g>
<defs>
<clipPath id="clip0_3389_35111">
<rect width="315" height="255" fill="white"/>
</clipPath>
</defs>
</svg>
