<svg width="279" height="248" viewBox="0 0 279 248" fill="none" xmlns="http://www.w3.org/2000/svg">
<path d="M137.764 246.878C213.694 246.878 275.247 242.984 275.247 238.179C275.247 233.375 213.694 229.481 137.764 229.481C61.8338 229.481 0.280273 233.375 0.280273 238.179C0.280273 242.984 61.8338 246.878 137.764 246.878Z" fill="#DBE6F7"/>
<path d="M84.6159 27.241C84.6159 27.891 84.3512 28.4832 83.9199 28.9119C83.4937 29.3432 82.9015 29.6085 82.2515 29.6085H31.6438C30.3439 29.6085 29.2788 28.5434 29.2788 27.241C29.2788 26.5911 29.5435 25.9989 29.9754 25.5701C30.401 25.1383 30.9938 24.8736 31.6438 24.8736H34.0355C34.98 22.6782 37.1616 21.144 39.7012 21.144C41.4106 21.144 42.956 21.84 44.0758 22.9622C45.5664 20.4338 48.3161 18.7356 51.4646 18.7356C52.3302 18.7356 53.1628 18.8667 53.9495 19.1041C55.5962 16.0077 58.851 13.9 62.6029 13.9C67.1085 13.9 70.8983 16.9417 72.0422 21.0813C72.8724 20.6662 73.8088 20.4288 74.803 20.4288C77.6129 20.4288 79.9829 22.3048 80.7285 24.8742H82.2522C83.5508 24.8736 84.6159 25.9386 84.6159 27.241Z" fill="#DBE6F7"/>
<path d="M278.78 58.6885C278.78 59.3385 278.515 59.9307 278.084 60.3594C277.657 60.7906 277.065 61.056 276.415 61.056H225.807C224.507 61.056 223.442 59.9909 223.442 58.6885C223.442 58.0386 223.707 57.4464 224.139 57.0176C224.565 56.5864 225.157 56.321 225.807 56.321H228.199C229.144 54.1257 231.325 52.5909 233.865 52.5909C235.574 52.5909 237.12 53.2868 238.239 54.4091C239.73 51.8807 242.48 50.1824 245.628 50.1824C246.494 50.1824 247.326 50.3135 248.113 50.5509C249.76 47.4546 253.015 45.3462 256.766 45.3462C261.272 45.3462 265.062 48.3879 266.206 52.5275C267.036 52.1124 267.972 51.8751 268.967 51.8751C271.777 51.8751 274.146 53.751 274.892 56.3204H276.416C277.715 56.3211 278.78 57.3861 278.78 58.6885Z" fill="#DBE6F7"/>
<path d="M185.833 33.1852C185.833 33.8351 185.568 34.4279 185.136 34.8561C184.71 35.2879 184.118 35.5526 183.468 35.5526H132.86C131.56 35.5526 130.496 34.4876 130.496 33.1852C130.496 32.5352 130.76 31.943 131.192 31.5143C131.618 31.0824 132.211 30.8177 132.861 30.8177H135.253C136.197 28.6224 138.379 27.0876 140.919 27.0876C142.628 27.0876 144.173 27.7835 145.293 28.9057C146.784 26.3773 149.533 24.6791 152.682 24.6791C153.548 24.6791 154.38 24.8102 155.167 25.0476C156.814 21.9512 160.068 19.8429 163.82 19.8429C168.326 19.8429 172.116 22.8852 173.26 27.0242C174.09 26.6091 175.026 26.3717 176.02 26.3717C178.83 26.3717 181.2 28.2477 181.946 30.8171H183.47C184.768 30.8177 185.833 31.8828 185.833 33.1852Z" fill="#DBE6F7"/>
<path d="M23.8221 88.9461C25.8745 95.8453 32.765 95.6303 32.6183 101.231C32.4717 106.831 35.9912 111.083 40.828 110.057C45.6667 109.03 49.1694 108.004 51.3772 113.576C53.5831 119.147 60.6208 121.932 63.4059 117.533C64.1 116.439 64.8494 115.253 65.582 114.088C65.782 113.77 65.9821 113.454 66.1785 113.142C66.2245 113.07 66.2704 112.998 66.3152 112.926C69.2643 108.244 68.2906 102.039 63.9428 98.6166C62.1824 97.2316 60.0771 96.453 57.6892 97.1557C50.2121 99.3542 52.9064 91.8342 48.4517 88.6528C43.321 84.9866 38.9197 89.1362 35.4046 86.0132C30.5143 81.6703 21.7703 82.0469 23.8221 88.9461Z" fill="#BBD4F2"/>
<path d="M32.7426 91.9286L65.582 114.089C65.7821 113.771 65.9822 113.454 66.1785 113.143L33.369 91.0021C33.113 90.8294 32.765 90.8965 32.5929 91.1525C32.4195 91.4079 32.4866 91.7559 32.7426 91.9286Z" fill="#A4C8F2"/>
<path d="M186.278 55.7127C194.01 52.4915 200.738 48.0163 197.005 45.335C193.27 42.6507 181.839 50.5708 176.548 59.9008L173.989 62.6442C177.964 55.9122 179.127 46.1857 175.689 44.339C172.273 42.5034 172.086 49.0478 172.913 55.0541C173.542 59.6256 172.906 62.7629 172.425 64.3213L160.341 77.279C166.604 66.5999 168.424 51.2462 162.984 48.3239C157.563 45.4115 157.267 55.796 158.579 65.3255C159.57 72.5273 158.582 77.4884 157.822 79.9789L155.413 82.5626C155.795 83.0504 156.18 83.5363 156.568 84.0197L170.945 68.6039C172.666 68.1683 175.152 67.8104 178.391 68.0279C184.44 68.4342 190.955 67.7924 188.886 64.5121C187.091 61.6655 179.689 62.6399 173.556 65.8052L178.527 60.4737C180.347 59.0874 182.941 57.1027 186.278 55.7127Z" fill="#DBE6F7"/>
<path d="M32.5088 61.0976C31.7004 67.7694 37.6818 70.1474 35.4734 74.8898C33.2657 79.6309 34.6979 84.5815 39.2222 85.5011C43.7477 86.4207 47.1293 86.8445 46.9478 92.4363C46.7652 98.0281 51.7561 103.03 55.777 100.299C56.7787 99.6195 57.8612 98.8819 58.9219 98.158C59.2114 97.9598 59.5004 97.7634 59.7843 97.5689C59.8508 97.5242 59.9167 97.4795 59.9819 97.4347C64.2483 94.5217 65.7216 88.846 63.2709 84.2981C62.2786 82.4576 60.7649 81.0073 58.4589 80.7214C51.2379 79.8242 56.3419 74.3852 53.7103 70.0045C50.6799 64.9576 45.3677 66.874 43.5184 62.8922C40.9453 57.355 33.3166 54.4259 32.5088 61.0976Z" fill="#DBE6F7"/>
<path d="M39.0387 66.9691L58.9217 98.1587C59.2112 97.9605 59.5002 97.7641 59.7841 97.5696L39.9198 66.4086C39.7651 66.1657 39.442 66.0936 39.199 66.2489C38.9555 66.403 38.884 66.7261 39.0387 66.9691Z" fill="#BBD4F2"/>
<path d="M192.771 195.915C190.668 202.982 183.61 202.762 183.761 208.5C183.911 214.236 180.306 218.592 175.351 217.54C170.395 216.488 166.806 215.437 164.545 221.144C162.285 226.85 155.077 229.703 152.224 225.197C151.512 224.076 150.745 222.861 149.994 221.669C149.789 221.344 149.585 221.019 149.383 220.7C149.336 220.626 149.289 220.552 149.243 220.479C146.223 215.683 147.22 209.327 151.674 205.822C153.477 204.403 155.633 203.605 158.079 204.325C165.738 206.578 162.978 198.874 167.541 195.615C172.796 191.86 177.304 196.111 180.905 192.911C185.915 188.462 194.873 188.847 192.771 195.915Z" fill="#BBD4F2"/>
<path d="M183.633 198.969L149.995 221.669C149.79 221.343 149.585 221.019 149.384 220.699L182.991 198.021C183.254 197.844 183.61 197.913 183.787 198.175C183.964 198.436 183.896 198.793 183.633 198.969Z" fill="#A4C8F2"/>
<path d="M180.57 169.547C181.398 176.381 175.271 178.816 177.533 183.674C179.795 188.531 178.327 193.601 173.693 194.543C169.058 195.486 165.593 195.92 165.779 201.648C165.966 207.376 160.854 212.499 156.735 209.701C155.709 209.006 154.6 208.251 153.514 207.509C153.217 207.306 152.921 207.104 152.63 206.905C152.562 206.859 152.495 206.814 152.428 206.768C148.057 203.784 146.548 197.97 149.058 193.312C150.075 191.427 151.625 189.941 153.987 189.648C161.384 188.729 156.155 183.159 158.851 178.671C161.956 173.501 167.397 175.464 169.291 171.386C171.928 165.713 179.742 162.713 180.57 169.547Z" fill="#DBE6F7"/>
<path d="M173.881 175.561L153.514 207.509C153.218 207.307 152.922 207.105 152.631 206.906L172.979 174.987C173.137 174.738 173.468 174.664 173.717 174.823C173.966 174.981 174.04 175.312 173.881 175.561Z" fill="#BBD4F2"/>
<path d="M274.025 150.568C275.898 150.568 277.422 152.092 277.422 153.965C277.422 155.838 275.898 157.361 274.025 157.361C272.152 157.361 270.629 155.838 270.629 153.965C270.629 152.092 272.152 150.568 274.025 150.568ZM274.025 151.633C272.74 151.633 271.694 152.679 271.694 153.964C271.694 155.249 272.74 156.295 274.025 156.295C275.311 156.295 276.356 155.249 276.356 153.964C276.357 152.679 275.311 151.633 274.025 151.633Z" fill="#4F60D9"/>
<path d="M270.57 133.305C272.443 133.305 273.967 134.829 273.967 136.702C273.967 138.575 272.443 140.098 270.57 140.098C268.697 140.098 267.174 138.575 267.174 136.702C267.173 134.829 268.697 133.305 270.57 133.305ZM270.57 134.371C269.285 134.371 268.24 135.417 268.24 136.702C268.24 137.987 269.285 139.032 270.57 139.032C271.856 139.032 272.901 137.987 272.901 136.702C272.901 135.417 271.855 134.371 270.57 134.371Z" fill="#707FFF"/>
<path d="M260.239 128.522C260.239 128.816 260.477 129.055 260.771 129.055H263.12C263.415 129.055 263.653 128.816 263.653 128.522C263.653 128.229 263.414 127.99 263.12 127.99H260.771C260.477 127.989 260.239 128.228 260.239 128.522Z" fill="#1D38C8"/>
<path d="M256.127 128.522C256.127 128.816 256.366 129.055 256.659 129.055H259.009C259.303 129.055 259.541 128.816 259.541 128.522C259.541 128.229 259.303 127.99 259.009 127.99H256.659C256.366 127.989 256.127 128.228 256.127 128.522Z" fill="#1D38C8"/>
<path d="M259.357 125.224V127.335C259.357 127.63 259.596 127.868 259.891 127.868C260.185 127.868 260.423 127.63 260.423 127.335V125.224C260.423 124.93 260.184 124.692 259.891 124.692C259.596 124.692 259.357 124.93 259.357 125.224Z" fill="#1D38C8"/>
<path d="M259.357 129.71V131.821C259.357 132.115 259.596 132.353 259.891 132.353C260.185 132.353 260.423 132.115 260.423 131.821V129.71C260.423 129.415 260.184 129.177 259.891 129.177C259.596 129.177 259.357 129.415 259.357 129.71Z" fill="#1D38C8"/>
<path d="M264.07 146.664C264.07 146.958 264.308 147.196 264.602 147.196H266.952C267.246 147.196 267.484 146.958 267.484 146.664C267.484 146.369 267.246 146.131 266.952 146.131H264.602C264.308 146.131 264.07 146.369 264.07 146.664Z" fill="#707FFF"/>
<path d="M259.958 146.664C259.958 146.958 260.197 147.196 260.491 147.196H262.841C263.135 147.196 263.374 146.958 263.374 146.664C263.374 146.369 263.135 146.131 262.841 146.131H260.491C260.197 146.131 259.958 146.369 259.958 146.664Z" fill="#707FFF"/>
<path d="M263.189 143.365V145.476C263.189 145.77 263.427 146.009 263.721 146.009C264.016 146.009 264.254 145.77 264.254 145.476V143.365C264.254 143.071 264.015 142.833 263.721 142.833C263.427 142.833 263.189 143.071 263.189 143.365Z" fill="#707FFF"/>
<path d="M263.189 147.85V149.961C263.189 150.255 263.427 150.494 263.721 150.494C264.016 150.494 264.254 150.255 264.254 149.961V147.85C264.254 147.557 264.015 147.318 263.721 147.318C263.427 147.318 263.189 147.557 263.189 147.85Z" fill="#707FFF"/>
<path d="M16.54 68.3833C16.54 70.2562 15.0164 71.7798 13.1435 71.7798C11.2707 71.7798 9.74707 70.2562 9.74707 68.3833C9.74707 66.5105 11.2707 64.9869 13.1435 64.9869C15.0164 64.9869 16.54 66.5105 16.54 68.3833ZM10.8127 68.3833C10.8127 69.6684 11.8585 70.7141 13.1435 70.7141C14.4292 70.7141 15.4743 69.6684 15.4743 68.3833C15.4743 67.0983 14.4286 66.0525 13.1435 66.0525C11.8585 66.0525 10.8127 67.0977 10.8127 68.3833Z" fill="#4F60D9"/>
<path d="M19.9956 51.1208C19.9956 52.9936 18.4719 54.5172 16.5991 54.5172C14.7263 54.5172 13.2026 52.9936 13.2026 51.1208C13.2026 49.2479 14.7263 47.7243 16.5991 47.7243C18.4719 47.7243 19.9956 49.2479 19.9956 51.1208ZM14.2683 51.1208C14.2683 52.4058 15.3141 53.4516 16.5991 53.4516C17.8847 53.4516 18.9299 52.4058 18.9299 51.1208C18.9299 49.8358 17.8841 48.79 16.5991 48.79C15.3141 48.7893 14.2683 49.8351 14.2683 51.1208Z" fill="#1D38C8"/>
<path d="M26.9306 42.9409C26.9306 43.2349 26.692 43.4735 26.3981 43.4735H24.0486C23.7547 43.4735 23.5161 43.2349 23.5161 42.9409C23.5161 42.6464 23.7547 42.4084 24.0486 42.4084H26.3981C26.692 42.4084 26.9306 42.647 26.9306 42.9409Z" fill="#4F60D9"/>
<path d="M31.0424 42.9409C31.0424 43.2349 30.8038 43.4735 30.5099 43.4735H28.1605C27.8659 43.4735 27.6279 43.2349 27.6279 42.9409C27.6279 42.6464 27.8665 42.4084 28.1605 42.4084H30.5099C30.8038 42.4084 31.0424 42.647 31.0424 42.9409Z" fill="#4F60D9"/>
<path d="M27.8116 39.6432V41.7541C27.8116 42.0486 27.573 42.2872 27.2791 42.2872C26.9846 42.2872 26.7466 42.0486 26.7466 41.7541V39.6432C26.7466 39.3493 26.9852 39.1107 27.2791 39.1107C27.573 39.1101 27.8116 39.3487 27.8116 39.6432Z" fill="#4F60D9"/>
<path d="M27.8116 44.1284V46.2392C27.8116 46.5331 27.573 46.7717 27.2791 46.7717C26.9846 46.7717 26.7466 46.5331 26.7466 46.2392V44.1284C26.7466 43.8338 26.9852 43.5959 27.2791 43.5959C27.573 43.5959 27.8116 43.8338 27.8116 44.1284Z" fill="#4F60D9"/>
<path d="M23.0991 61.0821C23.0991 61.376 22.8604 61.6146 22.5665 61.6146H20.2171C19.9226 61.6146 19.6846 61.376 19.6846 61.0821C19.6846 60.7875 19.9232 60.5496 20.2171 60.5496H22.5665C22.8604 60.5489 23.0991 60.7875 23.0991 61.0821Z" fill="#707FFF"/>
<path d="M27.2107 61.0821C27.2107 61.376 26.972 61.6146 26.6775 61.6146H24.3281C24.0335 61.6146 23.7949 61.376 23.7949 61.0821C23.7949 60.7875 24.0335 60.5496 24.3281 60.5496H26.6775C26.972 60.5489 27.2107 60.7875 27.2107 61.0821Z" fill="#707FFF"/>
<path d="M23.9801 57.7839V59.8947C23.9801 60.1886 23.7415 60.4272 23.4476 60.4272C23.153 60.4272 22.915 60.1886 22.915 59.8947V57.7839C22.915 57.4899 23.1537 57.2513 23.4476 57.2513C23.7415 57.2513 23.9801 57.4899 23.9801 57.7839Z" fill="#707FFF"/>
<path d="M23.9801 62.2696V64.3804C23.9801 64.6743 23.7415 64.9129 23.4476 64.9129C23.153 64.9129 22.915 64.6743 22.915 64.3804V62.2696C22.915 61.9757 23.1537 61.7371 23.4476 61.7371C23.7415 61.7364 23.9801 61.9751 23.9801 62.2696Z" fill="#707FFF"/>
<path d="M224.434 69.4633V78.0365C224.434 79.1699 225.353 80.0889 226.486 80.0889H242.053L246.752 81.7754C247.235 81.9487 247.697 81.474 247.512 80.9968L245.734 76.406V69.4633C245.734 68.3299 244.814 67.4109 243.68 67.4109H226.486C225.353 67.4109 224.434 68.3299 224.434 69.4633Z" fill="#4F60D9"/>
<g opacity="0.5">
<path d="M237.957 73.9938C237.957 74.814 238.622 75.4789 239.442 75.4789C240.262 75.4789 240.927 74.814 240.927 73.9938C240.927 73.1736 240.262 72.5087 239.442 72.5087C238.622 72.5093 237.957 73.1736 237.957 73.9938Z" fill="#707FFF"/>
<path d="M233.256 73.9938C233.256 74.814 233.921 75.4789 234.741 75.4789C235.561 75.4789 236.226 74.814 236.226 73.9938C236.226 73.1736 235.561 72.5087 234.741 72.5087C233.921 72.5093 233.256 73.1736 233.256 73.9938Z" fill="#707FFF"/>
<path d="M228.556 73.9938C228.556 74.814 229.221 75.4789 230.041 75.4789C230.861 75.4789 231.526 74.814 231.526 73.9938C231.526 73.1736 230.861 72.5087 230.041 72.5087C229.221 72.5087 228.556 73.1736 228.556 73.9938Z" fill="#707FFF"/>
</g>
<path d="M56.7778 68.0054V228.269C56.7778 233.293 60.8491 237.364 65.873 237.364H145.681C148.205 237.364 150.486 236.337 152.136 234.678C153.767 233.033 154.776 230.769 154.776 228.269V68.0054C154.776 62.9815 150.705 58.9102 145.681 58.9102H65.873C64.3879 58.9102 62.9861 59.2657 61.7476 59.8976C58.7967 61.4007 56.7778 64.4666 56.7778 68.0054Z" fill="#3B3E7D"/>
<path d="M60.166 68.0054V228.269C60.166 233.293 64.2373 237.364 69.2612 237.364H149.069C151.593 237.364 153.875 236.337 155.523 234.678C157.155 233.033 158.164 230.769 158.164 228.269V68.0054C158.164 62.9815 154.093 58.9102 149.069 58.9102H69.2612C67.7761 58.9102 66.3742 59.2657 65.1358 59.8976C62.1849 61.4007 60.166 64.4666 60.166 68.0054Z" fill="#18285D"/>
<path d="M58.4417 98.3257H57.4089C56.1102 98.3257 55.0576 97.2731 55.0576 95.9744V86.2032C55.0576 84.9045 56.1102 83.8519 57.4089 83.8519H58.4417V98.3257Z" fill="#18285D"/>
<path d="M58.4417 117.255H57.4089C56.1102 117.255 55.0576 116.202 55.0576 114.903V105.132C55.0576 103.834 56.1102 102.781 57.4089 102.781H58.4417V117.255Z" fill="#18285D"/>
<path d="M158.164 98.3257H158.973C159.991 98.3257 160.815 97.5005 160.815 96.4833V85.6943C160.815 84.6771 159.991 83.8519 158.973 83.8519H158.164V98.3257Z" fill="#18285D"/>
<path d="M153.625 67.4543V228.818C153.625 229.374 153.512 229.903 153.307 230.385C152.695 231.822 151.275 232.824 149.619 232.824H68.7106C66.5004 232.824 64.7046 231.034 64.7046 228.817V67.4543C64.7046 67.2306 64.7214 67.01 64.7586 66.7956C64.9842 65.4329 65.902 64.3007 67.1367 63.7664C67.3945 63.6576 67.663 63.5737 67.9432 63.5209C68.1905 63.4712 68.4484 63.4464 68.7106 63.4464H149.619C151.831 63.4464 153.625 65.2421 153.625 67.4543Z" fill="white"/>
<path d="M153.625 67.4543V75.7279H64.7046V67.4543C64.7046 67.2306 64.7214 67.01 64.7586 66.7956C64.9842 65.4329 65.902 64.3007 67.1367 63.7664C67.3945 63.6576 67.663 63.5737 67.9432 63.5209C68.1905 63.4712 68.4484 63.4464 68.7106 63.4464H149.619C151.831 63.4464 153.625 65.2421 153.625 67.4543Z" fill="#DBE6F7"/>
<path d="M139.586 63.442L135.46 69.7198C134.31 71.4709 132.355 72.526 130.259 72.526H90.3842C88.2883 72.526 86.3334 71.4715 85.1826 69.7198L81.0566 63.442C81.0566 62.7914 81.5885 62.2583 82.241 62.2583H138.403C139.053 62.2583 139.586 62.792 139.586 63.442Z" fill="#18285D"/>
<path opacity="0.3" d="M124.468 67.9806H89.8504C89.2806 67.9806 88.814 67.5139 88.814 66.9441V66.4924C88.814 65.9226 89.2806 65.4559 89.8504 65.4559H124.468C125.038 65.4559 125.505 65.9226 125.505 66.4924V66.9441C125.505 67.5145 125.039 67.9806 124.468 67.9806Z" fill="#DBE6F7"/>
<path opacity="0.3" d="M132.202 66.6346C132.202 67.471 131.525 68.1496 130.688 68.1496C129.851 68.1496 129.173 67.4716 129.173 66.6346C129.173 65.7983 129.851 65.1197 130.688 65.1197C131.525 65.1197 132.202 65.7976 132.202 66.6346Z" fill="#DBE6F7"/>
<path d="M72.3052 175.115C72.3052 175.855 72.9042 176.454 73.6436 176.454H105.633C106.372 176.454 106.971 175.855 106.971 175.115C106.971 174.377 106.372 173.777 105.633 173.777H73.6436C72.9042 173.778 72.3052 174.377 72.3052 175.115Z" fill="#DBE6F7"/>
<path d="M112.88 175.115C112.88 175.855 113.479 176.454 114.219 176.454H146.209C146.948 176.454 147.547 175.855 147.547 175.115C147.547 174.376 146.948 173.777 146.209 173.777H114.219C113.479 173.777 112.88 174.376 112.88 175.115Z" fill="#DBE6F7"/>
<path d="M72.3052 182.577C72.3052 183.316 72.9042 183.915 73.6436 183.915H105.633C106.372 183.915 106.971 183.316 106.971 182.577C106.971 181.838 106.372 181.238 105.633 181.238H73.6436C72.9042 181.239 72.3052 181.838 72.3052 182.577Z" fill="#DBE6F7"/>
<path d="M112.88 182.577C112.88 183.316 113.479 183.915 114.219 183.915H146.209C146.948 183.915 147.547 183.316 147.547 182.577C147.547 181.838 146.948 181.238 146.209 181.238H114.219C113.479 181.239 112.88 181.838 112.88 182.577Z" fill="#DBE6F7"/>
<path d="M72.3052 190.038C72.3052 190.777 72.9042 191.377 73.6436 191.377H105.633C106.372 191.377 106.971 190.778 106.971 190.038C106.971 189.3 106.372 188.7 105.633 188.7H73.6436C72.9042 188.7 72.3052 189.3 72.3052 190.038Z" fill="#DBE6F7"/>
<path d="M112.88 190.038C112.88 190.777 113.479 191.377 114.219 191.377H146.209C146.948 191.377 147.547 190.778 147.547 190.038C147.547 189.3 146.948 188.7 146.209 188.7H114.219C113.479 188.7 112.88 189.3 112.88 190.038Z" fill="#DBE6F7"/>
<path d="M72.3052 197.5C72.3052 198.239 72.9042 198.838 73.6436 198.838H105.633C106.372 198.838 106.971 198.239 106.971 197.5C106.971 196.761 106.372 196.162 105.633 196.162H73.6436C72.9042 196.162 72.3052 196.761 72.3052 197.5Z" fill="#DBE6F7"/>
<path d="M112.88 197.5C112.88 198.239 113.479 198.838 114.219 198.838H146.209C146.948 198.838 147.547 198.239 147.547 197.5C147.547 196.761 146.948 196.162 146.209 196.162H114.219C113.479 196.162 112.88 196.761 112.88 197.5Z" fill="#DBE6F7"/>
<path d="M92.7714 214.898H74.5904C73.3346 214.898 72.3174 213.88 72.3174 212.625V210.402C72.3174 209.146 73.3352 208.129 74.5904 208.129H92.7708C94.0266 208.129 95.0444 209.146 95.0444 210.402V212.625C95.0444 213.88 94.0266 214.898 92.7714 214.898Z" fill="#DBE6F7"/>
<path d="M119.225 214.898H101.044C99.7886 214.898 98.7708 213.88 98.7708 212.625V210.402C98.7708 209.146 99.7886 208.129 101.044 208.129H119.225C120.481 208.129 121.498 209.146 121.498 210.402V212.625C121.498 213.88 120.481 214.898 119.225 214.898Z" fill="#DBE6F7"/>
<path d="M145.272 214.898H127.091C125.836 214.898 124.818 213.88 124.818 212.625V210.402C124.818 209.146 125.836 208.129 127.091 208.129H145.272C146.528 208.129 147.545 209.146 147.545 210.402V212.625C147.545 213.88 146.528 214.898 145.272 214.898Z" fill="#DBE6F7"/>
<path d="M153.625 99.7847V160.718H77.0898V99.7847H80.6093L80.577 99.7505L80.6156 99.7847H153.625Z" fill="#DBE6F7"/>
<path d="M169.569 95.0765H81.3569V156.01H169.569V95.0765Z" fill="#1D38C8"/>
<path d="M173.101 95.0765H84.8892V156.01H173.101V95.0765Z" fill="#4F60D9"/>
<path d="M84.8442 95.0417L125.689 137.558C127.481 139.423 130.464 139.423 132.256 137.558L173.101 95.0417L132 131.623C130.274 133.158 127.672 133.158 125.946 131.623L84.8442 95.0417Z" fill="#1D38C8"/>
<path d="M120.497 126.611L87.4443 156.01H84.8892V154.457L118.597 124.476L120.497 126.611Z" fill="#1D38C8"/>
<path d="M173.101 154.663V156.01H170.315L137.261 126.611L139.162 124.476L173.101 154.663Z" fill="#1D38C8"/>
<path d="M84.8867 95.0758L126.086 131.717C127.743 133.191 130.243 133.191 131.9 131.717L173.099 95.0758H84.8867Z" fill="#707FFF"/>
<g opacity="0.5">
<path d="M127.926 100.781H97.3935C96.3775 100.781 95.5542 99.9575 95.5542 98.9415C95.5542 97.9255 96.3775 97.1022 97.3935 97.1022H127.926C128.942 97.1022 129.766 97.9255 129.766 98.9415C129.766 99.9575 128.942 100.781 127.926 100.781Z" fill="#707FFF"/>
</g>
<g opacity="0.5">
<path d="M137.27 100.781H134.18C133.164 100.781 132.341 99.9575 132.341 98.9415C132.341 97.9255 133.164 97.1022 134.18 97.1022H137.27C138.286 97.1022 139.11 97.9255 139.11 98.9415C139.11 99.9575 138.286 100.781 137.27 100.781Z" fill="#707FFF"/>
</g>
<path d="M159.26 100.209H149.953C147.486 100.209 145.486 98.2089 145.486 95.742V86.435C145.486 83.9687 147.486 81.9691 149.952 81.9691H159.26C161.727 81.9691 163.726 83.9687 163.726 86.435V95.742C163.726 98.2095 161.726 100.209 159.26 100.209Z" fill="#1D38C8"/>
<path d="M160.872 100.209H151.565C149.098 100.209 147.099 98.2089 147.099 95.742V86.435C147.099 83.9687 149.098 81.9691 151.565 81.9691H160.872C163.339 81.9691 165.338 83.9687 165.338 86.435V95.742C165.338 98.2095 163.339 100.209 160.872 100.209Z" fill="#4F60D9"/>
<path d="M154.886 91.8725L154.22 85.4762H158.218L157.551 91.8725H154.886ZM156.219 95.9886C155.646 95.9886 155.177 95.8159 154.812 95.4704C154.447 95.1151 154.264 94.6956 154.264 94.2119C154.264 93.7183 154.447 93.3038 154.812 92.9682C155.177 92.6326 155.646 92.4647 156.219 92.4647C156.801 92.4647 157.27 92.6326 157.625 92.9682C157.991 93.3038 158.173 93.7183 158.173 94.2119C158.173 94.6956 157.991 95.1151 157.625 95.4704C157.27 95.8159 156.801 95.9886 156.219 95.9886Z" fill="white"/>
<path d="M190.312 227.035L189.964 233.305L195.051 233.417L195.673 226.829L190.312 227.035Z" fill="#FDA893"/>
<path d="M191.982 232.424C191.982 232.424 194.601 231.831 195.318 231.872C196.034 231.913 200.633 237.465 202.238 237.843C205.149 238.528 204.979 243.107 203.186 243.267C197.999 243.728 189.253 241.213 189.253 241.213C189.253 241.213 188.662 235.307 189.085 233.476C189.508 231.647 190.52 232.912 191.982 232.424Z" fill="#707FFF"/>
<path d="M196.066 237.602C195.973 237.619 195.874 237.599 195.791 237.539C195.632 237.423 195.597 237.199 195.713 237.04C195.751 236.986 196.678 235.727 197.78 235.318C199.247 234.772 200.242 235.678 200.283 235.717C200.428 235.851 200.435 236.078 200.301 236.223C200.166 236.367 199.94 236.375 199.795 236.24C199.768 236.216 199.073 235.602 198.029 235.988C197.131 236.321 196.3 237.449 196.291 237.461C196.235 237.538 196.153 237.586 196.066 237.602Z" fill="#FEFDFF"/>
<path d="M195.118 236.482C195.026 236.499 194.926 236.479 194.844 236.42C194.684 236.303 194.649 236.08 194.765 235.92C194.804 235.867 195.73 234.607 196.833 234.198C198.3 233.653 199.294 234.558 199.336 234.598C199.48 234.732 199.488 234.959 199.353 235.103C199.219 235.248 198.992 235.256 198.847 235.12C198.82 235.096 198.125 234.482 197.081 234.869C196.179 235.204 195.352 236.33 195.344 236.341C195.287 236.418 195.205 236.466 195.118 236.482Z" fill="#FEFDFF"/>
<path d="M197.411 238.575C197.319 238.592 197.219 238.573 197.137 238.512C196.977 238.396 196.942 238.172 197.058 238.012C197.097 237.959 198.023 236.699 199.126 236.29C200.593 235.744 201.587 236.651 201.629 236.689C201.773 236.824 201.781 237.05 201.646 237.195C201.512 237.34 201.285 237.348 201.14 237.212C201.113 237.188 200.418 236.574 199.374 236.961C198.472 237.296 197.645 238.422 197.637 238.433C197.58 238.511 197.499 238.56 197.411 238.575Z" fill="#FEFDFF"/>
<path d="M209.02 150.626C209.02 150.626 208.914 152.098 208.722 154.54C208.672 155.186 208.616 155.901 208.554 156.678C207.895 164.874 206.621 179.694 205.229 190.207C203.278 204.947 197.133 229.168 197.133 229.168L190.789 228.951L190.161 228.926L188.657 228.876C188.657 228.876 189.714 213.553 191.062 200.249C191.951 191.475 192.479 170.715 192.733 157.604C192.864 150.843 192.926 146.114 192.926 146.114L209.02 150.626Z" fill="#3B3E7D"/>
<path d="M209.02 150.626C209.02 150.626 208.914 152.098 208.722 154.54C208.672 155.186 208.616 155.901 208.554 156.678C205.627 157.225 197.58 157.604 192.733 157.604C192.864 150.843 192.926 146.114 192.926 146.114L209.02 150.626Z" fill="#18285D"/>
<path d="M196.344 154.433C196.338 154.937 195.754 202.702 190.789 228.949L190.162 228.925C195.133 202.758 195.717 154.924 195.723 154.427L196.344 154.433Z" fill="#18285D"/>
<path d="M230.1 228.239L229.892 233.896L224.721 233.622L224.604 227.615L230.1 228.239Z" fill="#FDA893"/>
<path d="M228.573 233.636C228.573 233.636 229.7 232.168 230.576 232.245C231.453 232.321 238.142 237.803 240.454 238.281C242.767 238.76 242.291 240.461 241.853 241.327C241.415 242.193 223.359 240.725 223.359 240.725C223.359 240.725 222.942 235.338 223.557 233.701C224.172 232.064 226.754 233.999 228.573 233.636Z" fill="#707FFF"/>
<path d="M232.259 237.447C232.176 237.47 232.085 237.461 232.006 237.414C231.851 237.322 231.8 237.124 231.891 236.969C231.921 236.917 232.647 235.698 233.608 235.232C234.886 234.61 235.864 235.342 235.905 235.373C236.047 235.481 236.074 235.686 235.965 235.828C235.856 235.97 235.652 235.998 235.51 235.888C235.483 235.868 234.802 235.375 233.891 235.816C233.109 236.196 232.457 237.288 232.45 237.299C232.406 237.374 232.337 237.424 232.259 237.447Z" fill="#FEFDFF"/>
<path d="M231.304 236.518C231.222 236.541 231.13 236.532 231.051 236.485C230.896 236.394 230.844 236.195 230.936 236.04C230.966 235.989 231.692 234.769 232.652 234.303C233.931 233.681 234.909 234.412 234.95 234.444C235.092 234.553 235.119 234.757 235.01 234.9C234.901 235.042 234.697 235.069 234.554 234.96C234.528 234.94 233.846 234.446 232.936 234.888C232.15 235.269 231.502 236.36 231.495 236.371C231.451 236.445 231.382 236.495 231.304 236.518Z" fill="#FEFDFF"/>
<path d="M233.56 238.209C233.478 238.232 233.386 238.223 233.307 238.176C233.152 238.085 233.1 237.886 233.192 237.731C233.222 237.68 233.949 236.46 234.909 235.994C236.188 235.372 237.165 236.103 237.206 236.135C237.349 236.244 237.375 236.448 237.267 236.59C237.158 236.733 236.954 236.76 236.811 236.651C236.784 236.631 236.102 236.138 235.193 236.579C234.407 236.96 233.758 238.051 233.752 238.062C233.707 238.136 233.638 238.187 233.56 238.209Z" fill="#FEFDFF"/>
<path d="M231.042 229.715L225.786 229.324L225.159 229.281L223.882 229.185C223.882 229.185 220.654 198.454 219.649 190.268C218.776 183.156 214.7 167.178 212.053 157.236C211.303 154.414 210.667 152.078 210.249 150.568C209.929 149.382 209.74 148.707 209.74 148.707L227.312 147.005C227.312 147.005 227.361 147.391 227.442 148.086C227.613 149.508 227.942 152.232 228.339 155.656C229.436 164.975 231.105 179.478 231.752 186.861C233.411 205.872 231.042 229.715 231.042 229.715Z" fill="#3B3E7D"/>
<path d="M228.339 155.656L212.054 157.236C211.304 154.413 210.668 152.078 210.249 150.568L227.443 148.087C227.614 149.508 227.942 152.232 228.339 155.656Z" fill="#18285D"/>
<path d="M225.785 229.323L225.158 229.28C224.853 219.777 223.921 196.043 222.017 185.981C219.624 173.298 214.121 154.83 214.065 154.644L214.663 154.466C214.72 154.653 220.232 173.153 222.628 185.868C224.544 195.993 225.485 219.84 225.785 229.323Z" fill="#18285D"/>
<path d="M228.185 103.685C228.459 106.081 228.748 108.378 229.003 110.304C229.414 113.41 229.731 115.544 229.731 115.544L232.249 123.656C233.111 126.431 236.25 127.773 238.852 126.482C238.897 126.461 238.943 126.438 238.988 126.415C243.482 124.111 240.679 115.242 240.679 115.242L239.814 115.202C239.432 114.234 238.403 111.764 237.095 108.662C236.937 108.281 236.771 107.889 236.605 107.492C236.327 106.832 236.039 106.151 235.746 105.454C235.329 104.467 234.898 103.449 234.463 102.424C231.259 94.8498 227.847 86.834 227.847 86.834C226.627 87.4603 227.317 96.0602 228.185 103.685Z" fill="#FDA893"/>
<path d="M228.185 103.685C228.459 106.081 228.748 108.378 229.003 110.304C232.337 109.182 234.521 107.021 235.746 105.454C235.329 104.467 234.898 103.449 234.463 102.424L228.185 103.685Z" fill="#FD857D"/>
<path d="M235.208 118.287C235.227 118.289 235.244 118.289 235.263 118.288C235.438 118.284 235.589 118.153 235.611 117.974C236.142 113.711 236.712 110.555 237.097 108.662C236.938 108.282 236.772 107.889 236.606 107.492C236.242 109.162 235.539 112.717 234.895 117.885C234.871 118.081 235.01 118.261 235.208 118.287Z" fill="#FD857D"/>
<path d="M238.111 102.094C238.111 102.094 237.388 102.998 236.11 104.002C234.564 105.224 231.7 106.751 228.836 106.849C228.23 96.671 227.645 86.9265 226.84 84.4186C228.201 86.015 235.103 94.874 238.111 102.094Z" fill="#707FFF"/>
<path d="M235.867 118.473C235.867 118.473 236.168 108.258 238.273 106.02C240.379 103.781 242.339 102.89 244.381 102.898C246.423 102.907 248.35 103.098 248.252 103.941C248.252 103.941 252.916 103.082 255.048 104.229C257.18 105.377 248.923 106.706 246.464 106.85C244.005 106.993 242.75 108.41 242.697 109.88C242.645 111.351 241.537 121.112 241.537 121.112L235.867 118.473Z" fill="#FDA893"/>
<path d="M230.533 150.759C216.8 154.612 202.974 154.953 189.037 151.815C188.894 147.863 188.614 134.585 188.546 120.883C188.546 120.162 188.54 119.435 188.54 118.708V117.664C188.534 117.304 188.534 116.937 188.534 116.577C188.534 116.21 188.534 115.85 188.527 115.49C188.534 115.129 188.527 114.769 188.534 114.402C188.527 114.054 188.534 113.706 188.527 113.358C188.527 112.998 188.527 112.631 188.534 112.277C188.534 111.917 188.54 111.55 188.54 111.19C188.54 110.823 188.54 110.463 188.546 110.102C188.546 109.754 188.546 109.406 188.552 109.058C188.552 108.369 188.558 107.673 188.565 106.995V106.89C188.571 106.424 188.571 105.958 188.583 105.498C188.701 94.81 189.068 86.2225 189.888 85.0295C191.87 82.1525 201.154 77.7282 203.987 75.6342L203.994 76.0878C203.994 76.0878 205.858 78.4242 207.883 78.1943C209.723 77.9954 211.083 75.8206 211.307 75.4291C212.767 76.4047 216.117 77.9519 219.373 79.611C222.623 81.2701 225.773 83.0286 226.842 84.4205C227.749 85.6136 228.501 94.7044 229.085 105.858V105.889C229.097 106.1 229.104 106.306 229.116 106.517V106.548C229.122 106.703 229.135 106.865 229.141 107.033C229.159 107.362 229.178 107.691 229.19 108.027C229.209 108.369 229.228 108.717 229.24 109.064C229.259 109.425 229.271 109.785 229.296 110.152C229.309 110.512 229.321 110.873 229.346 111.239C229.358 111.594 229.377 111.954 229.389 112.321C229.408 112.662 229.42 113.01 229.433 113.358C229.451 113.725 229.464 114.085 229.483 114.452C229.495 114.806 229.514 115.166 229.526 115.533C229.538 115.893 229.557 116.26 229.57 116.62C229.588 116.962 229.601 117.31 229.613 117.658C229.638 118.385 229.669 119.106 229.694 119.833C230.203 133.485 230.483 146.77 230.533 150.759Z" fill="#707FFF"/>
<path d="M201.934 86.0802C201.795 86.0522 201.687 85.9342 201.678 85.7863C201.666 85.6098 201.801 85.457 201.977 85.4458C210.089 84.9238 212.874 78.8014 212.901 78.7398C212.972 78.5777 213.162 78.5037 213.324 78.5752C213.486 78.646 213.56 78.8349 213.489 78.9971C213.46 79.0642 212.748 80.6649 210.974 82.3469C209.342 83.8948 206.463 85.8 202.019 86.0858C201.989 86.0877 201.96 86.0858 201.934 86.0802Z" fill="#4F60D9"/>
<path d="M229.346 111.237L188.532 112.277C188.535 111.914 188.537 111.551 188.541 111.187C188.543 110.824 188.54 110.461 188.549 110.103L229.243 109.067C229.258 109.424 229.274 109.787 229.295 110.149C229.309 110.512 229.325 110.875 229.346 111.237Z" fill="#4F60D9"/>
<path d="M229.526 115.532L188.534 116.576C188.531 116.213 188.534 115.849 188.531 115.492C188.533 115.128 188.53 114.766 188.532 114.402L229.435 113.36C229.451 113.723 229.466 114.086 229.481 114.449C229.496 114.806 229.511 115.169 229.526 115.532Z" fill="#4F60D9"/>
<path d="M229.695 119.832L188.548 120.881C188.548 120.16 188.542 119.434 188.541 118.708L229.611 117.661C229.64 118.387 229.671 119.107 229.695 119.832Z" fill="#4F60D9"/>
<path d="M224.767 100.181C225.997 101.758 227.826 105.355 228.648 107.018C228.76 107.246 228.853 107.438 228.924 107.583C229.017 107.774 229.069 107.885 229.073 107.893C229.1 107.949 229.14 107.994 229.19 108.026C229.174 107.693 229.158 107.361 229.141 107.031C229.134 106.868 229.124 106.705 229.116 106.544L229.115 106.517C228.947 106.178 228.748 105.78 228.526 105.343C227.593 103.517 226.265 101.058 225.273 99.786C225.165 99.6462 224.963 99.622 224.823 99.7307C224.682 99.8395 224.659 100.042 224.767 100.181Z" fill="#4F60D9"/>
<path d="M217.806 140.31C217.974 140.306 218.111 140.172 218.118 140.002C218.125 139.825 217.988 139.676 217.81 139.669C208.768 139.307 203.267 134.869 200.244 131.211C196.958 127.233 195.8 123.285 195.789 123.246C195.74 123.075 195.562 122.977 195.392 123.026C195.222 123.074 195.123 123.252 195.172 123.422C195.219 123.587 196.369 127.519 199.733 131.599C202.839 135.368 208.493 139.938 217.785 140.31C217.792 140.311 217.799 140.311 217.806 140.31Z" fill="#4F60D9"/>
<path d="M212.813 134.701C212.955 134.698 213.082 134.6 213.117 134.456C213.158 134.284 213.053 134.111 212.881 134.068C204.982 132.148 203.301 125.635 203.285 125.569C203.243 125.397 203.069 125.291 202.897 125.333C202.725 125.375 202.62 125.548 202.662 125.721C202.679 125.792 203.102 127.492 204.558 129.456C205.897 131.264 208.402 133.639 212.729 134.692C212.757 134.699 212.785 134.702 212.813 134.701Z" fill="#4F60D9"/>
<path d="M192.759 99.0602C191.566 100.67 189.832 104.311 189.049 105.995C188.944 106.225 188.857 106.424 188.788 106.567C188.701 106.759 188.652 106.871 188.652 106.883C188.633 106.927 188.602 106.964 188.565 106.995V106.89C188.571 106.424 188.571 105.958 188.583 105.498C188.732 105.156 188.925 104.752 189.13 104.317C190.019 102.472 191.286 99.9799 192.243 98.6812C192.349 98.5383 192.548 98.5072 192.691 98.6128C192.834 98.7185 192.865 98.9235 192.759 99.0602Z" fill="#4F60D9"/>
<path d="M232.273 105.111L260.098 104.402C260.892 104.382 261.519 103.722 261.499 102.928L261.478 102.107C261.457 101.313 260.798 100.686 260.004 100.706L232.179 101.415C231.385 101.436 230.758 102.095 230.778 102.889L230.799 103.711C230.82 104.505 231.48 105.132 232.273 105.111Z" fill="#18285D"/>
<path d="M261.529 104.366L266.749 82.6092C267.042 81.3869 266.097 80.2193 264.841 80.2516L252.143 80.5748C251.286 80.5965 250.549 81.1856 250.338 82.0164L244.561 104.798L261.529 104.366Z" fill="#3B3E7D"/>
<path d="M250.337 82.0163L244.608 104.61L243.157 104.647L248.886 82.053C249.099 81.2222 249.835 80.6325 250.692 80.6102L252.143 80.5729C251.286 80.5959 250.55 81.1856 250.337 82.0163Z" fill="#18285D"/>
<g opacity="0.5">
<path d="M253.897 93.5132C253.603 94.9473 254.521 96.0801 255.946 96.0434C257.371 96.0074 258.765 94.8156 259.058 93.3814C259.352 91.9479 258.435 90.8151 257.009 90.8512C255.584 90.8878 254.191 92.0796 253.897 93.5132Z" fill="#3B3E7D"/>
</g>
<path d="M198.364 60.8348C198.364 60.8348 197.52 61.2685 197.278 59.6125C197.037 57.9565 197.707 57.6601 197.209 56.8753C196.71 56.0905 196.365 55.0621 197.144 54.3246C197.923 53.5864 196.274 51.7738 197.175 50.8336C198.076 49.8935 199.567 49.6611 200.138 48.6091C200.71 47.5577 201.604 45.55 204.433 45.5183C207.261 45.486 208.225 47.7404 209.704 47.1041C211.184 46.4684 212.274 46.1211 214.04 47.3129C215.805 48.5047 214.012 50.2253 215.648 51.0213C217.283 51.8173 216.06 54.2817 217.938 55.6698C219.354 56.7163 218.015 60.9727 215.188 60.4066C212.362 59.8399 198.364 60.8348 198.364 60.8348Z" fill="#18285D"/>
<path d="M199.081 61.4947C199.081 61.4947 197.474 59.4615 196.361 61.2051C195.249 62.9487 197.013 67.9695 199.811 66.6615L199.081 61.4947Z" fill="#FD857D"/>
<path d="M199.153 65.1123C199.049 65.1148 198.951 65.0483 198.918 64.9433C198.44 63.3917 196.804 62.7989 196.788 62.7933C196.664 62.7492 196.598 62.6131 196.642 62.4882C196.686 62.3633 196.822 62.2981 196.947 62.3416C197.023 62.3683 198.825 63.0152 199.376 64.8023C199.415 64.9284 199.345 65.0626 199.218 65.1011C199.197 65.1086 199.175 65.1117 199.153 65.1123Z" fill="#F05B56"/>
<path d="M197.499 64.3667C197.454 64.3679 197.409 64.3567 197.368 64.3319C197.255 64.2629 197.22 64.1163 197.288 64.0032C197.299 63.9845 197.575 63.5402 198.167 63.2569C198.286 63.1997 198.43 63.2501 198.486 63.3694C198.543 63.4887 198.493 63.631 198.374 63.6881C197.916 63.9075 197.699 64.2486 197.697 64.2517C197.653 64.3244 197.577 64.3648 197.499 64.3667Z" fill="#F05B56"/>
<path d="M215.103 61.0864C215.103 61.0864 216.604 58.9738 217.804 60.6583C219.004 62.3429 217.499 67.4469 214.637 66.2837L215.103 61.0864Z" fill="#FD857D"/>
<path d="M215.215 64.7035C215.319 64.701 215.413 64.6295 215.44 64.5233C215.839 62.9493 217.442 62.2745 217.458 62.2676C217.581 62.2173 217.639 62.0775 217.589 61.9557C217.539 61.8333 217.399 61.7749 217.278 61.8246C217.202 61.8551 215.436 62.5932 214.977 64.4058C214.944 64.5338 215.022 64.6637 215.15 64.6966C215.172 64.7016 215.193 64.7041 215.215 64.7035Z" fill="#F05B56"/>
<path d="M216.829 63.8746C216.874 63.8733 216.918 63.8603 216.957 63.8329C217.066 63.7584 217.094 63.6098 217.02 63.5005C217.008 63.4825 216.71 63.0525 216.104 62.7996C215.983 62.7486 215.842 62.8064 215.792 62.9282C215.741 63.05 215.799 63.1904 215.92 63.2407C216.389 63.4365 216.623 63.7658 216.625 63.7689C216.672 63.8398 216.751 63.8764 216.829 63.8746Z" fill="#F05B56"/>
<path d="M211.16 70.6687L211.288 75.7032C211.288 75.7032 209.852 78.3055 207.826 78.5317C205.802 78.7603 203.938 76.4215 203.938 76.4215L203.805 71.21L211.16 70.6687Z" fill="#FDA893"/>
<path d="M211.16 70.6687L211.217 72.9026C209.893 74.4492 207.483 74.8885 203.889 74.4511L203.806 71.2106L211.16 70.6687Z" fill="#FD857D"/>
<path d="M216.138 57.6042C216.095 59.5628 215.971 62.0141 215.648 63.9802C215.567 64.4704 215.473 64.9321 215.367 65.3466C214.402 69.083 211.914 75.5124 204.427 73.0517C201.121 71.9655 199.509 68.3547 198.738 64.66C198.215 62.1508 198.081 59.6057 198.067 57.7844C198.056 55.9252 199.027 54.2015 200.62 53.244C204.936 50.6497 209.58 51.4575 212.653 52.5499C214.784 53.3067 216.189 55.3461 216.138 57.6042Z" fill="#FDA893"/>
<path d="M204.157 62.0228C204.171 62.5603 203.905 63.0028 203.563 63.0115C203.221 63.0202 202.933 62.5914 202.92 62.0539C202.906 61.5164 203.172 61.074 203.514 61.0653C203.855 61.0566 204.143 61.4853 204.157 62.0228Z" fill="#18285D"/>
<path d="M211.589 61.8333C211.602 62.3708 211.336 62.8132 210.995 62.8219C210.653 62.8306 210.365 62.4019 210.352 61.8644C210.338 61.3269 210.604 60.8844 210.946 60.8757C211.287 60.867 211.575 61.2958 211.589 61.8333Z" fill="#18285D"/>
<path d="M213.056 58.5897C213.056 58.5897 210.475 57.6446 208.528 58.545L208.753 59.6349C208.753 59.6349 211.635 59.3167 213.106 59.8697C213.225 59.4447 213.234 59.0184 213.056 58.5897Z" fill="#18285D"/>
<path d="M200.902 58.9041C200.902 58.9041 203.451 57.8211 205.456 58.627L205.285 59.7349C205.285 59.7349 202.369 59.5628 200.918 60.1941C200.775 59.7735 200.746 59.3447 200.902 58.9041Z" fill="#18285D"/>
<path d="M207.491 65.904C207.091 65.9593 206.673 65.8593 206.608 65.8425C206.48 65.8095 206.403 65.6797 206.436 65.5517C206.468 65.4237 206.598 65.346 206.726 65.3789C206.953 65.4361 207.485 65.5013 207.69 65.3367C207.729 65.305 207.78 65.2459 207.775 65.0999C207.746 64.2604 207.135 61.5183 207.128 61.4903C207.1 61.3617 207.181 61.2337 207.31 61.2045C207.439 61.1753 207.567 61.2567 207.596 61.3859C207.621 61.5003 208.223 64.1995 208.254 65.0831C208.266 65.4156 208.116 65.6076 207.99 65.7095C207.85 65.8213 207.672 65.8791 207.491 65.904Z" fill="#FD857D"/>
<path d="M204.062 67.3208C204.282 68.2994 204.978 70.0921 207.167 70.0362C209.361 69.9803 209.934 68.3112 210.117 67.1667L204.062 67.3208Z" fill="white"/>
<path d="M207.175 71.5194C207.794 71.5039 208.311 71.1771 208.333 71.1628C208.444 71.0913 208.476 70.9434 208.405 70.8322C208.333 70.721 208.185 70.6886 208.074 70.7595C208.071 70.762 207.645 71.0285 207.163 71.0403C206.72 71.0515 206.29 70.8086 206.286 70.8061C206.172 70.7396 206.026 70.7781 205.959 70.8925C205.893 71.0068 205.931 71.1528 206.045 71.2193C206.067 71.233 206.591 71.5344 207.175 71.5194Z" fill="#FD857D"/>
<path d="M216.138 57.6042C216.095 59.5628 215.971 62.0141 215.648 63.9802L214.576 63.9317C214.576 63.9317 214.793 62.2732 214.885 61.1939C214.977 60.1146 215.129 58.0976 214.205 57.8701C213.283 57.6446 213.762 55.3362 212.461 54.3736C211.161 53.4086 208.307 52.6033 206.457 53.8088C204.606 55.0118 202.452 54.4277 201.591 54.6508C200.728 54.8714 199.582 56.0973 199.929 57.2059C200.277 58.3126 199.338 59.016 199.136 60.1767C198.933 61.3374 199.754 64.4282 199.754 64.4282L198.738 64.66C198.215 62.1508 198.081 59.6057 198.067 57.7844C198.056 55.9252 199.027 54.2015 200.62 53.244C204.936 50.6497 209.58 51.4575 212.653 52.5499C214.784 53.3067 216.189 55.3461 216.138 57.6042Z" fill="#18285D"/>
<path d="M190.476 145.405L187.922 148.891C187.922 148.891 186.443 147.965 184.436 146.355C184.43 146.349 184.43 146.349 184.424 146.343C181.367 143.901 177.655 139.366 175.333 134.701C171.709 127.418 173.351 122.192 173.351 122.192C173.711 118.688 175.675 113.832 177.545 108.544C178.229 106.624 178.85 104.953 179.285 103.778L184.996 105.09L187.438 106.593L186.499 109.073C184.884 114.425 183.057 119.688 180.612 124.692C181.165 129.594 183.237 135.512 185.629 139.141C188.102 142.907 190.476 145.405 190.476 145.405Z" fill="#FDA893"/>
<path d="M190.476 145.405L187.922 148.891C187.922 148.891 186.443 147.965 184.436 146.355C184.43 146.349 184.43 146.349 184.424 146.343C183.983 143.708 184.25 139.986 185.629 139.141C188.102 142.907 190.476 145.405 190.476 145.405Z" fill="#FD857D"/>
<path d="M189.112 141.383C189.626 141.416 192.367 141.552 192.07 140.614C191.743 139.581 189.054 138.369 189.054 138.369C189.054 138.369 189.038 138.317 189.065 138.247L189.035 138.026L188.917 135.803C188.397 135.807 187.92 135.908 187.661 135.988C186.483 136.353 186.644 139.049 186.644 139.049C186.644 139.049 185.158 139.581 185.212 140.669C185.267 141.757 186.464 141.921 186.464 141.921C186.464 141.921 184.829 142.737 185.211 143.662C185.593 144.588 186.833 144.86 186.833 144.86C186.833 144.86 185.429 145.785 185.92 146.438C186.409 147.091 187.553 147.418 187.553 147.418C187.553 147.418 186.574 148.743 187.569 149.465C188.563 150.187 190.026 150.03 190.967 149.703C191.907 149.377 191.744 148.179 189.893 147.309C189.893 147.309 191.526 147.472 192.342 146.111C193.023 144.977 191.287 144.486 189.805 144.291C190.969 144.369 192.977 144.337 193.322 143.226C193.774 141.771 189.742 141.427 189.112 141.383Z" fill="#FDA893"/>
<path d="M187.438 106.593L186.499 109.073C184.604 109.191 181.212 109.247 177.545 108.544C178.229 106.624 178.85 104.953 179.285 103.778L184.996 105.09L187.438 106.593Z" fill="#FD857D"/>
<path d="M189.886 85.032C189.886 85.032 181.272 93.4082 176.198 105.57C180.175 106.857 183.941 107.767 187.436 108.202C187.85 107.073 190.024 102.399 191.95 99.0994L189.886 85.032Z" fill="#707FFF"/>
<path d="M120.226 19.1973L120.235 19.1706C120.38 18.8518 120.511 18.5287 120.629 18.2062C122.365 13.47 122.536 3.74853 111.743 1.4488C111.743 1.4488 102.848 -0.629102 98.8915 7.37553C98.8915 7.37553 97.11 11.0839 95.8443 13.7776C95.8443 13.7776 94.7824 19.4378 89.4416 19.9374C84.1008 20.4369 81.1225 22.4875 81.6358 26.4432C82.1491 30.3989 81.3276 29.7695 77.6304 33.1144C73.9332 36.4593 71.3538 42.7147 74.5434 46.832C77.7329 50.9492 89.6665 41.2078 97.3083 45.5606C104.95 49.9134 117.782 48.6408 119.274 42.4469C120.766 36.2536 114.789 32.1717 115.107 29.0257C115.426 25.8802 119.257 22.2073 120.226 19.1973Z" fill="#29245D"/>
<path d="M123.128 58.9041L115.504 58.9103L111.819 51.7458L111.402 50.9256L109.83 47.8746C109.83 47.8746 110.146 34.8877 113.477 33.1168L123.128 58.9041Z" fill="#707FFF"/>
<path d="M111.819 51.7458L111.402 50.9256C112.136 49.4405 113.403 46.0229 112.397 41.6235C112.353 41.4184 112.477 41.2196 112.676 41.1761C112.875 41.1326 113.08 41.2569 113.124 41.4557C114.317 46.6753 112.527 50.5092 111.819 51.7458Z" fill="#4F60D9"/>
<path d="M124.999 58.0025C124.999 58.0025 125.656 60.8341 126.775 61.6139C127.894 62.3937 127.612 58.4343 127.612 58.4343C127.612 58.4343 127.988 63.2127 129.146 63.3407C130.305 63.4687 130.072 58.8165 130.072 58.8165C130.072 58.8165 130.82 62.0153 131.697 62.2017C132.575 62.3888 132.544 58.9811 132.544 58.9811C132.544 58.9811 133.394 61.4561 134.043 61.6711C134.693 61.8861 135.008 59.0109 134.643 57.5464C134.278 56.0818 132.455 56.971 132.455 56.971C132.455 56.971 130.732 56.4732 130.134 57.0667C130.134 57.0667 128.589 56.3956 127.724 56.8299C127.724 56.8311 125.201 56.1029 124.999 58.0025Z" fill="#FDA893"/>
<path d="M112.166 39.3306C112.458 41.8348 113.253 44.3638 112.19 48.3469C111.855 49.6083 111.333 50.6149 110.351 52.3423V52.3486C110.345 52.3486 110.345 52.3486 110.345 52.3486C110.301 52.448 110.246 52.5412 110.183 52.6406C110.165 52.8208 110.14 52.9948 110.121 53.1688C109.481 57.6054 109.649 55.2504 109.724 58.9103H86.7573L86.9251 49.8195L86.9624 47.8808L87.2917 30.0348L94.5432 29.3947H94.5494L95.7984 29.2829L95.873 29.2705L97.8241 29.1027C97.9981 29.0841 98.1659 29.0716 98.3399 29.0592C100.968 28.8976 103.603 29.3078 106.07 30.2585L106.151 30.2895L107.238 30.7059V30.7121L107.306 30.7369L108.369 31.147L113.477 33.1168C113.216 34.2664 112.402 38.1749 112.166 39.3306Z" fill="#707FFF"/>
<path d="M89.8204 43.2142L86.9248 49.8195L86.9621 47.8808L89.1369 42.916C89.2177 42.7296 89.4414 42.6426 89.6278 42.7233C89.8142 42.8041 89.9012 43.0278 89.8204 43.2142Z" fill="#4F60D9"/>
<path d="M94.5464 29.391C96.9151 34.1645 102.714 39.4984 105.686 37.8524C107.514 36.842 108.261 33.5226 108.368 31.144L107.303 30.7351L107.239 30.7108V30.709L106.152 30.2902L106.069 30.2579C103.605 29.3084 100.97 28.8995 98.3399 29.0617C98.2504 29.0741 98.1597 29.0859 98.0702 29.0984C97.9876 29.1083 97.9062 29.1189 97.8254 29.1288L95.8718 29.2748L95.7966 29.2811L94.5464 29.391Z" fill="#FDA893"/>
<path d="M110.187 52.6437C110.165 52.8201 110.141 52.9954 110.122 53.17C108.864 53.4384 104.914 53.9933 98.2002 52.3858C97.3296 52.177 96.4118 51.9322 95.4481 51.6445C95.2498 51.5867 95.1386 51.3785 95.1964 51.1803C95.2561 50.9852 95.4648 50.8715 95.66 50.9312C105.345 53.8081 110.29 52.3641 110.339 52.3504C110.345 52.3491 110.348 52.3473 110.353 52.346C110.298 52.4424 110.244 52.5418 110.187 52.6437Z" fill="#4F60D9"/>
<path d="M116.533 18.4963C116.533 18.4963 118.669 17.1579 119.213 19.0898C119.757 21.0223 116.583 25.0221 114.302 22.9535L116.533 18.4963Z" fill="#FD857D"/>
<path d="M115.614 23.0654C115.518 23.3357 115.658 23.6327 115.929 23.7296C116.199 23.826 116.496 23.6855 116.593 23.4152C116.689 23.1449 116.549 22.8473 116.278 22.751C116.008 22.6547 115.71 22.7951 115.614 23.0654Z" fill="white"/>
<path d="M115.39 21.7561C115.489 21.7915 115.602 21.7617 115.664 21.6766C116.581 20.4195 118.317 20.3972 118.335 20.3972C118.466 20.3965 118.569 20.2934 118.565 20.1666C118.56 20.0399 118.45 19.9373 118.318 19.9373C118.237 19.9373 116.326 19.9572 115.269 21.405C115.195 21.5076 115.223 21.6511 115.331 21.7263C115.349 21.7387 115.369 21.7487 115.39 21.7561Z" fill="#F05B56"/>
<path d="M117.189 21.6008C117.231 21.6157 117.277 21.62 117.324 21.6101C117.452 21.5834 117.53 21.461 117.498 21.3367C117.493 21.3162 117.362 20.8259 116.881 20.3829C116.785 20.2934 116.633 20.294 116.543 20.3847C116.453 20.4748 116.459 20.6202 116.555 20.7097C116.927 21.0527 117.033 21.4305 117.034 21.4342C117.054 21.5132 117.115 21.5741 117.189 21.6008Z" fill="#F05B56"/>
<path d="M101.79 23.9682L99.7949 29.5532C99.7949 29.5532 101.675 32.483 103.638 33.3809C105.598 34.28 107.15 32.1425 107.15 32.1425L109.007 26.9446L101.79 23.9682Z" fill="#FDA893"/>
<path d="M101.594 24.5151L100.798 26.7427C101.618 28.7361 103.84 30.1317 107.599 30.8805L108.811 27.4909L101.594 24.5151Z" fill="#FD857D"/>
<path d="M116.659 20.9353C116.401 21.4516 116.129 21.973 115.837 22.485C113.898 25.8871 110.2 28.9896 107.065 28.6118C100.293 27.7959 99.4501 21.9475 99.7447 17.9607C99.7782 17.5177 100.15 17.1306 100.233 16.6217C100.429 15.4168 100.431 13.9684 100.781 12.6647C101.023 11.7612 101.281 10.877 101.524 10.081C102.21 7.83781 104.213 6.26634 106.494 6.18742C109.782 6.0706 114.478 6.72554 117.752 10.634C118.961 12.0775 119.328 14.0814 118.713 15.9114C118.243 17.3089 117.559 19.1128 116.659 20.9353Z" fill="#FDA893"/>
<path d="M108.012 21.0148C107.895 20.9731 107.822 20.852 107.844 20.7265C107.87 20.586 108.003 20.4922 108.144 20.5177L109.029 20.6755L108.973 17.1989C108.971 17.0566 109.085 16.9385 109.228 16.936C109.37 16.9342 109.488 17.0473 109.49 17.1902L109.556 21.2938L108.053 21.0253C108.039 21.0235 108.025 21.0197 108.012 21.0148Z" fill="#FD857D"/>
<path d="M116.432 13.9559C118.481 15.9474 116.665 18.5777 116.97 20.3325C116.99 20.4462 117.04 20.4835 117.116 20.4556C118.042 18.6007 118.74 16.7627 119.218 15.3379C119.844 13.4712 119.436 11.4176 118.15 9.92688C114.669 5.89163 109.73 5.16959 106.278 5.25285C103.883 5.30815 101.797 6.89392 101.1 9.18184C100.854 9.99337 100.593 10.8956 100.348 11.8171C100.668 12.2042 101.621 12.669 101.429 13.337C100.922 15.1036 100.584 16.3159 100.982 16.342C101.652 16.3843 102.777 14.4269 102.565 12.8256C102.565 12.8256 103.45 12.1148 106.045 12.0501C109.373 11.9675 112.786 11.3045 112.786 11.3045C112.786 11.3045 114.136 11.0323 114.823 10.455C114.824 10.4557 114.871 12.4391 116.432 13.9559Z" fill="#29245D"/>
<path d="M112.467 18.1571C112.275 18.6934 112.397 19.2265 112.737 19.3483C113.078 19.4701 113.509 19.1339 113.701 18.5983C113.892 18.0627 113.771 17.5295 113.431 17.4077C113.089 17.2853 112.658 17.6215 112.467 18.1571Z" fill="#29245D"/>
<path d="M105.436 15.6418C105.245 16.178 105.366 16.7112 105.707 16.833C106.047 16.9548 106.479 16.6186 106.671 16.083C106.862 15.5467 106.741 15.0136 106.4 14.8924C106.06 14.7712 105.628 15.1055 105.436 15.6418Z" fill="#29245D"/>
<path d="M115.497 16.009C115.036 15.7349 114.09 15.2173 113.008 14.8731C112.723 14.7823 112.423 14.9141 112.381 15.1514L112.38 15.1577C112.347 15.3472 112.495 15.5361 112.726 15.5995C113.474 15.8045 115.374 16.4967 116.167 17.0771C116.237 16.9578 116.2 16.7907 116.117 16.6266C115.993 16.3781 115.767 16.1686 115.497 16.009Z" fill="#29245D"/>
<path d="M105.537 12.5827C106.069 12.656 107.131 12.84 108.192 13.2451C108.471 13.3514 108.625 13.6415 108.509 13.8534L108.506 13.8584C108.413 14.0274 108.18 14.0821 107.96 13.9883C107.247 13.6832 105.329 13.0407 104.348 13.0015C104.367 12.8642 104.5 12.7567 104.667 12.6796C104.919 12.5628 105.226 12.5398 105.537 12.5827Z" fill="#29245D"/>
<path d="M110.191 23.427C109.707 24.2155 108.547 25.5708 106.528 24.8493C104.504 24.1267 104.449 22.4893 104.606 21.4317L110.191 23.427Z" fill="white"/>
<path d="M106.033 26.3257C106.615 26.5339 107.242 26.404 107.268 26.3984C107.405 26.3692 107.492 26.2344 107.463 26.0977C107.434 25.961 107.3 25.874 107.163 25.9026C107.158 25.9038 106.647 26.0076 106.203 25.8485C105.722 25.677 105.382 25.2681 105.379 25.2638C105.29 25.1557 105.131 25.1395 105.022 25.2284C104.914 25.3166 104.898 25.4757 104.986 25.5838C105.004 25.6056 105.415 26.1051 106.033 26.3257Z" fill="#FD857D"/>
<path d="M101.452 13.0922C101.452 13.0922 100.482 10.4053 98.9381 11.5412C97.3939 12.6771 97.2423 17.6078 100.099 17.412L101.452 13.0922Z" fill="#FD857D"/>
<path d="M98.5101 16.9559C98.4138 17.2262 98.5542 17.5232 98.8245 17.6202C99.0948 17.7165 99.3925 17.5761 99.4888 17.3058C99.5851 17.0355 99.4446 16.7378 99.1743 16.6415C98.9034 16.5446 98.6064 16.6856 98.5101 16.9559Z" fill="white"/>
<path d="M100.047 15.853C99.956 15.8207 99.8939 15.73 99.9007 15.6287C100.005 14.1268 98.7891 13.0686 98.7767 13.058C98.6841 12.9785 98.6729 12.8387 98.7518 12.7455C98.8314 12.6523 98.9712 12.6411 99.0644 12.72C99.1215 12.7685 100.464 13.9298 100.344 15.6591C100.335 15.7815 100.229 15.8735 100.107 15.8648C100.086 15.8636 100.066 15.8592 100.047 15.853Z" fill="#F05B56"/>
<path d="M98.8653 14.6556C98.8268 14.6419 98.7913 14.617 98.764 14.5822C98.6894 14.4853 98.7074 14.3461 98.8044 14.2709C98.8205 14.2585 99.207 13.9664 99.8141 13.9192C99.9359 13.9093 100.043 14.0012 100.052 14.123C100.061 14.2448 99.9701 14.3517 99.8483 14.3616C99.3792 14.3983 99.0778 14.6208 99.0747 14.6232C99.0132 14.6698 98.9343 14.6798 98.8653 14.6556Z" fill="#F05B56"/>
<path d="M108.973 16.0618C109.025 15.917 109.043 15.7667 109.031 15.6212C109 15.2223 108.745 14.8588 108.347 14.7066L104.831 13.3619C104.554 13.2563 104.262 13.2731 104.012 13.3849C103.874 13.4464 103.751 13.5359 103.65 13.6509C103.565 13.7453 103.496 13.8553 103.448 13.9796L103.276 14.4288C102.985 15.1906 103.005 16.032 103.332 16.7404C103.659 17.4438 104.152 17.9334 104.799 18.1969L104.892 18.2323C105.644 18.52 106.463 18.4989 107.202 18.1714C107.952 17.8396 108.525 17.235 108.818 16.4688L108.964 16.0885C108.967 16.0804 108.971 16.0705 108.973 16.0618ZM108.404 16.3104C108.154 16.9659 107.663 17.4817 107.024 17.765C106.392 18.0446 105.693 18.0627 105.051 17.8172L104.966 17.7849C104.427 17.5649 104.014 17.1511 103.737 16.5539C103.459 15.9549 103.443 15.2372 103.691 14.5873L103.863 14.138C103.987 13.8143 104.349 13.6533 104.672 13.777L108.188 15.1217C108.51 15.2447 108.673 15.607 108.549 15.9301L108.404 16.3104Z" fill="white"/>
<path d="M116.484 18.6567C116.5 18.5057 116.481 18.3541 116.434 18.2124C116.334 17.9222 116.111 17.6756 115.803 17.5575L112.285 16.2122C111.878 16.0562 111.433 16.1668 111.143 16.4601C111.045 16.5577 110.965 16.6758 110.912 16.8106C110.908 16.8168 110.906 16.8224 110.903 16.8292L110.731 17.2785C110.44 18.0403 110.462 18.8823 110.788 19.5907C111.114 20.2934 111.608 20.7837 112.254 21.0466L112.348 21.0826C113.101 21.3703 113.92 21.3492 114.658 21.0217C115.407 20.6899 115.982 20.0853 116.275 19.3191L116.42 18.9388C116.455 18.8475 116.477 18.7524 116.484 18.6567ZM115.86 19.1619C115.609 19.8175 115.118 20.3332 114.478 20.6159C113.848 20.8962 113.148 20.9142 112.507 20.6688L112.421 20.6358C111.882 20.4152 111.468 20.002 111.191 19.4049C110.915 18.8058 110.897 18.0882 111.146 17.4382L111.318 16.9889C111.442 16.6652 111.804 16.5043 112.126 16.6279L115.644 17.9732C115.966 18.0962 116.129 18.4585 116.005 18.7816L115.86 19.1619Z" fill="white"/>
<path d="M104.012 13.3849C103.725 13.0724 102.942 12.3466 101.613 11.9514V12.4199C102.71 12.7779 103.382 13.3744 103.65 13.6509C103.739 13.7416 103.784 13.7988 103.786 13.8013L104.138 13.5316C104.13 13.5204 104.088 13.4663 104.012 13.3849Z" fill="white"/>
<path d="M108.819 16.0506L108.832 15.607C108.86 15.6076 109.519 15.63 110.158 15.8748C110.839 16.1351 111.198 16.5123 111.213 16.5279L110.889 16.8317C110.887 16.8292 110.58 16.5111 110 16.2892C109.433 16.0724 108.825 16.0506 108.819 16.0506Z" fill="white"/>
<path d="M117.865 18.3224C117.039 18.1559 116.29 18.2205 116.242 18.2248L116.282 18.6666C116.295 18.666 117.063 18.6008 117.865 18.7779V18.3224Z" fill="white"/>
<path d="M105.502 58.9346C105.502 58.9346 105.645 61.7662 104.746 62.5466C103.847 63.3265 103.012 59.367 103.012 59.367C103.012 59.367 103.985 64.1454 102.862 64.2735C101.74 64.4015 100.66 59.7492 100.66 59.7492C100.66 59.7492 100.815 62.9481 99.9897 63.1345C99.1645 63.3215 98.233 59.9138 98.233 59.9138C98.233 59.9138 98.082 62.3888 97.493 62.6038C96.9039 62.8188 95.7773 59.9437 95.7289 58.4797C95.6804 57.0151 97.7546 57.9043 97.7546 57.9043C97.7546 57.9043 99.3372 57.4072 100.102 58C100.102 58 101.457 57.3289 102.445 57.7633C102.447 57.7633 104.764 57.035 105.502 58.9346Z" fill="#FDA893"/>
<path d="M92.8528 58.9041L76.5416 58.9103C76.5291 58.9041 76.4919 58.7674 76.4919 58.7612C76.206 54.4301 78.9463 47.1351 80.8602 40.7598C82.1278 36.5406 83.7931 31.4639 87.2915 30.0347C87.9066 30.7617 89.0438 33.7568 89.1245 35.2854C89.311 38.9764 88.8449 42.8787 88.1614 44.9292C87.1734 47.8746 85.9369 51.4599 85.0359 54.4053C85.0359 54.4053 85.0359 54.4115 85.0296 54.4301C85.011 54.5109 84.9489 54.803 84.9489 54.8092C84.9737 54.8154 85.1353 54.9024 85.4211 55.0639C86.4837 55.6543 89.2612 57.2139 92.8528 58.9041Z" fill="#707FFF"/>
<path d="M85.4211 55.0639C83.7123 55.8593 81.2951 57.537 81.2702 57.5557C81.2019 57.6054 81.1273 57.624 81.059 57.624C80.9409 57.624 80.8229 57.5681 80.7483 57.4625C80.6302 57.2947 80.6737 57.0648 80.8415 56.9467C80.9471 56.8721 83.2773 55.2566 85.0296 54.4301C85.011 54.5109 84.9488 54.8029 84.9488 54.8092C84.9737 54.8154 85.1352 54.9024 85.4211 55.0639Z" fill="#4F60D9"/>
<path d="M97.8247 29.1003C97.8247 29.1003 99.0668 34.7542 103.516 35.0649C107.965 35.3756 108.368 30.8812 108.368 30.8812" stroke="white" stroke-width="0.745657" stroke-miterlimit="10" stroke-linecap="round"/>
<path d="M254.849 214.342C254.849 214.342 254.342 214.838 253.303 214.915C252.989 214.94 252.628 214.926 252.213 214.842C251.771 214.762 251.272 214.605 250.718 214.342C250.718 214.342 250.958 204.126 246.827 197.089C242.696 190.052 237.227 180.332 241.602 175.347C245.977 170.363 253.025 177.291 255.333 188.958C257.645 200.626 254.849 214.342 254.849 214.342Z" fill="#4F60D9"/>
<path d="M253.303 214.915C252.989 214.94 252.628 214.926 252.213 214.842C253.54 196.706 245.307 182.698 245.223 182.556C245.067 182.297 245.151 181.962 245.409 181.804C245.668 181.651 246.004 181.735 246.16 181.994C246.247 182.136 254.655 196.422 253.303 214.915Z" fill="#1D38C8"/>
<path d="M269.017 197.855C259.352 213.482 260.019 217.095 260.019 217.095L258.75 216.869L257.671 216.679L256.132 216.406C255.275 209.475 260.598 180.178 270.089 180.178C279.752 180.178 272.31 192.535 269.017 197.855Z" fill="#4F60D9"/>
<path d="M268.652 188.863C268.561 189.017 260.467 203.455 258.75 216.869L257.67 216.68C259.435 203.05 267.61 188.481 267.697 188.324C267.846 188.062 268.182 187.97 268.444 188.12C268.707 188.269 268.798 188.601 268.652 188.863Z" fill="#1D38C8"/>
<path d="M250.63 215.728L249.518 216.027L248.453 216.315L247.815 216.487C247.855 216.348 247.37 215.152 240.571 206.066C237.763 202.311 230.274 192.211 237.14 190.516C243.436 188.962 250.812 210.495 250.63 215.728Z" fill="#4F60D9"/>
<path d="M249.518 216.027L248.454 216.315C246.492 207.561 238.533 196.816 238.445 196.699C238.266 196.458 238.317 196.115 238.558 195.933C238.799 195.754 239.142 195.802 239.324 196.046C239.674 196.52 247.499 207.072 249.518 216.027Z" fill="#1D38C8"/>
<path d="M264.097 238.846C264.097 240.595 242.478 240.595 242.478 238.846V213.141C242.478 212.875 242.694 212.659 242.96 212.659H263.615C263.88 212.659 264.096 212.875 264.096 213.141L264.097 238.846Z" fill="#3B3E7D"/>
<path d="M39.77 239.488H24.2317C22.1184 239.488 20.2456 237.871 19.5925 235.483L13.0028 211.385C12.7331 210.399 13.3116 209.375 14.1815 209.294C26.1792 208.19 38.06 208.188 49.8221 209.291C50.6908 209.373 51.268 210.397 50.999 211.382L44.4086 235.483C43.7562 237.871 41.8833 239.488 39.77 239.488Z" fill="#3B3E7D"/>
<path d="M49.6195 211.044C49.6195 211.686 41.7789 212.205 32.1071 212.205C22.4353 212.205 14.5947 211.686 14.5947 211.044C14.5947 210.403 22.4353 209.884 32.1071 209.884C41.7789 209.884 49.6195 210.404 49.6195 211.044Z" fill="#18285D"/>
<path d="M51.9406 178.476C45.6386 176.816 36.0096 189.897 33.0854 202.65V184.069C34.5556 181.462 37.358 177.54 42.4465 173.396C50.3598 166.951 57.6443 158.68 51.331 157.018C45.4149 155.459 36.5664 166.893 33.0854 178.851V154.989C34.1051 153.407 35.7754 151.33 38.4455 149.155C43.4327 145.093 48.0234 139.881 44.0447 138.833C40.5917 137.923 35.5542 144.036 33.0854 150.929V143.196C33.4937 140.803 34.0703 137.386 35.653 133.893C39.321 125.799 41.3026 117.459 36.4664 118.08C31.6258 118.701 28.4872 133.117 31.1343 144.184V148.164C29.346 140.064 23.2117 131.677 19.2075 132.732C15.2288 133.78 19.8196 138.992 24.8068 143.054C28.6028 146.146 30.3793 149.04 31.1343 150.596V169.394C28.2666 156.576 18.5694 143.347 12.2338 145.016C5.92052 146.679 13.205 154.95 21.1183 161.395C27.0978 166.265 29.922 170.828 31.1343 173.311V195.852C28.069 183.269 18.6197 170.571 12.4053 172.208C6.09203 173.871 11.5061 179.916 20.3993 187.226C26.4429 192.195 29.6803 197.438 31.1343 200.288V210.906C31.8396 211.103 32.5001 211.102 33.0854 210.906V206.681C34.3226 204.179 37.1493 199.667 43.0567 194.857C50.9694 188.41 58.2538 180.139 51.9406 178.476Z" fill="#4F60D9"/>
</svg>
