<svg width="20" height="20" viewBox="0 0 20 20" fill="none" xmlns="http://www.w3.org/2000/svg">
<path d="M16.041 19.1998C14.9521 20.2553 13.7633 20.0886 12.6188 19.5886C11.4077 19.0775 10.2966 19.0553 9.01889 19.5886C7.41891 20.2775 6.57447 20.0775 5.61893 19.1998C0.196776 13.6109 0.996766 5.09994 7.15224 4.78883C8.65223 4.86661 9.69666 5.61104 10.5744 5.67771C11.8855 5.41104 13.1411 4.64439 14.541 4.74438C16.2188 4.87772 17.4854 5.54437 18.3188 6.74436C14.8521 8.82211 15.6744 13.3887 18.8521 14.6665C18.2188 16.3331 17.3966 17.9887 16.0299 19.2109L16.041 19.1998ZM10.4633 4.72216C10.2966 2.24442 12.3077 0.199997 14.6188 0C14.941 2.86663 12.0188 4.99994 10.4633 4.72216Z" fill="#48435C"/>
</svg>
