<svg width="24" height="24" viewBox="0 0 24 24" fill="none" xmlns="http://www.w3.org/2000/svg">
<path d="M11.5 21H6C5.46957 21 4.96086 20.7893 4.58579 20.4142C4.21071 20.0391 4 19.5304 4 19V7C4 6.46957 4.21071 5.96086 4.58579 5.58579C4.96086 5.21071 5.46957 5 6 5H18C18.5304 5 19.0391 5.21071 19.4142 5.58579C19.7893 5.96086 20 6.46957 20 7V11H4M16 3V7M8 3V7M18.0001 22L21.3501 18.716C21.5556 18.5166 21.719 18.2782 21.8307 18.0146C21.9425 17.7511 22.0003 17.4678 22.0007 17.1815C22.0012 16.8953 21.9443 16.6118 21.8334 16.3479C21.7225 16.084 21.5599 15.845 21.3551 15.645C20.9373 15.2363 20.3763 15.007 19.7918 15.0059C19.2074 15.0048 18.6455 15.2319 18.2261 15.639L18.0021 15.859L17.7791 15.639C17.3613 15.2306 16.8006 15.0015 16.2163 15.0004C15.6321 14.9992 15.0705 15.2262 14.6511 15.633C14.4456 15.8323 14.2821 16.0707 14.1703 16.3342C14.0585 16.5977 14.0006 16.881 14 17.1672C13.9994 17.4535 14.0562 17.7369 14.167 18.0009C14.2778 18.2648 14.4404 18.5039 14.6451 18.704L18.0001 22Z" stroke="black" stroke-width="2" stroke-linecap="round" stroke-linejoin="round"/>
</svg>
