<svg width="121" height="120" viewBox="0 0 121 120" fill="none" xmlns="http://www.w3.org/2000/svg">
<g clip-path="url(#clip0_3911_4025)">
<rect width="121" height="120" rx="60" fill="#F5F5F5"/>
<path d="M60 12C65.9334 12 71.7336 13.7448 76.6671 17.0138C81.6006 20.2828 85.4458 24.9291 87.7164 30.3652C89.987 35.8013 90.5811 41.783 89.4236 47.5539C88.266 53.3249 85.4088 58.6258 81.2132 62.7864C77.0176 66.947 71.6721 69.7805 65.8527 70.9284C60.0333 72.0763 54.0013 71.4871 48.5195 69.2354C43.0377 66.9837 38.3524 63.1706 35.0559 58.2782C31.7595 53.3858 30 47.634 30 41.75L30.03 40.4588C30.3655 32.7997 33.6696 25.5647 39.2533 20.2625C44.837 14.9604 52.2692 12.0004 60 12Z" fill="#9790CC"/>
<path d="M72 83.4C79.9565 83.4 87.5871 86.5344 93.2132 92.1136C98.8393 97.6928 102 105.26 102 113.15V119.1C102 122.256 100.736 125.283 98.4853 127.515C96.2348 129.746 93.1826 131 90 131H30C26.8174 131 23.7652 129.746 21.5147 127.515C19.2643 125.283 18 122.256 18 119.1V113.15C18 105.26 21.1607 97.6928 26.7868 92.1136C32.4129 86.5344 40.0435 83.4 48 83.4H72Z" fill="#9790CC"/>
<path d="M60 12C65.9334 12 71.7336 13.7448 76.6671 17.0138C81.6006 20.2828 85.4458 24.9291 87.7164 30.3652C89.987 35.8013 90.5811 41.783 89.4236 47.5539C88.266 53.3249 85.4088 58.6258 81.2132 62.7864C77.0176 66.947 71.6721 69.7805 65.8527 70.9284C60.0333 72.0763 54.0013 71.4871 48.5195 69.2354C43.0377 66.9837 38.3524 63.1706 35.0559 58.2782C31.7595 53.3858 30 47.634 30 41.75L30.03 40.4588C30.3655 32.7997 33.6696 25.5647 39.2533 20.2625C44.837 14.9604 52.2692 12.0004 60 12Z" stroke="#9790CC"/>
<path d="M72 83.4C79.9565 83.4 87.5871 86.5344 93.2132 92.1136C98.8393 97.6928 102 105.26 102 113.15V119.1C102 122.256 100.736 125.283 98.4853 127.515C96.2348 129.746 93.1826 131 90 131H30C26.8174 131 23.7652 129.746 21.5147 127.515C19.2643 125.283 18 122.256 18 119.1V113.15C18 105.26 21.1607 97.6928 26.7868 92.1136C32.4129 86.5344 40.0435 83.4 48 83.4H72Z" stroke="#9790CC"/>
</g>
<defs>
<clipPath id="clip0_3911_4025">
<rect width="121" height="120" rx="60" fill="white"/>
</clipPath>
</defs>
</svg>
