<svg width="8" height="8" viewBox="0 0 8 8" fill="none" xmlns="http://www.w3.org/2000/svg">
<path d="M4 6.67915e-09C4.78374 -4.52748e-05 5.55023 0.230152 6.20426 0.661999C6.85829 1.09385 7.37105 1.70832 7.67885 2.42909C7.98665 3.14986 8.07592 3.94517 7.93558 4.71625C7.79524 5.48732 7.43148 6.20018 6.88946 6.76629C6.34745 7.33239 5.65107 7.72679 4.88683 7.90051C4.12258 8.07422 3.32414 8.01959 2.59067 7.74341C1.8572 7.46723 1.22103 6.98166 0.761166 6.34701C0.301304 5.71236 0.0380145 4.9566 0.00400009 4.1736L0 4L0.00400009 3.8264C0.0487355 2.7966 0.489286 1.82382 1.23378 1.11093C1.97827 0.398033 2.96923 5.95607e-05 4 6.67915e-09Z" fill="#2F49ED"/>
</svg>
