<svg width="20" height="20" viewBox="0 0 20 20" fill="none" xmlns="http://www.w3.org/2000/svg">
<path d="M7.14202 8.57143C8.91722 8.57143 10.3563 7.13234 10.3563 5.35714C10.3563 3.58194 8.91722 2.14286 7.14202 2.14286C5.36682 2.14286 3.92773 3.58194 3.92773 5.35714C3.92773 7.13234 5.36682 8.57143 7.14202 8.57143Z" stroke="#1E1445" stroke-linecap="round" stroke-linejoin="round"/>
<path d="M13.571 19.2857H0.713867V17.8571C0.713867 16.1522 1.39116 14.517 2.59675 13.3115C3.80234 12.1059 5.43748 11.4286 7.14244 11.4286C8.8474 11.4286 10.4825 12.1059 11.6881 13.3115C12.8937 14.517 13.571 16.1522 13.571 17.8571V19.2857Z" stroke="#1E1445" stroke-linecap="round" stroke-linejoin="round"/>
<path d="M12.8564 2.14286C13.7089 2.14286 14.5265 2.4815 15.1293 3.0843C15.7321 3.68709 16.0707 4.50466 16.0707 5.35714C16.0707 6.20962 15.7321 7.02719 15.1293 7.62999C14.5265 8.23278 13.7089 8.57143 12.8564 8.57143" stroke="#1E1445" stroke-linecap="round" stroke-linejoin="round"/>
<path d="M15.1426 11.7C16.3595 12.1629 17.4071 12.9844 18.1469 14.0558C18.8867 15.1272 19.2837 16.398 19.2854 17.7V19.2857H17.1426" stroke="#1E1445" stroke-linecap="round" stroke-linejoin="round"/>
</svg>
