<svg width="25" height="25" viewBox="0 0 25 25" fill="none" xmlns="http://www.w3.org/2000/svg">
<g clip-path="url(#clip0_2803_19054)">
<path d="M5.91504 7.5C5.91504 8.56087 6.33647 9.57828 7.08661 10.3284C7.83676 11.0786 8.85417 11.5 9.91504 11.5C10.9759 11.5 11.9933 11.0786 12.7435 10.3284C13.4936 9.57828 13.915 8.56087 13.915 7.5C13.915 6.43913 13.4936 5.42172 12.7435 4.67157C11.9933 3.92143 10.9759 3.5 9.91504 3.5C8.85417 3.5 7.83676 3.92143 7.08661 4.67157C6.33647 5.42172 5.91504 6.43913 5.91504 7.5Z" stroke="#8839ED" stroke-width="2" stroke-linecap="round" stroke-linejoin="round"/>
<path d="M3.91602 21.5V19.5C3.91602 18.4391 4.33744 17.4217 5.08759 16.6716C5.83773 15.9214 6.85515 15.5 7.91602 15.5H11.916C12.9769 15.5 13.9943 15.9214 14.7444 16.6716C15.4946 17.4217 15.916 18.4391 15.916 19.5V21.5" stroke="#8839ED" stroke-width="2" stroke-linecap="round" stroke-linejoin="round"/>
<path d="M16.916 3.63C17.7764 3.85031 18.5391 4.35071 19.0837 5.05232C19.6283 5.75392 19.9239 6.61683 19.9239 7.505C19.9239 8.39318 19.6283 9.25608 19.0837 9.95769C18.5391 10.6593 17.7764 11.1597 16.916 11.38" stroke="#8839ED" stroke-width="2" stroke-linecap="round" stroke-linejoin="round"/>
<path d="M21.916 21.5V19.5C21.9109 18.6172 21.6139 17.7608 21.0713 17.0644C20.5286 16.368 19.7708 15.8707 18.916 15.65" stroke="#8839ED" stroke-width="2" stroke-linecap="round" stroke-linejoin="round"/>
</g>
<defs>
<clipPath id="clip0_2803_19054">
<rect width="24" height="24" fill="white" transform="translate(0.916016 0.5)"/>
</clipPath>
</defs>
</svg>
