<svg width="20" height="20" viewBox="0 0 20 20" fill="none" xmlns="http://www.w3.org/2000/svg">
<rect width="20" height="20" fill="white"/>
<path fill-rule="evenodd" clip-rule="evenodd" d="M19.2 10.2178C19.2 9.53825 19.139 8.88484 19.0258 8.25757H10V11.9646H15.1576C14.9354 13.1625 14.2602 14.1775 13.2453 14.857V17.2615H16.3424C18.1545 15.5932 19.2 13.1364 19.2 10.2178Z" fill="#4285F4"/>
<path fill-rule="evenodd" clip-rule="evenodd" d="M9.99956 19.5832C12.5871 19.5832 14.7564 18.725 16.342 17.2614L13.2448 14.8569C12.3867 15.4319 11.289 15.7716 9.99956 15.7716C7.50354 15.7716 5.39085 14.0858 4.63725 11.8207H1.43555V14.3036C3.01244 17.4356 6.25335 19.5832 9.99956 19.5832Z" fill="#34A853"/>
<path fill-rule="evenodd" clip-rule="evenodd" d="M4.63753 11.8208C4.44586 11.2458 4.33696 10.6316 4.33696 9.99995C4.33696 9.36833 4.44586 8.75412 4.63753 8.17912V5.69617H1.43582C0.786769 6.98992 0.416504 8.45355 0.416504 9.99995C0.416504 11.5464 0.786769 13.01 1.43582 14.3037L4.63753 11.8208Z" fill="#FBBC05"/>
<path fill-rule="evenodd" clip-rule="evenodd" d="M9.99956 4.22818C11.4066 4.22818 12.6698 4.7117 13.663 5.66132L16.4117 2.91265C14.752 1.36625 12.5827 0.416626 9.99956 0.416626C6.25335 0.416626 3.01244 2.56416 1.43555 5.69617L4.63725 8.17913C5.39085 5.91397 7.50354 4.22818 9.99956 4.22818Z" fill="#EA4335"/>
</svg>
