<svg width="20" height="21" viewBox="0 0 20 21" fill="none" xmlns="http://www.w3.org/2000/svg">
<g clip-path="url(#clip0_2803_18422)">
<path d="M3.33398 10.5C3.33398 10.721 3.42178 10.9329 3.57806 11.0892C3.73434 11.2455 3.9463 11.3333 4.16732 11.3333C4.38833 11.3333 4.60029 11.2455 4.75657 11.0892C4.91285 10.9329 5.00065 10.721 5.00065 10.5C5.00065 10.2789 4.91285 10.067 4.75657 9.9107C4.60029 9.75442 4.38833 9.66663 4.16732 9.66663C3.9463 9.66663 3.73434 9.75442 3.57806 9.9107C3.42178 10.067 3.33398 10.2789 3.33398 10.5Z" stroke="#1E1445" stroke-width="1.66667" stroke-linecap="round" stroke-linejoin="round"/>
<path d="M9.16797 10.5C9.16797 10.721 9.25577 10.9329 9.41205 11.0892C9.56833 11.2455 9.78029 11.3333 10.0013 11.3333C10.2223 11.3333 10.4343 11.2455 10.5906 11.0892C10.7468 10.9329 10.8346 10.721 10.8346 10.5C10.8346 10.2789 10.7468 10.067 10.5906 9.9107C10.4343 9.75442 10.2223 9.66663 10.0013 9.66663C9.78029 9.66663 9.56833 9.75442 9.41205 9.9107C9.25577 10.067 9.16797 10.2789 9.16797 10.5Z" stroke="#1E1445" stroke-width="1.66667" stroke-linecap="round" stroke-linejoin="round"/>
<path d="M15 10.5C15 10.721 15.0878 10.9329 15.2441 11.0892C15.4004 11.2455 15.6123 11.3333 15.8333 11.3333C16.0543 11.3333 16.2663 11.2455 16.4226 11.0892C16.5789 10.9329 16.6667 10.721 16.6667 10.5C16.6667 10.2789 16.5789 10.067 16.4226 9.9107C16.2663 9.75442 16.0543 9.66663 15.8333 9.66663C15.6123 9.66663 15.4004 9.75442 15.2441 9.9107C15.0878 10.067 15 10.2789 15 10.5Z" stroke="#1E1445" stroke-width="1.66667" stroke-linecap="round" stroke-linejoin="round"/>
</g>
<defs>
<clipPath id="clip0_2803_18422">
<rect width="20" height="20" fill="white" transform="translate(0 0.5)"/>
</clipPath>
</defs>
</svg>
