<svg width="24" height="24" viewBox="0 0 24 24" fill="none" xmlns="http://www.w3.org/2000/svg">
<path d="M9.73128 17.7531L4.50128 12.5721C4.00658 12.0907 3.61692 11.5121 3.35683 10.8727C3.09673 10.2333 2.97184 9.54701 2.99002 8.85699C3.00819 8.16697 3.16904 7.48819 3.46244 6.86339C3.75583 6.23859 4.17541 5.68131 4.69476 5.22663C5.21411 4.77196 5.82198 4.42974 6.48009 4.22154C7.1382 4.01333 7.83228 3.94364 8.51865 4.01686C9.20501 4.09007 9.86878 4.30461 10.4682 4.64696C11.0675 4.98931 11.5895 5.45205 12.0013 6.00605C12.7397 5.02392 13.814 4.3481 15.019 4.10758C16.224 3.86706 17.4753 4.07868 18.5342 4.70205C19.5932 5.32543 20.3854 6.3169 20.7599 7.48723C21.1343 8.65756 21.0647 9.92479 20.5643 11.0471M17.7983 20.817L15.6263 21.955C15.5618 21.9885 15.4893 22.0035 15.4168 21.9982C15.3444 21.9929 15.2748 21.9676 15.2159 21.9251C15.157 21.8826 15.111 21.8245 15.0832 21.7574C15.0554 21.6903 15.0467 21.6167 15.0583 21.545L15.4733 19.134L13.7163 17.427C13.6638 17.3763 13.6267 17.3119 13.6091 17.2411C13.5915 17.1703 13.5942 17.096 13.6168 17.0266C13.6395 16.9573 13.6811 16.8957 13.7371 16.8489C13.7931 16.8021 13.861 16.772 13.9333 16.762L16.3613 16.41L17.4473 14.217C17.4798 14.1517 17.5298 14.0967 17.5918 14.0583C17.6538 14.0199 17.7253 13.9995 17.7983 13.9995C17.8712 13.9995 17.9427 14.0199 18.0047 14.0583C18.0667 14.0967 18.1168 14.1517 18.1493 14.217L19.2353 16.41L21.6633 16.762C21.7353 16.7723 21.803 16.8027 21.8587 16.8495C21.9144 16.8963 21.9559 16.9578 21.9785 17.027C22.0011 17.0962 22.0039 17.1703 21.9865 17.241C21.9691 17.3117 21.9323 17.3761 21.8803 17.427L20.1233 19.134L20.5373 21.544C20.5497 21.6158 20.5417 21.6898 20.5143 21.7573C20.4868 21.8249 20.4409 21.8834 20.3819 21.9262C20.3228 21.969 20.253 21.9944 20.1802 21.9995C20.1074 22.0046 20.0347 21.9891 19.9703 21.955L17.7983 20.817Z" stroke="black" stroke-width="2" stroke-linecap="round" stroke-linejoin="round"/>
</svg>
