<svg width="25" height="25" viewBox="0 0 25 25" fill="none" xmlns="http://www.w3.org/2000/svg">
<path d="M15.083 8.5H17.083M15.083 12.5H17.083M7.08301 16.5H17.083M3.08301 7.5C3.08301 6.70435 3.39908 5.94129 3.96169 5.37868C4.5243 4.81607 5.28736 4.5 6.08301 4.5H18.083C18.8787 4.5 19.6417 4.81607 20.2043 5.37868C20.7669 5.94129 21.083 6.70435 21.083 7.5V17.5C21.083 18.2956 20.7669 19.0587 20.2043 19.6213C19.6417 20.1839 18.8787 20.5 18.083 20.5H6.08301C5.28736 20.5 4.5243 20.1839 3.96169 19.6213C3.39908 19.0587 3.08301 18.2956 3.08301 17.5V7.5ZM7.08301 10.5C7.08301 11.0304 7.29372 11.5391 7.66879 11.9142C8.04387 12.2893 8.55257 12.5 9.08301 12.5C9.61344 12.5 10.1221 12.2893 10.4972 11.9142C10.8723 11.5391 11.083 11.0304 11.083 10.5C11.083 9.96957 10.8723 9.46086 10.4972 9.08579C10.1221 8.71071 9.61344 8.5 9.08301 8.5C8.55257 8.5 8.04387 8.71071 7.66879 9.08579C7.29372 9.46086 7.08301 9.96957 7.08301 10.5Z" stroke="#8839ED" stroke-width="2" stroke-linecap="round" stroke-linejoin="round"/>
</svg>
