<svg width="25" height="25" viewBox="0 0 25 25" fill="none" xmlns="http://www.w3.org/2000/svg">
<path d="M15.0833 8.5H17.0833M15.0833 12.5H17.0833M7.08335 16.5H17.0833M3.08335 7.5C3.08335 6.70435 3.39942 5.94129 3.96203 5.37868C4.52464 4.81607 5.2877 4.5 6.08335 4.5H18.0833C18.879 4.5 19.6421 4.81607 20.2047 5.37868C20.7673 5.94129 21.0833 6.70435 21.0833 7.5V17.5C21.0833 18.2956 20.7673 19.0587 20.2047 19.6213C19.6421 20.1839 18.879 20.5 18.0833 20.5H6.08335C5.2877 20.5 4.52464 20.1839 3.96203 19.6213C3.39942 19.0587 3.08335 18.2956 3.08335 17.5V7.5ZM7.08335 10.5C7.08335 11.0304 7.29406 11.5391 7.66914 11.9142C8.04421 12.2893 8.55292 12.5 9.08335 12.5C9.61378 12.5 10.1225 12.2893 10.4976 11.9142C10.8726 11.5391 11.0833 11.0304 11.0833 10.5C11.0833 9.96957 10.8726 9.46086 10.4976 9.08579C10.1225 8.71071 9.61378 8.5 9.08335 8.5C8.55292 8.5 8.04421 8.71071 7.66914 9.08579C7.29406 9.46086 7.08335 9.96957 7.08335 10.5Z" stroke="#9B92BF" stroke-width="2" stroke-linecap="round" stroke-linejoin="round"/>
</svg>
