<svg width="20" height="20" viewBox="0 0 20 20" fill="none" xmlns="http://www.w3.org/2000/svg">
<path d="M15.7146 7.85713H4.28599C3.49702 7.85713 2.85742 8.49673 2.85742 9.2857V17.8571C2.85742 18.6461 3.49702 19.2857 4.28599 19.2857H15.7146C16.5035 19.2857 17.1431 18.6461 17.1431 17.8571V9.2857C17.1431 8.49673 16.5035 7.85713 15.7146 7.85713Z" stroke="#1E1445" stroke-linecap="round" stroke-linejoin="round"/>
<path d="M15 7.85714V5.71428C15 4.3882 14.4732 3.11643 13.5355 2.17875C12.5979 1.24106 11.3261 0.714279 10 0.714279C8.67392 0.714279 7.40215 1.24106 6.46447 2.17875C5.52678 3.11643 5 4.3882 5 5.71428V7.85714" stroke="#1E1445" stroke-linecap="round" stroke-linejoin="round"/>
<path d="M10.0004 14.2857C10.3949 14.2857 10.7147 13.9659 10.7147 13.5714C10.7147 13.1769 10.3949 12.8571 10.0004 12.8571C9.60593 12.8571 9.28613 13.1769 9.28613 13.5714C9.28613 13.9659 9.60593 14.2857 10.0004 14.2857Z" stroke="#1E1445" stroke-linecap="round" stroke-linejoin="round"/>
</svg>
