<svg width="20" height="21" viewBox="0 0 20 21" fill="none" xmlns="http://www.w3.org/2000/svg">
<g clip-path="url(#clip0_2803_19342)">
<path d="M6.66602 6.33333C6.66602 7.21739 7.0172 8.06523 7.64233 8.69036C8.26745 9.31548 9.11529 9.66667 9.99935 9.66667C10.8834 9.66667 11.7313 9.31548 12.3564 8.69036C12.9815 8.06523 13.3327 7.21739 13.3327 6.33333C13.3327 5.44928 12.9815 4.60143 12.3564 3.97631C11.7313 3.35119 10.8834 3 9.99935 3C9.11529 3 8.26745 3.35119 7.64233 3.97631C7.0172 4.60143 6.66602 5.44928 6.66602 6.33333Z" stroke="#A9A0CC" stroke-width="1.66667" stroke-linecap="round" stroke-linejoin="round"/>
<path d="M5 18V16.3333C5 15.4493 5.35119 14.6014 5.97631 13.9763C6.60143 13.3512 7.44928 13 8.33333 13H11.25" stroke="#A9A0CC" stroke-width="1.66667" stroke-linecap="round" stroke-linejoin="round"/>
<path d="M13.334 16.3334C13.334 16.9964 13.5974 17.6323 14.0662 18.1011C14.5351 18.57 15.1709 18.8334 15.834 18.8334C16.497 18.8334 17.1329 18.57 17.6018 18.1011C18.0706 17.6323 18.334 16.9964 18.334 16.3334C18.334 15.6703 18.0706 15.0344 17.6018 14.5656C17.1329 14.0968 16.497 13.8334 15.834 13.8334C15.1709 13.8334 14.5351 14.0968 14.0662 14.5656C13.5974 15.0344 13.334 15.6703 13.334 16.3334Z" stroke="#A9A0CC" stroke-width="1.5" stroke-linecap="round" stroke-linejoin="round"/>
<path d="M15.834 15.7084V16.6459L16.1465 16.9584" stroke="#A9A0CC" stroke-width="1.25" stroke-linecap="round" stroke-linejoin="round"/>
</g>
<defs>
<clipPath id="clip0_2803_19342">
<rect width="20" height="20" fill="white" transform="translate(0 0.5)"/>
</clipPath>
</defs>
</svg>
