<svg width="14" height="15" viewBox="0 0 14 15" fill="none" xmlns="http://www.w3.org/2000/svg">
<path d="M14 7.5C14 11.3659 10.8659 14.5 7 14.5C3.13406 14.5 0 11.3659 0 7.5C0 3.63406 3.13406 0.5 7 0.5C10.8659 0.5 14 3.63406 14 7.5Z" fill="#FFCC4D"/>
<path d="M8.55477 11C8.55477 12.0745 7.85827 12.1666 6.99922 12.1666C6.13977 12.1666 5.44366 12.0745 5.44366 11C5.44366 9.92624 6.13977 8.66663 6.99922 8.66663C7.85827 8.66663 8.55477 9.92624 8.55477 11ZM11.6659 6.3333C11.6177 6.3333 11.5687 6.32435 11.5216 6.3053C9.48811 5.49213 8.65472 4.26713 8.62011 4.21541C8.50072 4.03652 8.54894 3.79502 8.72783 3.67602C8.90633 3.55702 9.14666 3.60446 9.26644 3.78258C9.27383 3.79308 10.017 4.86563 11.8102 5.58274C12.0097 5.66285 12.1069 5.8888 12.0272 6.0883C11.9661 6.24074 11.8199 6.3333 11.6659 6.3333ZM2.33255 6.3333C2.17816 6.3333 2.03233 6.24074 1.97127 6.08869C1.89155 5.88919 1.98839 5.66285 2.18789 5.58313C3.98144 4.86602 4.72461 3.79346 4.732 3.78296C4.85177 3.60563 5.09327 3.55858 5.27139 3.67796C5.44911 3.79774 5.49733 4.03769 5.37833 4.2158C5.34372 4.26752 4.51033 5.49252 2.47722 6.30569C2.42977 6.32435 2.38077 6.3333 2.33255 6.3333Z" fill="#664500"/>
<path d="M9.33355 6.72229H10.8891V14.1112L9.33355 14.0933V6.72229ZM3.11133 14.1112L4.66688 14.0933V6.72229H3.11133V14.1112Z" fill="#5DADEC"/>
<path d="M5.83256 7.49991C5.77422 7.49991 5.71473 7.48669 5.65911 7.45908C4.29334 6.77619 2.90967 7.45208 2.89606 7.45908C2.70356 7.55591 2.47022 7.47697 2.37417 7.28525C2.27811 7.09314 2.35589 6.85941 2.548 6.76336C2.61878 6.72836 4.29723 5.90897 6.00717 6.76336C6.19928 6.85941 6.27706 7.09314 6.181 7.28525C6.11256 7.42136 5.97528 7.49991 5.83256 7.49991ZM11.277 7.49991C11.2187 7.49991 11.1592 7.48669 11.1036 7.45908C9.73739 6.77619 8.35411 7.45208 8.3405 7.45908C8.14839 7.55553 7.91506 7.47736 7.81861 7.28525C7.72256 7.09314 7.80034 6.85941 7.99245 6.76336C8.06323 6.72836 9.74284 5.90936 11.4516 6.76336C11.6437 6.85941 11.7215 7.09314 11.6254 7.28525C11.557 7.42136 11.4197 7.49991 11.277 7.49991Z" fill="#664500"/>
<path d="M7 14.5C10.866 14.5 14 14.1518 14 13.7222C14 13.2927 10.866 12.9445 7 12.9445C3.13401 12.9445 0 13.2927 0 13.7222C0 14.1518 3.13401 14.5 7 14.5Z" fill="#5DADEC"/>
<path d="M6.99967 11.7778C7.64401 11.7778 8.16634 11.4296 8.16634 11.0001C8.16634 10.5705 7.64401 10.2223 6.99967 10.2223C6.35534 10.2223 5.83301 10.5705 5.83301 11.0001C5.83301 11.4296 6.35534 11.7778 6.99967 11.7778Z" fill="#E75A70"/>
</svg>
