<svg width="20" height="20" viewBox="0 0 20 20" fill="none" xmlns="http://www.w3.org/2000/svg">
<g clip-path="url(#clip0_2803_19252)">
<path d="M2.5 8.33346C2.5 9.0995 2.65088 9.85804 2.94404 10.5658C3.23719 11.2735 3.66687 11.9166 4.20854 12.4582C4.75022 12.9999 5.39328 13.4296 6.10101 13.7228C6.80875 14.0159 7.56729 14.1668 8.33333 14.1668C9.09938 14.1668 9.85792 14.0159 10.5657 13.7228C11.2734 13.4296 11.9164 12.9999 12.4581 12.4582C12.9998 11.9166 13.4295 11.2735 13.7226 10.5658C14.0158 9.85804 14.1667 9.0995 14.1667 8.33346C14.1667 7.56741 14.0158 6.80887 13.7226 6.10114C13.4295 5.3934 12.9998 4.75034 12.4581 4.20867C11.9164 3.66699 11.2734 3.23731 10.5657 2.94416C9.85792 2.65101 9.09938 2.50012 8.33333 2.50012C7.56729 2.50012 6.80875 2.65101 6.10101 2.94416C5.39328 3.23731 4.75022 3.66699 4.20854 4.20867C3.66687 4.75034 3.23719 5.3934 2.94404 6.10114C2.65088 6.80887 2.5 7.56741 2.5 8.33346Z" stroke="#1E1445" stroke-width="1.66667" stroke-linecap="round" stroke-linejoin="round"/>
<path d="M17.5 17.5001L12.5 12.5001" stroke="#1E1445" stroke-width="1.66667" stroke-linecap="round" stroke-linejoin="round"/>
</g>
<defs>
<clipPath id="clip0_2803_19252">
<rect width="20" height="20" fill="white"/>
</clipPath>
</defs>
</svg>
