<svg width="25" height="25" viewBox="0 0 25 25" fill="none" xmlns="http://www.w3.org/2000/svg">
<g clip-path="url(#clip0_2806_49863)">
<path d="M10.7417 4.817C11.1677 3.061 13.6657 3.061 14.0917 4.817C14.1556 5.0808 14.2809 5.32578 14.4574 5.532C14.6339 5.73822 14.8566 5.89985 15.1073 6.00375C15.3581 6.10764 15.6298 6.15085 15.9005 6.12987C16.1711 6.10889 16.4329 6.0243 16.6647 5.883C18.2077 4.943 19.9747 6.709 19.0347 8.253C18.8936 8.48466 18.8091 8.74634 18.7882 9.01677C18.7673 9.28721 18.8104 9.55877 18.9142 9.80938C19.018 10.06 19.1794 10.2826 19.3854 10.4591C19.5914 10.6355 19.8361 10.7609 20.0997 10.825C21.8557 11.251 21.8557 13.749 20.0997 14.175C19.8359 14.2389 19.5909 14.3642 19.3847 14.5407C19.1785 14.7172 19.0168 14.9399 18.9129 15.1907C18.809 15.4414 18.7658 15.7132 18.7868 15.9838C18.8078 16.2544 18.8924 16.5162 19.0337 16.748C19.9737 18.291 18.2077 20.058 16.6637 19.118C16.432 18.9769 16.1703 18.8924 15.8999 18.8715C15.6295 18.8506 15.3579 18.8938 15.1073 18.9975C14.8567 19.1013 14.6341 19.2627 14.4576 19.4687C14.2811 19.6747 14.1558 19.9194 14.0917 20.183C13.6657 21.939 11.1677 21.939 10.7417 20.183C10.6778 19.9192 10.5525 19.6742 10.376 19.468C10.1995 19.2618 9.97678 19.1001 9.72602 18.9963C9.47526 18.8924 9.20351 18.8491 8.93289 18.8701C8.66227 18.8911 8.40042 18.9757 8.16867 19.117C6.62567 20.057 4.85867 18.291 5.79867 16.747C5.93977 16.5153 6.02422 16.2537 6.04516 15.9832C6.06609 15.7128 6.02292 15.4412 5.91914 15.1906C5.81537 14.94 5.65393 14.7174 5.44794 14.5409C5.24196 14.3645 4.99724 14.2391 4.73367 14.175C2.97767 13.749 2.97767 11.251 4.73367 10.825C4.99747 10.7611 5.24245 10.6358 5.44867 10.4593C5.65489 10.2828 5.81653 10.0601 5.92042 9.80935C6.02431 9.55859 6.06752 9.28683 6.04654 9.01621C6.02556 8.74559 5.94097 8.48375 5.79967 8.252C4.85967 6.709 6.62567 4.942 8.16967 5.882C9.16967 6.49 10.4657 5.952 10.7417 4.817Z" stroke="#9B92BF" stroke-width="2" stroke-linecap="round" stroke-linejoin="round"/>
<path d="M9.41667 12.5C9.41667 13.2956 9.73274 14.0587 10.2954 14.6213C10.858 15.1839 11.621 15.5 12.4167 15.5C13.2123 15.5 13.9754 15.1839 14.538 14.6213C15.1006 14.0587 15.4167 13.2956 15.4167 12.5C15.4167 11.7044 15.1006 10.9413 14.538 10.3787C13.9754 9.81607 13.2123 9.5 12.4167 9.5C11.621 9.5 10.858 9.81607 10.2954 10.3787C9.73274 10.9413 9.41667 11.7044 9.41667 12.5Z" stroke="#9B92BF" stroke-width="2" stroke-linecap="round" stroke-linejoin="round"/>
</g>
<defs>
<clipPath id="clip0_2806_49863">
<rect width="24" height="24" fill="white" transform="translate(0.416672 0.5)"/>
</clipPath>
</defs>
</svg>
