<svg width="25" height="25" viewBox="0 0 25 25" fill="none" xmlns="http://www.w3.org/2000/svg">
<g clip-path="url(#clip0_2803_21902)">
<path d="M10.741 4.817C11.167 3.061 13.665 3.061 14.091 4.817C14.1549 5.0808 14.2802 5.32578 14.4567 5.532C14.6332 5.73822 14.8559 5.89985 15.1067 6.00375C15.3574 6.10764 15.6292 6.15085 15.8998 6.12987C16.1704 6.10889 16.4323 6.0243 16.664 5.883C18.207 4.943 19.974 6.709 19.034 8.253C18.8929 8.48466 18.8085 8.74634 18.7875 9.01677C18.7666 9.28721 18.8098 9.55877 18.9135 9.80938C19.0173 10.06 19.1788 10.2826 19.3847 10.4591C19.5907 10.6355 19.8355 10.7609 20.099 10.825C21.855 11.251 21.855 13.749 20.099 14.175C19.8352 14.2389 19.5902 14.3642 19.384 14.5407C19.1778 14.7172 19.0162 14.9399 18.9123 15.1907C18.8084 15.4414 18.7652 15.7132 18.7861 15.9838C18.8071 16.2544 18.8917 16.5162 19.033 16.748C19.973 18.291 18.207 20.058 16.663 19.118C16.4314 18.9769 16.1697 18.8924 15.8992 18.8715C15.6288 18.8506 15.3572 18.8938 15.1066 18.9975C14.856 19.1013 14.6334 19.2627 14.457 19.4687C14.2805 19.6747 14.1551 19.9194 14.091 20.183C13.665 21.939 11.167 21.939 10.741 20.183C10.6771 19.9192 10.5518 19.6742 10.3753 19.468C10.1988 19.2618 9.97613 19.1001 9.72536 18.9963C9.4746 18.8924 9.20285 18.8491 8.93223 18.8701C8.66161 18.8911 8.39977 18.9757 8.16802 19.117C6.62502 20.057 4.85802 18.291 5.79802 16.747C5.93912 16.5153 6.02357 16.2537 6.0445 15.9832C6.06543 15.7128 6.02226 15.4412 5.91849 15.1906C5.81472 14.94 5.65328 14.7174 5.44729 14.5409C5.2413 14.3645 4.99658 14.2391 4.73302 14.175C2.97702 13.749 2.97702 11.251 4.73302 10.825C4.99681 10.7611 5.24179 10.6358 5.44802 10.4593C5.65424 10.2828 5.81587 10.0601 5.91976 9.80935C6.02365 9.55859 6.06687 9.28683 6.04588 9.01621C6.0249 8.74559 5.94032 8.48375 5.79902 8.252C4.85902 6.709 6.62502 4.942 8.16902 5.882C9.16902 6.49 10.465 5.952 10.741 4.817Z" stroke="#8839ED" stroke-width="2" stroke-linecap="round" stroke-linejoin="round"/>
<path d="M9.41602 12.5C9.41602 13.2956 9.73209 14.0587 10.2947 14.6213C10.8573 15.1839 11.6204 15.5 12.416 15.5C13.2117 15.5 13.9747 15.1839 14.5373 14.6213C15.0999 14.0587 15.416 13.2956 15.416 12.5C15.416 11.7044 15.0999 10.9413 14.5373 10.3787C13.9747 9.81607 13.2117 9.5 12.416 9.5C11.6204 9.5 10.8573 9.81607 10.2947 10.3787C9.73209 10.9413 9.41602 11.7044 9.41602 12.5Z" stroke="#8839ED" stroke-width="2" stroke-linecap="round" stroke-linejoin="round"/>
</g>
<defs>
<clipPath id="clip0_2803_21902">
<rect width="24" height="24" fill="white" transform="translate(0.416016 0.5)"/>
</clipPath>
</defs>
</svg>
