<svg width="36" height="36" viewBox="0 0 36 36" fill="none" xmlns="http://www.w3.org/2000/svg">
<rect width="36" height="36" rx="18" fill="white"/>
<rect width="36" height="36" rx="18" fill="#1F1545"/>
<g clip-path="url(#clip0_4010_4471)">
<path d="M14.666 18.8335V18.8418" stroke="white" stroke-width="1.66667" stroke-linecap="round" stroke-linejoin="round"/>
<path d="M18 22.1667V22.1751" stroke="white" stroke-width="1.66667" stroke-linecap="round" stroke-linejoin="round"/>
<path d="M18 18V18.0083" stroke="white" stroke-width="1.66667" stroke-linecap="round" stroke-linejoin="round"/>
<path d="M21.332 19.6667V19.6751" stroke="white" stroke-width="1.66667" stroke-linecap="round" stroke-linejoin="round"/>
<path d="M17.166 14.6667V14.6751" stroke="white" stroke-width="1.66667" stroke-linecap="round" stroke-linejoin="round"/>
<path d="M18.9573 10.8966L21.1798 11.8166C20.7393 12.3961 20.5007 13.1039 20.5003 13.8318C20.4998 14.5597 20.7377 15.2677 21.1776 15.8477C21.6174 16.4278 22.235 16.8479 22.936 17.0439C23.637 17.2399 24.3829 17.201 25.0598 16.9332L25.104 17.0432C25.3577 17.6558 25.3577 18.344 25.104 18.9566C24.6901 19.6121 24.4056 20.1266 24.2506 20.4999C24.0934 20.8799 23.9101 21.4955 23.7006 22.3466C23.4467 22.959 22.9599 23.4455 22.3473 23.6991C21.474 23.918 20.8584 24.1016 20.5006 24.2499C20.1051 24.4138 19.5906 24.6982 18.9573 25.1032C18.3448 25.357 17.6565 25.357 17.044 25.1032C16.3756 24.6844 15.8612 24.3999 15.5006 24.2499C15.1079 24.0877 14.4923 23.9044 13.654 23.6999C13.0415 23.446 12.555 22.9592 12.3015 22.3466C12.0809 21.4705 11.8973 20.8549 11.7506 20.4999C11.5851 20.101 11.3006 19.5866 10.8973 18.9566C10.6436 18.344 10.6436 17.6558 10.8973 17.0432C11.2968 16.4232 11.5812 15.9088 11.7506 15.4999C11.8934 15.1555 12.0768 14.5399 12.3006 13.6532C12.5546 13.0408 13.0414 12.5543 13.654 12.3007C14.5134 12.0874 15.129 11.9038 15.5006 11.7499C15.8823 11.5916 16.3968 11.3071 17.044 10.8966C17.6565 10.6429 18.3448 10.6429 18.9573 10.8966Z" stroke="white" stroke-width="1.66667" stroke-linecap="round" stroke-linejoin="round"/>
</g>
<defs>
<clipPath id="clip0_4010_4471">
<rect width="20" height="20" fill="white" transform="translate(8 8)"/>
</clipPath>
</defs>
</svg>
