<svg width="36" height="36" viewBox="0 0 36 36" fill="none" xmlns="http://www.w3.org/2000/svg">
<rect width="36" height="36" rx="18" fill="white"/>
<rect width="36" height="36" rx="18" fill="#1F1545"/>
<g clip-path="url(#clip0_4010_4208)">
<path d="M17.9982 10.5001C18.1082 10.5001 18.2174 10.5001 18.3257 10.5001C17.2551 11.4948 16.567 12.8333 16.3809 14.2828C16.1948 15.7322 16.5226 17.2011 17.3071 18.434C18.0917 19.6669 19.2835 20.5859 20.6754 21.0313C22.0672 21.4767 23.5711 21.4202 24.9257 20.8717C24.4046 22.1255 23.553 23.2143 22.4617 24.022C21.3703 24.8296 20.0802 25.3259 18.7289 25.4579C17.3777 25.5899 16.0159 25.3525 14.7889 24.7712C13.562 24.1899 12.5158 23.2865 11.762 22.1572C11.0082 21.028 10.5751 19.7153 10.5089 18.3592C10.4427 17.0031 10.7458 15.6545 11.386 14.4572C12.0262 13.2599 12.9793 12.2588 14.1438 11.5607C15.3083 10.8626 16.6405 10.4937 17.9982 10.4934V10.5001Z" stroke="white" stroke-width="1.66667" stroke-linecap="round" stroke-linejoin="round"/>
</g>
<defs>
<clipPath id="clip0_4010_4208">
<rect width="20" height="20" fill="white" transform="translate(8 8)"/>
</clipPath>
</defs>
</svg>
