<svg width="36" height="36" viewBox="0 0 36 36" fill="none" xmlns="http://www.w3.org/2000/svg">
<rect width="36" height="36" rx="18" fill="white"/>
<rect width="36" height="36" rx="18" fill="#1F1545"/>
<g clip-path="url(#clip0_4010_4295)">
<path d="M15.5 17.1666C15.5 17.8297 15.7634 18.4656 16.2322 18.9344C16.7011 19.4032 17.337 19.6666 18 19.6666C18.663 19.6666 19.2989 19.4032 19.7678 18.9344C20.2366 18.4656 20.5 17.8297 20.5 17.1666C20.5 16.5036 20.2366 15.8677 19.7678 15.3989C19.2989 14.93 18.663 14.6666 18 14.6666C17.337 14.6666 16.7011 14.93 16.2322 15.3989C15.7634 15.8677 15.5 16.5036 15.5 17.1666Z" stroke="white" stroke-width="1.66667" stroke-linecap="round" stroke-linejoin="round"/>
<path d="M22.7129 21.8808L19.177 25.4167C18.8645 25.7289 18.4409 25.9042 17.9991 25.9042C17.5574 25.9042 17.1337 25.7289 16.8212 25.4167L13.2845 21.8808C12.3522 20.9485 11.7173 19.7606 11.4601 18.4674C11.2029 17.1742 11.3349 15.8338 11.8395 14.6156C12.3441 13.3975 13.1986 12.3563 14.2949 11.6238C15.3913 10.8912 16.6802 10.5002 17.9987 10.5002C19.3172 10.5002 20.6061 10.8912 21.7025 11.6238C22.7988 12.3563 23.6533 13.3975 24.1579 14.6156C24.6625 15.8338 24.7945 17.1742 24.5373 18.4674C24.2801 19.7606 23.6452 20.9485 22.7129 21.8808Z" stroke="white" stroke-width="1.66667" stroke-linecap="round" stroke-linejoin="round"/>
</g>
<defs>
<clipPath id="clip0_4010_4295">
<rect width="20" height="20" fill="white" transform="translate(8 8)"/>
</clipPath>
</defs>
</svg>
