<svg width="36" height="36" viewBox="0 0 36 36" fill="none" xmlns="http://www.w3.org/2000/svg">
<rect width="36" height="36" rx="18" fill="white"/>
<rect width="36" height="36" rx="18" fill="#1F1545"/>
<g clip-path="url(#clip0_4010_4185)">
<path d="M16.332 12.1667C16.332 11.7246 16.5076 11.3007 16.8202 10.9882C17.1327 10.6756 17.5567 10.5 17.9987 10.5C18.4407 10.5 18.8646 10.6756 19.1772 10.9882C19.4898 11.3007 19.6654 11.7246 19.6654 12.1667C20.6224 12.6192 21.4382 13.3236 22.0254 14.2044C22.6126 15.0852 22.9491 16.1092 22.9987 17.1667V19.6667C23.0614 20.1848 23.2449 20.6809 23.5344 21.1151C23.8239 21.5493 24.2112 21.9095 24.6654 22.1667H11.332C11.7861 21.9095 12.1735 21.5493 12.463 21.1151C12.7525 20.6809 12.936 20.1848 12.9987 19.6667V17.1667C13.0483 16.1092 13.3848 15.0852 13.972 14.2044C14.5592 13.3236 15.375 12.6192 16.332 12.1667Z" stroke="white" stroke-width="1.66667" stroke-linecap="round" stroke-linejoin="round"/>
<path d="M15.5 22.1666V23C15.5 23.663 15.7634 24.2989 16.2322 24.7677C16.7011 25.2366 17.337 25.5 18 25.5C18.663 25.5 19.2989 25.2366 19.7678 24.7677C20.2366 24.2989 20.5 23.663 20.5 23V22.1666" stroke="white" stroke-width="1.66667" stroke-linecap="round" stroke-linejoin="round"/>
</g>
<defs>
<clipPath id="clip0_4010_4185">
<rect width="20" height="20" fill="white" transform="translate(8 8)"/>
</clipPath>
</defs>
</svg>
