<svg width="36" height="36" viewBox="0 0 36 36" fill="none" xmlns="http://www.w3.org/2000/svg">
<rect width="36" height="36" rx="18" fill="white"/>
<rect width="36" height="36" rx="18" fill="#1F1545"/>
<g clip-path="url(#clip0_4010_4248)">
<path d="M14.6602 13.8333C14.6602 14.7174 15.0113 15.5652 15.6365 16.1904C16.2616 16.8155 17.1094 17.1667 17.9935 17.1667C18.8775 17.1667 19.7254 16.8155 20.3505 16.1904C20.9756 15.5652 21.3268 14.7174 21.3268 13.8333C21.3268 12.9493 20.9756 12.1014 20.3505 11.4763C19.7254 10.8512 18.8775 10.5 17.9935 10.5C17.1094 10.5 16.2616 10.8512 15.6365 11.4763C15.0113 12.1014 14.6602 12.9493 14.6602 13.8333Z" stroke="white" stroke-width="1.66667" stroke-linecap="round" stroke-linejoin="round"/>
<path d="M13 25.5V23.8333C13 22.9493 13.3512 22.1014 13.9763 21.4763C14.6014 20.8512 15.4493 20.5 16.3333 20.5H19.6667C20.5507 20.5 21.3986 20.8512 22.0237 21.4763C22.6488 22.1014 23 22.9493 23 23.8333V25.5" stroke="white" stroke-width="1.66667" stroke-linecap="round" stroke-linejoin="round"/>
</g>
<defs>
<clipPath id="clip0_4010_4248">
<rect width="20" height="20" fill="white" transform="translate(8 8)"/>
</clipPath>
</defs>
</svg>
