<svg width="36" height="36" viewBox="0 0 36 36" fill="none" xmlns="http://www.w3.org/2000/svg">
<rect width="36" height="36" rx="18" fill="white"/>
<rect width="36" height="36" rx="18" fill="#1F1545"/>
<g clip-path="url(#clip0_4010_4217)">
<path d="M13.8333 14.6666H11.3333C11.1123 14.6666 10.9004 14.7544 10.7441 14.9107C10.5878 15.067 10.5 15.2789 10.5 15.5V17.1666C10.5 17.3876 10.5878 17.5996 10.7441 17.7559C10.9004 17.9122 11.1123 18 11.3333 18H13C13.221 18 13.433 18.0878 13.5893 18.244C13.7455 18.4003 13.8333 18.6123 13.8333 18.8333V20.5C13.8333 20.721 13.7455 20.9329 13.5893 21.0892C13.433 21.2455 13.221 21.3333 13 21.3333H10.5" stroke="white" stroke-width="1.66667" stroke-linecap="round" stroke-linejoin="round"/>
<path d="M16.332 14.6666H19.6654V21.3333H16.332V14.6666Z" stroke="white" stroke-width="1.66667" stroke-linecap="round" stroke-linejoin="round"/>
<path d="M22.166 21.3333H24.666C24.887 21.3333 25.099 21.2455 25.2553 21.0892C25.4116 20.9329 25.4993 20.721 25.4993 20.5V18.8333C25.4993 18.6123 25.4116 18.4003 25.2553 18.244C25.099 18.0878 24.887 18 24.666 18H22.9993C22.7783 18 22.5664 17.9122 22.4101 17.7559C22.2538 17.5996 22.166 17.3876 22.166 17.1666V15.5C22.166 15.2789 22.2538 15.067 22.4101 14.9107C22.5664 14.7544 22.7783 14.6666 22.9993 14.6666H25.4993" stroke="white" stroke-width="1.66667" stroke-linecap="round" stroke-linejoin="round"/>
</g>
<defs>
<clipPath id="clip0_4010_4217">
<rect width="20" height="20" fill="white" transform="translate(8 8)"/>
</clipPath>
</defs>
</svg>
