<svg width="36" height="36" viewBox="0 0 36 36" fill="none" xmlns="http://www.w3.org/2000/svg">
<rect width="36" height="36" rx="18" fill="white"/>
<rect width="36" height="36" rx="18" fill="#1F1545"/>
<g clip-path="url(#clip0_4010_4359)">
<path d="M22.1654 14.6668V12.1668C22.1654 11.9458 22.0776 11.7339 21.9213 11.5776C21.765 11.4213 21.553 11.3335 21.332 11.3335H12.9987C12.5567 11.3335 12.1327 11.5091 11.8202 11.8217C11.5076 12.1342 11.332 12.5581 11.332 13.0002M11.332 13.0002C11.332 13.4422 11.5076 13.8661 11.8202 14.1787C12.1327 14.4912 12.5567 14.6668 12.9987 14.6668H22.9987C23.2197 14.6668 23.4317 14.7546 23.588 14.9109C23.7442 15.0672 23.832 15.2791 23.832 15.5002V18.0002M11.332 13.0002V23.0002C11.332 23.4422 11.5076 23.8661 11.8202 24.1787C12.1327 24.4912 12.5567 24.6668 12.9987 24.6668H22.9987C23.2197 24.6668 23.4317 24.579 23.588 24.4228C23.7442 24.2665 23.832 24.0545 23.832 23.8335V21.3335" stroke="white" stroke-width="1.66667" stroke-linecap="round" stroke-linejoin="round"/>
<path d="M24.666 18.0001V21.3335H21.3327C20.8907 21.3335 20.4667 21.1579 20.1542 20.8453C19.8416 20.5327 19.666 20.1088 19.666 19.6668C19.666 19.2248 19.8416 18.8008 20.1542 18.4883C20.4667 18.1757 20.8907 18.0001 21.3327 18.0001H24.666Z" stroke="white" stroke-width="1.66667" stroke-linecap="round" stroke-linejoin="round"/>
</g>
<defs>
<clipPath id="clip0_4010_4359">
<rect width="20" height="20" fill="white" transform="translate(8 8)"/>
</clipPath>
</defs>
</svg>
