<svg width="20" height="20" viewBox="0 0 20 20" fill="none" xmlns="http://www.w3.org/2000/svg">
<path d="M9.16699 10C9.16699 10.2211 9.25479 10.433 9.41107 10.5893C9.56735 10.7456 9.77931 10.8334 10.0003 10.8334C10.2213 10.8334 10.4333 10.7456 10.5896 10.5893C10.7459 10.433 10.8337 10.2211 10.8337 10C10.8337 9.77903 10.7459 9.56707 10.5896 9.41079C10.4333 9.2545 10.2213 9.16671 10.0003 9.16671C9.77931 9.16671 9.56735 9.2545 9.41107 9.41079C9.25479 9.56707 9.16699 9.77903 9.16699 10Z" stroke="#1F1545" stroke-width="1.66667" stroke-linecap="round" stroke-linejoin="round"/>
<path d="M9.16699 15.8334C9.16699 16.0544 9.25479 16.2663 9.41107 16.4226C9.56735 16.5789 9.77931 16.6667 10.0003 16.6667C10.2213 16.6667 10.4333 16.5789 10.5896 16.4226C10.7459 16.2663 10.8337 16.0544 10.8337 15.8334C10.8337 15.6124 10.7459 15.4004 10.5896 15.2441C10.4333 15.0878 10.2213 15 10.0003 15C9.77931 15 9.56735 15.0878 9.41107 15.2441C9.25479 15.4004 9.16699 15.6124 9.16699 15.8334Z" stroke="#1F1545" stroke-width="1.66667" stroke-linecap="round" stroke-linejoin="round"/>
<path d="M9.16699 4.16671C9.16699 4.38772 9.25479 4.59968 9.41107 4.75596C9.56735 4.91224 9.77931 5.00004 10.0003 5.00004C10.2213 5.00004 10.4333 4.91224 10.5896 4.75596C10.7459 4.59968 10.8337 4.38772 10.8337 4.16671C10.8337 3.94569 10.7459 3.73373 10.5896 3.57745C10.4333 3.42117 10.2213 3.33337 10.0003 3.33337C9.77931 3.33337 9.56735 3.42117 9.41107 3.57745C9.25479 3.73373 9.16699 3.94569 9.16699 4.16671Z" stroke="#1F1545" stroke-width="1.66667" stroke-linecap="round" stroke-linejoin="round"/>
</svg>
