<svg width="25" height="25" viewBox="0 0 25 25" fill="none" xmlns="http://www.w3.org/2000/svg">
<g clip-path="url(#clip0_2803_20692)">
<path d="M17.249 8.5V5.5C17.249 5.23478 17.1437 4.98043 16.9561 4.79289C16.7686 4.60536 16.5142 4.5 16.249 4.5H6.24902C5.71859 4.5 5.20988 4.71071 4.83481 5.08579C4.45974 5.46086 4.24902 5.96957 4.24902 6.5M4.24902 6.5C4.24902 7.03043 4.45974 7.53914 4.83481 7.91421C5.20988 8.28929 5.71859 8.5 6.24902 8.5H18.249C18.5142 8.5 18.7686 8.60536 18.9561 8.79289C19.1437 8.98043 19.249 9.23478 19.249 9.5V12.5M4.24902 6.5V18.5C4.24902 19.0304 4.45974 19.5391 4.83481 19.9142C5.20988 20.2893 5.71859 20.5 6.24902 20.5H18.249C18.5142 20.5 18.7686 20.3946 18.9561 20.2071C19.1437 20.0196 19.249 19.7652 19.249 19.5V16.5" stroke="#8839ED" stroke-width="2" stroke-linecap="round" stroke-linejoin="round"/>
<path d="M20.249 12.5V16.5H16.249C15.7186 16.5 15.2099 16.2893 14.8348 15.9142C14.4597 15.5391 14.249 15.0304 14.249 14.5C14.249 13.9696 14.4597 13.4609 14.8348 13.0858C15.2099 12.7107 15.7186 12.5 16.249 12.5H20.249Z" stroke="#8839ED" stroke-width="2" stroke-linecap="round" stroke-linejoin="round"/>
</g>
<defs>
<clipPath id="clip0_2803_20692">
<rect width="24" height="24" fill="white" transform="translate(0.25 0.5)"/>
</clipPath>
</defs>
</svg>
