<svg width="25" height="25" viewBox="0 0 25 25" fill="none" xmlns="http://www.w3.org/2000/svg">
<g id="Frame" clip-path="url(#clip0_2806_49857)">
<path id="Vector" d="M17.249 8.5V5.5C17.249 5.23478 17.1437 4.98043 16.9562 4.79289C16.7686 4.60536 16.5143 4.5 16.249 4.5H6.24904C5.71861 4.5 5.2099 4.71071 4.83483 5.08579C4.45976 5.46086 4.24904 5.96957 4.24904 6.5M4.24904 6.5C4.24904 7.03043 4.45976 7.53914 4.83483 7.91421C5.2099 8.28929 5.71861 8.5 6.24904 8.5H18.249C18.5143 8.5 18.7686 8.60536 18.9562 8.79289C19.1437 8.98043 19.249 9.23478 19.249 9.5V12.5M4.24904 6.5V18.5C4.24904 19.0304 4.45976 19.5391 4.83483 19.9142C5.2099 20.2893 5.71861 20.5 6.24904 20.5H18.249C18.5143 20.5 18.7686 20.3946 18.9562 20.2071C19.1437 20.0196 19.249 19.7652 19.249 19.5V16.5" stroke="#9B92BF" stroke-width="2" stroke-linecap="round" stroke-linejoin="round"/>
<path id="Vector_2" d="M20.2492 12.5V16.5H16.2492C15.7187 16.5 15.21 16.2893 14.835 15.9142C14.4599 15.5391 14.2492 15.0304 14.2492 14.5C14.2492 13.9696 14.4599 13.4609 14.835 13.0858C15.21 12.7107 15.7187 12.5 16.2492 12.5H20.2492Z" stroke="#9B92BF" stroke-width="2" stroke-linecap="round" stroke-linejoin="round"/>
</g>
<defs>
<clipPath id="clip0_2806_49857">
<rect width="24" height="24" fill="white" transform="translate(0.250019 0.5)"/>
</clipPath>
</defs>
</svg>
