<svg width="20" height="20" viewBox="0 0 20 20" fill="none" xmlns="http://www.w3.org/2000/svg">
<g clip-path="url(#clip0_2803_21616)">
<path d="M9.99958 19.2857C15.1279 19.2857 19.2853 15.1284 19.2853 10C19.2853 4.87164 15.1279 0.714287 9.99958 0.714287C4.87122 0.714287 0.713867 4.87164 0.713867 10C0.713867 15.1284 4.87122 19.2857 9.99958 19.2857Z" stroke="#1E1445" stroke-linecap="round" stroke-linejoin="round"/>
<path d="M1.42773 13.5714H3.92773C4.59078 13.5714 5.22666 13.308 5.6955 12.8392C6.16434 12.3704 6.42773 11.7345 6.42773 11.0714V8.92857C6.42773 8.26553 6.69113 7.62964 7.15997 7.1608C7.62881 6.69196 8.26469 6.42857 8.92773 6.42857C9.59078 6.42857 10.2267 6.16518 10.6955 5.69634C11.1643 5.2275 11.4277 4.59161 11.4277 3.92857V0.814285" stroke="#1E1445" stroke-linecap="round" stroke-linejoin="round"/>
<path d="M19.2849 9.85714C18.5696 9.48601 17.7764 9.29015 16.9706 9.28571H13.9277C13.2647 9.28571 12.6288 9.54911 12.16 10.0179C11.6911 10.4868 11.4277 11.1227 11.4277 11.7857C11.4277 12.4488 11.6911 13.0846 12.16 13.5535C12.6288 14.0223 13.2647 14.2857 13.9277 14.2857C14.4013 14.2857 14.8555 14.4739 15.1904 14.8087C15.5253 15.1436 15.7134 15.5978 15.7134 16.0714V17.3143" stroke="#1E1445" stroke-linecap="round" stroke-linejoin="round"/>
</g>
<defs>
<clipPath id="clip0_2803_21616">
<rect width="20" height="20" fill="white"/>
</clipPath>
</defs>
</svg>
